<svg xmlns="http://www.w3.org/2000/svg"  viewBox="0 0 64 64" width="64px" height="64px"><polygon fill="#efc88e" points="51,11 42.743,11 44,7 17.3,7 5.003,42 33.003,42 34.259,38 44,38"/><path fill="#8d6c9f" d="M33.003,43h-28c-0.324,0-0.628-0.157-0.816-0.422s-0.235-0.604-0.127-0.909l12.297-35 C16.498,6.268,16.876,6,17.3,6H44c0.318,0,0.618,0.151,0.807,0.408c0.188,0.257,0.243,0.588,0.147,0.892L44.105,10H51 c0.31,0,0.602,0.144,0.791,0.388c0.189,0.245,0.255,0.563,0.177,0.863l-7,27C44.854,38.692,44.456,39,44,39h-9.006l-1.037,3.3 C33.826,42.717,33.439,43,33.003,43z M6.414,41h25.854l1.037-3.3c0.131-0.417,0.518-0.7,0.954-0.7h8.967l6.481-25h-6.965 c-0.318,0-0.618-0.151-0.806-0.408c-0.188-0.257-0.244-0.588-0.148-0.892L42.638,8H18.009L6.414,41z"/><polygon fill="#c4939c" points="44,38 34.309,38 33,42 5.035,42.018 15.376,58 43.017,57.896 44.297,54 51,54"/><path fill="#8d6c9f" d="M15.376,59c-0.339,0-0.655-0.172-0.839-0.457L4.195,42.561c-0.199-0.308-0.214-0.699-0.039-1.021 c0.175-0.322,0.512-0.522,0.878-0.522L32.274,41l1.084-3.311C33.492,37.278,33.876,37,34.309,37H44c0.397,0,0.757,0.235,0.916,0.6 l7,16c0.136,0.309,0.105,0.665-0.079,0.947C51.652,54.83,51.338,55,51,55h-5.979l-1.054,3.208 c-0.135,0.408-0.516,0.686-0.946,0.688L15.38,59C15.378,59,15.377,59,15.376,59z M6.872,43.017l9.046,13.981l26.375-0.1l1.054-3.21 C43.481,53.277,43.865,53,44.297,53h5.174l-6.125-14h-8.313l-1.083,3.311C33.816,42.722,33.433,43,33.001,43L6.872,43.017z"/><polygon fill="#c4939c" points="57,28 51,11 44,38 51,54"/><path fill="#8d6c9f" d="M51,55c-0.395,0-0.756-0.232-0.916-0.6l-7-16c-0.09-0.205-0.108-0.435-0.052-0.651l7-27 c0.11-0.426,0.485-0.729,0.925-0.748c0.469-0.027,0.84,0.251,0.986,0.666l6,17c0.063,0.18,0.074,0.373,0.031,0.558l-6,26 c-0.098,0.421-0.452,0.731-0.882,0.771C51.062,54.999,51.03,55,51,55z M45.055,37.916l5.65,12.915l5.255-22.772L51.146,14.42 L45.055,37.916z"/><polygon fill="#c4939c" points="27,15 21,33 34,33 40,15"/><polygon fill="#cda1a7" points="27,15 34,33 40,15"/><path fill="#8d6c9f" d="M22,31h-7.642c-0.328,0-0.635-0.161-0.822-0.431c-0.187-0.27-0.229-0.613-0.115-0.921L15.915,23H12 c-0.552,0-1-0.447-1-1s0.448-1,1-1h5.358c0.328,0,0.635,0.161,0.822,0.431c0.187,0.27,0.229,0.613,0.115,0.921L15.801,29H22 c0.552,0,1,0.447,1,1S22.552,31,22,31z"/><path fill="#8d6c9f" d="M23,27h-7c-0.552,0-1-0.447-1-1s0.448-1,1-1h7c0.552,0,1,0.447,1,1S23.552,27,23,27z"/><line x1="33.894" x2="27.073" y1="32.532" y2="15.298" fill="#efc88e"/><path fill="#8d6c9f" d="M33.894,33.532c-0.398,0-0.774-0.239-0.93-0.632l-6.82-17.234c-0.204-0.514,0.048-1.095,0.562-1.298 c0.517-0.204,1.095,0.049,1.298,0.562l6.82,17.234c0.203,0.514-0.048,1.095-0.562,1.298C34.141,33.51,34.017,33.532,33.894,33.532z"/><path fill="#8d6c9f" d="M33,16c-0.104,0-0.211-0.017-0.316-0.052c-0.523-0.174-0.807-0.74-0.632-1.265l1-3 c0.175-0.523,0.736-0.807,1.265-0.632c0.523,0.174,0.807,0.74,0.632,1.265l-1,3C33.809,15.735,33.419,16,33,16z"/><path fill="#8d6c9f" d="M24,43c-0.104,0-0.211-0.017-0.316-0.052c-0.524-0.174-0.807-0.74-0.632-1.265l1-3 c0.175-0.523,0.74-0.809,1.265-0.632c0.524,0.174,0.807,0.74,0.632,1.265l-1,3C24.809,42.735,24.419,43,24,43z"/><g><path fill="#8d6c9f" d="M36.288,45.277c-0.099,0-0.199-0.015-0.299-0.046c-0.526-0.164-0.82-0.726-0.655-1.253l0.712-2.277 c0.164-0.527,0.722-0.824,1.253-0.655c0.526,0.164,0.82,0.726,0.655,1.253l-0.712,2.277C37.108,45.004,36.714,45.277,36.288,45.277 z"/></g><g><path fill="#8d6c9f" d="M38.288,50.277c-0.099,0-0.199-0.015-0.299-0.046c-0.526-0.164-0.82-0.726-0.655-1.253l0.712-2.277 c0.165-0.527,0.721-0.823,1.253-0.655c0.526,0.164,0.82,0.726,0.655,1.253l-0.712,2.277C39.108,50.004,38.714,50.277,38.288,50.277 z"/></g><g><path fill="#8d6c9f" d="M40.288,55.277c-0.099,0-0.199-0.015-0.299-0.046c-0.526-0.164-0.82-0.726-0.655-1.253l0.712-2.277 c0.164-0.527,0.723-0.823,1.253-0.655c0.526,0.164,0.82,0.726,0.655,1.253l-0.712,2.277C41.108,55.004,40.714,55.277,40.288,55.277 z"/></g><g><path fill="#8d6c9f" d="M34,34H21c-0.321,0-0.623-0.154-0.811-0.415s-0.239-0.597-0.138-0.901l6-18 C26.188,14.275,26.569,14,27,14h13c0.321,0,0.623,0.154,0.812,0.415c0.188,0.261,0.239,0.597,0.137,0.901l-6,18 C34.813,33.725,34.431,34,34,34z M22.387,32h10.892l5.333-16H27.721L22.387,32z"/></g></svg>