<svg xmlns="http://www.w3.org/2000/svg"  viewBox="0 0 64 64" width="64px" height="64px"><rect width="48" height="48" x="8" y="8" fill="#efc88e"/><path fill="#7bbeeb" d="M59,32c0,14.91-12.09,27-27,27c-4.91,0-9.52-1.31-13.48-3.61C10.44,50.73,5,42,5,32	c0-5.18,1.46-10.02,4-14.13C13.74,10.15,22.27,5,32,5c0.54,0,1.09,0.02,1.62,0.06c9.05,0.53,16.9,5.52,21.39,12.81	C57.54,21.98,59,26.82,59,32z"/><path fill="#8d6c9f" d="M56,20.64c-0.553,0-1-0.447-1-1V9H44.36c-0.553,0-1-0.447-1-1s0.447-1,1-1H56c0.553,0,1,0.447,1,1	v11.64C57,20.192,56.553,20.64,56,20.64z"/><path fill="#8d6c9f" d="M19.64,57H8c-0.553,0-1-0.447-1-1V44.36c0-0.553,0.447-1,1-1s1,0.447,1,1V55h10.64	c0.553,0,1,0.447,1,1S20.192,57,19.64,57z"/><path fill="#8d6c9f" d="M56,57H44.36c-0.553,0-1-0.447-1-1s0.447-1,1-1H55V44.36c0-0.553,0.447-1,1-1s1,0.447,1,1V56	C57,56.553,56.553,57,56,57z"/><path fill="#85cbf8" d="M55.01,17.87C54.02,18.62,52.84,19,51.67,19c-1.47,0-2.93-0.58-4.01-1.73	C43.55,12.9,37.99,10.5,32,10.5s-11.55,2.4-15.66,6.77c-1.95,2.07-5.12,2.3-7.34,0.6C13.74,10.15,22.27,5,32,5	c0.54,0,1.09,0.02,1.62,0.06C42.67,5.59,50.52,10.58,55.01,17.87z"/><path fill="#8d6c9f" d="M8,20.64c-0.553,0-1-0.447-1-1V8c0-0.553,0.447-1,1-1h11.64c0.553,0,1,0.447,1,1s-0.447,1-1,1H9	v10.64C9,20.192,8.553,20.64,8,20.64z"/><path fill="#8d6c9f" d="M32,60C16.561,60,4,47.439,4,32S16.561,4,32,4s28,12.561,28,28S47.439,60,32,60z M32,6	C17.663,6,6,17.663,6,32s11.663,26,26,26s26-11.663,26-26S46.337,6,32,6z"/><path fill="#ffeb9b" d="M14,16h10l-0.572,1.715c-0.281,0.842-0.332,1.743-0.149,2.611L27,38l5-20l5,20l3.341-18.137	c0.105-0.571,0.11-1.155,0.015-1.728L40,16h10l-1.888,3.777c-0.406,0.812-0.699,1.675-0.872,2.566l-4.347,22.39	c-0.255,1.472-0.032,2.988,0.636,4.324L44,50H34l0.399-1.198c0.391-1.173,0.41-2.437,0.055-3.621L32,37l-2.076,8.305	c-0.277,1.107-0.232,2.27,0.129,3.353L30.5,50H21l0.357-0.715c0.738-1.476,0.931-3.165,0.545-4.769L16.267,21.11	c-0.178-0.738-0.439-1.453-0.778-2.132L14,16z"/><path fill="#efc88e" d="M49,16.5l-3.688,2.049c-0.515,0.286-0.878,0.785-0.991,1.363l-4.977,23.465L37,34l-5-13v10	l6.752,15.433c0.161,0.369,0.431,0.681,0.772,0.894L43,49.5l-0.5-3L49,16.5z"/><path fill="#efc88e" d="M26.5,44.5l1.5-7L23,16l-2.412,1.723c-0.659,0.47-0.969,1.291-0.786,2.08l6,25.847	c0.126,0.542,0.472,1.008,0.956,1.284L29.5,48.5L32,37v-6L26.5,44.5z"/><path fill="#8d6c9f" d="M44,51H34c-0.321,0-0.623-0.154-0.812-0.415c-0.188-0.261-0.239-0.597-0.137-0.901l0.399-1.198	c0.327-0.982,0.343-2.026,0.045-3.017l-1.408-4.696l-1.194,4.774c-0.23,0.926-0.193,1.892,0.107,2.794l0.448,1.343	c0.102,0.306,0.05,0.641-0.138,0.901C31.123,50.846,30.821,51,30.5,51H21c-0.347,0-0.668-0.18-0.851-0.475s-0.199-0.663-0.044-0.973	l0.357-0.715c0.632-1.263,0.798-2.714,0.467-4.087l-5.635-23.406c-0.159-0.664-0.396-1.31-0.7-1.919l-1.489-2.979	c-0.155-0.31-0.139-0.678,0.044-0.973S13.653,15,14,15h10c0.321,0,0.623,0.154,0.812,0.415c0.188,0.261,0.239,0.596,0.138,0.901	l-0.571,1.715c-0.225,0.672-0.267,1.394-0.12,2.089l2.826,13.423l3.946-15.785C31.142,17.313,31.541,17,32,17	s0.858,0.313,0.97,0.758l3.882,15.526l2.506-13.603c0.085-0.458,0.089-0.923,0.012-1.382l-0.355-2.136	c-0.049-0.29,0.033-0.586,0.224-0.811C39.427,15.129,39.706,15,40,15h10c0.347,0,0.669,0.18,0.851,0.475	c0.183,0.295,0.199,0.663,0.044,0.973l-1.889,3.776c-0.365,0.732-0.63,1.51-0.785,2.31l-4.347,22.391	c-0.216,1.251-0.027,2.533,0.549,3.687l0.472,0.942c0.155,0.31,0.139,0.678-0.044,0.973C44.669,50.82,44.347,51,44,51z M35.387,49	h7.016c-0.585-1.403-0.757-2.926-0.495-4.438l4.351-22.41c0.189-0.978,0.512-1.927,0.959-2.822L48.382,17h-7.201l0.161,0.971	c0.115,0.688,0.109,1.387-0.018,2.073l-3.341,18.137c-0.085,0.463-0.481,0.804-0.952,0.818c-0.513,0.026-0.888-0.301-1.001-0.757	L32,22.123l-4.03,16.119c-0.113,0.452-0.531,0.724-0.988,0.758c-0.466-0.009-0.864-0.338-0.96-0.794l-3.721-17.674	c-0.22-1.043-0.157-2.126,0.18-3.134L22.613,17h-6.995l0.766,1.531c0.372,0.744,0.66,1.533,0.856,2.345l5.635,23.406	c0.378,1.571,0.269,3.219-0.302,4.718h6.54l-0.01-0.026c-0.421-1.263-0.474-2.615-0.15-3.911l2.077-8.305	c0.108-0.438,0.496-0.747,0.946-0.758c0.426,0.015,0.852,0.282,0.981,0.713l2.454,8.181C35.816,46.241,35.808,47.658,35.387,49z"/><path fill="#8d6c9f" d="M9.991,29.743c-0.438,0-0.841-0.291-0.963-0.735c-0.146-0.532,0.166-1.082,0.699-1.229l1.929-0.53 c0.525-0.146,1.082,0.166,1.229,0.699c0.146,0.532-0.166,1.082-0.699,1.229l-1.929,0.53C10.169,29.731,10.079,29.743,9.991,29.743 z"/><path fill="#8d6c9f" d="M11.187,34.091c-0.438,0-0.841-0.291-0.963-0.735c-0.146-0.532,0.166-1.082,0.699-1.229l1.929-0.53 c0.523-0.148,1.082,0.165,1.229,0.699c0.146,0.532-0.166,1.082-0.699,1.229l-1.929,0.53 C11.364,34.079,11.274,34.091,11.187,34.091z"/><path fill="#8d6c9f" d="M12.383,38.439c-0.438,0-0.841-0.291-0.963-0.735c-0.146-0.532,0.166-1.082,0.699-1.229l1.929-0.53 c0.526-0.149,1.082,0.166,1.229,0.699c0.146,0.532-0.166,1.082-0.699,1.229l-1.929,0.53 C12.561,38.428,12.471,38.439,12.383,38.439z"/><path fill="#8d6c9f" d="M13.578,42.787c-0.438,0-0.841-0.291-0.963-0.735c-0.146-0.532,0.166-1.082,0.699-1.229l1.929-0.53 c0.524-0.148,1.082,0.165,1.229,0.699c0.146,0.532-0.166,1.082-0.699,1.229l-1.929,0.53 C13.756,42.775,13.666,42.787,13.578,42.787z"/><path fill="#8d6c9f" d="M53.287,29.257c-0.063,0-0.128-0.006-0.192-0.019l-1.963-0.383 c-0.542-0.105-0.896-0.631-0.79-1.173c0.104-0.543,0.633-0.897,1.173-0.79l1.963,0.383c0.542,0.105,0.896,0.631,0.79,1.173 C54.175,28.926,53.756,29.257,53.287,29.257z"/><path fill="#8d6c9f" d="M52.417,33.713c-0.063,0-0.128-0.006-0.192-0.019l-1.963-0.383 c-0.542-0.105-0.896-0.631-0.79-1.173c0.105-0.543,0.631-0.899,1.173-0.79l1.963,0.383c0.542,0.105,0.896,0.631,0.79,1.173 C53.305,33.382,52.886,33.713,52.417,33.713z"/><path fill="#8d6c9f" d="M51.548,38.17c-0.063,0-0.128-0.006-0.192-0.019l-1.963-0.383c-0.542-0.105-0.896-0.631-0.79-1.173 c0.104-0.542,0.632-0.902,1.173-0.79l1.963,0.383c0.542,0.105,0.896,0.631,0.79,1.173C52.436,37.839,52.017,38.17,51.548,38.17z"/><path fill="#8d6c9f" d="M50.678,42.626c-0.063,0-0.128-0.006-0.192-0.019l-1.963-0.383 c-0.542-0.105-0.896-0.631-0.79-1.173s0.63-0.896,1.173-0.79l1.963,0.383c0.542,0.105,0.896,0.631,0.79,1.173 C51.565,42.295,51.146,42.626,50.678,42.626z"/><path fill="#8d6c9f" d="M12.5,13.5c-0.256,0-0.512-0.098-0.707-0.293l-4.5-4.5c-0.391-0.391-0.391-1.023,0-1.414	s1.023-0.391,1.414,0l4.5,4.5c0.391,0.391,0.391,1.023,0,1.414C13.012,13.402,12.756,13.5,12.5,13.5z"/><path fill="#8d6c9f" d="M51.5,13.5c-0.256,0-0.512-0.098-0.707-0.293c-0.391-0.391-0.391-1.023,0-1.414l4.5-4.5	c0.391-0.391,1.023-0.391,1.414,0s0.391,1.023,0,1.414l-4.5,4.5C52.012,13.402,51.756,13.5,51.5,13.5z"/><path fill="#8d6c9f" d="M8,57c-0.256,0-0.512-0.098-0.707-0.293c-0.391-0.391-0.391-1.023,0-1.414l4.5-4.5	c0.391-0.391,1.023-0.391,1.414,0s0.391,1.023,0,1.414l-4.5,4.5C8.512,56.902,8.256,57,8,57z"/><path fill="#8d6c9f" d="M56,57c-0.256,0-0.512-0.098-0.707-0.293l-4.5-4.5c-0.391-0.391-0.391-1.023,0-1.414	s1.023-0.391,1.414,0l4.5,4.5c0.391,0.391,0.391,1.023,0,1.414C56.512,56.902,56.256,57,56,57z"/></svg>