<svg xmlns="http://www.w3.org/2000/svg"  viewBox="0 0 64 64" width="64px" height="64px"><g data-name="Layer 1"><path fill="#ed7899" d="M57,8.25H52c-1.06,0-1.36.09-2.5,1.25V7H42c-1.58,0-2,.72-2.5,2.5H37A4.36,4.36,0,0,1,35.75,7H27a3,3,0,0,1-2.63,2.5H20.75c-.57,0-1-.76-1.25-1.25H7v10A44.35,44.35,0,0,0,8.25,27v2.58L7,30.75v5L8.25,37v6.25L7,47l1.25,5L7,55.75H24.5l1.25-1.25C26,55,27,57,28.25,57H32c1.25,0,2.5-1.25,3.75-1.25H42l1.25-1.25C44.5,55.75,45,57,45.75,57H52V54.5l5,1.25S56.92,43.42,57,37l-1.25-1.25V29.5L54.5,28.25l1.25-2.5L57,24.5c0-1.25,0-5,0-6.26l-1.23-5L57,10.75Zm-13.64,7.5,3.81,2.5-1.27,7.5-10.15-7.5ZM19.5,48.25l-5-3.75L17,35.75l10,10ZM46,47H40.17L14,20l8-4L49.5,38.9Z"/><path fill="#8d6c9f" d="M46 48H40.17a1 1 0 0 1-.72-.3l-26.17-27a1 1 0 0 1 .27-1.59l8-4a1 1 0 0 1 1.09.12l27.5 22.9a1 1 0 0 1 .28 1.17l-3.5 8.1A1 1 0 0 1 46 48zm-5.41-2h4.75l2.95-6.81-26.43-22-6.19 3.09zM45.9 26.75a1 1 0 0 1-.6-.2l-10.14-7.5a1 1 0 0 1-.4-1 1 1 0 0 1 .68-.79l7.61-2.5a1 1 0 0 1 .86.11l3.81 2.5a1 1 0 0 1 .43 1l-1.27 7.5a1 1 0 0 1-.61.76A.94.94 0 0 1 45.9 26.75zm-8-8.15L45.18 24l.89-5.25-2.85-1.88z"/><path fill="#8d6c9f" d="M52,58H45.75c-1,0-1.53-.74-2.14-1.53l-.4-.52-.5.51a1,1,0,0,1-.71.29H35.75a3.8,3.8,0,0,0-1.43.52A5.28,5.28,0,0,1,32,58H28.25a3.57,3.57,0,0,1-2.72-1.86l-.32.32a1,1,0,0,1-.71.29H7a1,1,0,0,1-.81-.42,1,1,0,0,1-.14-.9L7.21,52,6,47.24a1,1,0,0,1,0-.56l1.2-3.59V37.41l-1-.95A1,1,0,0,1,6,35.75v-5A1,1,0,0,1,6.31,30l.93-.87v-2A44.12,44.12,0,0,1,6,18.25v-10a1,1,0,0,1,1-1H19.5a1,1,0,0,1,.92.6,1.88,1.88,0,0,0,.42.65h3.53c1,0,1.6-1.27,1.63-1.6A1,1,0,0,1,27,6h8.75a1,1,0,0,1,1,1,2.84,2.84,0,0,0,.7,1.5h1.32C39.28,7,40,6,42,6h7.5a1,1,0,0,1,1,1v.47A3.89,3.89,0,0,1,52,7.25h5a1,1,0,0,1,1,1v2.5a1,1,0,0,1-.11.45l-1.08,2.17L58,18a1,1,0,0,1,0,.24c0,.63,0,1.89,0,3.14s0,2.5,0,3.12a1,1,0,0,1-.29.71l-1.14,1.13-.85,1.71.74.74a1,1,0,0,1,.29.71v5.84l1,.95A1,1,0,0,1,58,37c-.08,6.34,0,18.61,0,18.73a1,1,0,0,1-.38.8,1,1,0,0,1-.86.18L53,55.78V57A1,1,0,0,1,52,58Zm-6.17-2H51V54.5a1,1,0,0,1,.38-.79,1,1,0,0,1,.86-.18l3.75.94c0-3.25-.05-11.87,0-17.06l-1-.95a1,1,0,0,1-.29-.71V29.91l-1-.95a1,1,0,0,1-.18-1.16l1.25-2.5A1.1,1.1,0,0,1,55,25l1-.95c0-.68,0-1.69,0-2.7,0-1.18,0-2.37,0-3l-1.2-4.87a1,1,0,0,1,.08-.69L56,10.51V9.25H52c-.79,0-.85,0-1.79.95a1,1,0,0,1-1.09.23,1,1,0,0,1-.62-.93V8H42c-.81,0-1,0-1.54,1.79a1,1,0,0,1-1,.71H37a1,1,0,0,1-.71-.29A6.33,6.33,0,0,1,34.91,8H27.75a3.84,3.84,0,0,1-3.38,2.5H20.75A2.3,2.3,0,0,1,18.9,9.25H8v9a43.86,43.86,0,0,0,1.22,8.51,1,1,0,0,1,0,.25v2.58a1,1,0,0,1-.32.72L8,31.18v4.16l1,.95a1,1,0,0,1,.29.71v6.25a1.19,1.19,0,0,1-.05.32L8,47l1.18,4.72a1,1,0,0,1,0,.56l-.81,2.43h15.7l.95-1a1,1,0,0,1,1.61.28c.57,1.19,1.27,1.93,1.6,1.93H32a3.8,3.8,0,0,0,1.43-.52,5.28,5.28,0,0,1,2.32-.73h5.84l.95-1a1,1,0,0,1,1.42,0,16.25,16.25,0,0,1,1.24,1.46A6.39,6.39,0,0,0,45.83,56Z"/><path fill="#8d6c9f" d="M19.5 49.25a1 1 0 0 1-.6-.2l-5-3.75a1 1 0 0 1-.36-1.07L16 35.48a1 1 0 0 1 .74-.71 1 1 0 0 1 1 .32l9 10.25a1 1 0 0 1 .22.92 1 1 0 0 1-.64.68l-6.5 2.25A1 1 0 0 1 19.5 49.25zm-3.85-5.14l4 3 4.6-1.59-6.81-7.75zM42.75 44.27a1 1 0 0 1-.69-.28 1 1 0 0 1 0-1.41l1.39-1.44a1 1 0 1 1 1.44 1.39L43.47 44A1 1 0 0 1 42.75 44.27zM38.94 40.59a1.05 1.05 0 0 1-.7-.28 1 1 0 0 1 0-1.42l1.39-1.44a1 1 0 0 1 1.44 1.39l-1.39 1.44A1 1 0 0 1 38.94 40.59zM35.12 36.9a1 1 0 0 1-.69-.28 1 1 0 0 1 0-1.41l1.39-1.44a1 1 0 0 1 1.44 1.39L35.84 36.6A1 1 0 0 1 35.12 36.9zM31.31 33.22a1 1 0 0 1-.72-1.7L32 30.09a1 1 0 1 1 1.43 1.39L32 32.91A1 1 0 0 1 31.31 33.22zM27.49 29.54a1 1 0 0 1-.69-.29 1 1 0 0 1 0-1.41l1.39-1.44a1 1 0 0 1 1.44 1.39l-1.39 1.44A1 1 0 0 1 27.49 29.54zM23.67 25.85a1 1 0 0 1-.69-.28 1 1 0 0 1 0-1.41l1.39-1.44a1 1 0 1 1 1.44 1.39l-1.39 1.44A1 1 0 0 1 23.67 25.85zM19.86 22.17a1.05 1.05 0 0 1-.7-.28 1 1 0 0 1 0-1.42L20.53 19A1 1 0 0 1 22 20.42l-1.39 1.44A1 1 0 0 1 19.86 22.17z"/></g></svg>