<svg xmlns="http://www.w3.org/2000/svg"  viewBox="0 0 64 64" width="64px" height="64px"><path fill="#acb7d0" d="M58,12c0,0-4,0-5.34,0.005c-0.016-0.253,0.354-0.764,0.344-1.016 c-0.202-0.025-0.804,0.078-0.999,0.034c-0.182-0.628-0.013-1.37-0.034-2.015c-0.103-0.001-0.861,0.003-0.964,0 c-0.033,0.734,0.009,1.572,0.001,2.306C50.743,11.107,50.385,10.971,50,11h-8.604c-0.555,0.058-1.107-0.432-1.555-0.689 c-0.043-0.338-0.099-0.674-0.167-1.006c-0.315,0.417-0.343,0.95-0.459,1.441c-0.835,0.159-1.661,0.609-2.512,0.681 c-0.074-0.473-0.153-0.945-0.207-1.422c0.451-0.209,0.957-0.349,1.33-0.69c0.439-1.235-0.069-2.519-0.359-3.726 c-0.9-0.63-2.293-1.187-3.33-1.588h-1.491l0,0c-1.024,0.322-2.266,0.856-2.848,1.783c-0.901,1.36-1.026,3.106-0.459,4.616 c-0.08,0.052-0.24,0.159-0.32,0.214c-0.976-0.742-2.325-0.375-3.259,0.247c-1.356,0.989-2.249,2.66-2.549,4.255 c-0.31,1.352-0.172,2.739-0.006,4.097c-0.561,0.133-0.967,0.105-1.538,0.147c-0.239,0.01-0.541,0.102-0.567,0.375 c-0.172,1.075-0.044,2.181-0.275,3.249c-0.149,0.685-0.245,1.38-0.22,2.082c0.625,0.136,1.255,0.267,1.883,0.395 c-0.429,0.19-0.923,0.324-1.229,0.7c-0.269,1.734,0.594,3.435,0.536,5.174c-0.315,0.264-0.708,0.502-0.811,0.925 c-0.193,0.499,0.114,1.006,0.039,1.517c-0.073,0.555,0.057,1.108,0.242,1.628c0.173,0.436,0.029,0.903-0.04,1.347 c-0.203,1.149-0.436,2.302-0.486,3.469c-0.04,0.616,0.182,1.251-0.023,1.849c-0.667,1.468-1.787,2.694-2.379,4.199 c-0.262,0.693-0.129,1.485-0.505,2.142c-0.402,0.74-0.957,1.47-0.907,2.357c-0.044,0.601,0.453,1.14,0.243,1.741 c-0.312,1.225-0.625,2.452-0.971,3.67c-0.235,0.81-0.279,1.697-0.017,2.505c0.35,0.177,0.745,0.236,1.129,0.316h1.475 c0.476-0.043,0.948-0.12,1.425-0.184c0.137-0.635-0.024-1.255-0.247-1.847c-0.278-1.49-0.03-3.074,0.744-4.389 c0.268-0.341,0.754-0.473,0.944-0.88c0.285-0.582,0.421-1.218,0.681-1.809c0.366-0.841,0.867-1.632,1.096-2.527 c0.127-0.489-0.019-0.991,0.027-1.486c0.139-0.549,0.395-1.086,0.815-1.482c0.564-0.507,0.784-1.284,1.401-1.745 c0.421-0.302,0.441-0.844,0.529-1.308c0.083-0.613,0.29-1.2,0.521-1.774c0.328-0.793,0.554-1.664,1.185-2.289 c0.401-0.403,0.601-0.939,0.747-1.473c0.25,0.466,0.451,0.983,0.853,1.349c0.451,0.217,1.107,0.1,1.381,0.597 c0.785,1.149,0.844,1.804,1.632,2.953c0.376,0.714,1.283,0.539,1.954,0.558c0.386,0.51,0.817,0.657,0.688,1.276 c-0.024,0.697-0.637,1.235-0.551,1.948c0.067,1.452,0.216,3.245,0.608,4.651c0.137,0.656,0.492,1.258,0.504,1.94 c0.017,0.789-0.139,2.082-0.303,2.861c-0.401,1.044-0.674,2.135-0.725,3.253c0.947,0.536,2.04-0.008,3.03,0.309 c1.086,0.345,2.025,0.496,3.162,0.476c0.7-0.012,1.401-0.078,2.089-0.181c0.004-0.381,0.133-0.795-0.047-1.151 c-0.572-0.65-1.529-0.653-2.225-1.103c-0.562-0.487-0.822-1.108-1.291-1.679c-0.396-0.448,0.134-1.068,0.119-1.633 c0.006-0.858,0.001-1.742,0.33-2.551c0.243-0.643,0.162-1.339,0.03-1.995c-0.177-0.807,0.123-1.603,0.2-2.402 c0.112-1.089,0.154-2.509,0.226-3.601c0.052-0.623-0.17-1.217-0.328-1.809c-0.093-0.558-0.645-0.873-0.807-1.402 c-0.947-2.511-1.814-4.577-3.679-6.579c-0.717-0.686-1.079-1.833-0.644-2.755c0.403,0.106,0.804,0.223,1.213,0.322 c0.436-0.565,0.863-1.189,0.933-1.915c0.072-0.748,0.093-1.5,0.162-2.248c0.031-0.815,0.215-1.655-0.004-2.456 c-0.143-0.547-0.705-0.784-1.14-1.061c0.104-0.381,0.21-0.759,0.303-1.143c1.435,0.672,2.765,1.647,4.372,1.886 c0.431,0.063,0.891,0.261,1.319,0.071c0.589-0.272,1.044-0.748,1.559-1.13c0.933-0.705,0.804-1.992,1.129-2.999 c0.318-0.118,0.641-0.227,0.963-0.342c-0.212-0.892-0.581-1.794-0.455-2.725c0.386-0.507,0.863-0.432,1.265-0.928 c0.288-0.377,0.785-0.474,1.239-0.463c1.366-0.007,1.734,0.016,3.101,0.001L58,14V12z"/><path fill="#8d6c9f" d="M4 42c0 .552.447 1 1 1s1-.448 1-1v-2c0-.552-.447-1-1-1s-1 .448-1 1V42zM10 43c.553 0 1-.448 1-1v-2c0-.552-.447-1-1-1s-1 .448-1 1v2C9 42.552 9.447 43 10 43zM15 43c.553 0 1-.448 1-1v-2c0-.552-.447-1-1-1s-1 .448-1 1v2C14 42.552 14.447 43 15 43zM47 42c0 .552.447 1 1 1s1-.448 1-1v-2c0-.552-.447-1-1-1s-1 .448-1 1V42zM53 43c.553 0 1-.448 1-1v-2c0-.552-.447-1-1-1s-1 .448-1 1v2C52 42.552 52.447 43 53 43zM58 43c.553 0 1-.448 1-1v-2c0-.552-.447-1-1-1s-1 .448-1 1v2C57 42.552 57.447 43 58 43z"/><path fill="#8d6c9f" d="M58.707,11.293C58.52,11.105,58.266,11,58,11c0,0-2.298,0-3.995,0.002c0-0.017,0-0.035-0.001-0.052 c-0.019-0.49-0.391-0.894-0.877-0.954c-0.062-0.008-0.128-0.011-0.195-0.011c0.005-0.068,0.009-0.138,0.014-0.208 c0.019-0.274,0.034-0.544,0.025-0.801c-0.018-0.534-0.451-0.959-0.985-0.967c0,0-0.888,0.002-0.95,0 c-0.514-0.023-1.004,0.41-1.027,0.956C49.993,9.295,49.993,9.646,49.996,10l-8.688,0.005c-0.106-0.01-0.371-0.178-0.544-0.292 c-0.032-0.204-0.069-0.408-0.111-0.61c-0.079-0.385-0.376-0.688-0.759-0.774c-0.327-0.077-0.667,0.021-0.906,0.248 c0.062-0.925-0.175-1.809-0.392-2.614c-0.056-0.205-0.11-0.408-0.159-0.609c-0.057-0.237-0.198-0.445-0.398-0.585 c-0.929-0.65-2.251-1.202-3.541-1.701C34.383,3.023,34.26,3,34.137,3h-1.491c-0.102,0-0.203,0.016-0.3,0.046 c-1.685,0.529-2.795,1.25-3.382,2.185c-0.769,1.16-1.088,2.572-0.932,3.978c-1.013-0.082-2.055,0.306-2.862,0.845 c-1.47,1.071-2.57,2.895-2.935,4.838c-0.266,1.154-0.243,2.294-0.135,3.444c-0.005,0-0.01,0-0.016,0 c-0.154,0.006-0.315,0.013-0.46,0.024c-0.842,0.034-1.453,0.55-1.513,1.217c-0.089,0.552-0.106,1.089-0.123,1.608 c-0.019,0.563-0.036,1.095-0.141,1.585c-0.188,0.862-0.269,1.624-0.243,2.33c0.014,0.415,0.282,0.772,0.665,0.908 c-0.176,1.134,0.041,2.187,0.252,3.204c0.118,0.573,0.231,1.123,0.266,1.651c-0.288,0.244-0.616,0.586-0.76,1.096 c-0.182,0.52-0.098,0.986-0.036,1.331c0.022,0.125,0.05,0.28,0.039,0.355c-0.11,0.835,0.113,1.595,0.304,2.13 c0.034,0.086-0.015,0.352-0.051,0.546l-0.128,0.72c-0.183,1.013-0.371,2.06-0.417,3.115c-0.021,0.314,0.008,0.609,0.033,0.869 c0.028,0.298,0.053,0.556,0.032,0.631c-0.278,0.611-0.652,1.19-1.048,1.803c-0.49,0.758-0.997,1.542-1.356,2.457 c-0.157,0.415-0.206,0.819-0.249,1.177c-0.041,0.336-0.077,0.627-0.199,0.841c-0.069,0.129-0.145,0.257-0.22,0.386 c-0.377,0.646-0.846,1.449-0.81,2.444c-0.018,0.432,0.103,0.791,0.2,1.083c0.039,0.117,0.098,0.294,0.1,0.332 c-0.009,0.027-0.03,0.104-0.037,0.133c-0.307,1.199-0.612,2.4-0.951,3.589c-0.312,1.077-0.313,2.146-0.007,3.092 c0.082,0.253,0.262,0.463,0.498,0.583c0.417,0.212,0.835,0.295,1.204,0.369l0.172,0.034C17.169,59.993,17.238,60,17.307,60 l1.565-0.004c0.374-0.034,0.744-0.087,1.117-0.14l0.354-0.051c0.417-0.057,0.753-0.368,0.842-0.779 c0.19-0.885-0.028-1.697-0.257-2.322c-0.207-1.216,0.006-2.492,0.588-3.53c0.045-0.038,0.125-0.094,0.183-0.134 c0.252-0.175,0.632-0.439,0.848-0.9c0.185-0.377,0.309-0.749,0.428-1.108c0.083-0.249,0.165-0.498,0.271-0.741 c0.113-0.262,0.242-0.518,0.369-0.774c0.295-0.591,0.599-1.201,0.777-1.899c0.116-0.445,0.088-0.859,0.066-1.191 c-0.009-0.128-0.021-0.256-0.016-0.383c0.082-0.29,0.232-0.657,0.494-0.903c0.36-0.325,0.598-0.696,0.808-1.023 c0.181-0.282,0.336-0.525,0.507-0.653c0.692-0.498,0.814-1.245,0.895-1.739l0.042-0.246c0.07-0.522,0.262-1.046,0.455-1.526 c0.071-0.173,0.138-0.35,0.205-0.526c0.212-0.561,0.413-1.091,0.764-1.439c0.051-0.051,0.099-0.103,0.145-0.156 c0.023,0.022,0.047,0.045,0.071,0.066c0.071,0.066,0.153,0.121,0.24,0.163c0.277,0.133,0.553,0.186,0.774,0.228 c0.068,0.013,0.162,0.03,0.225,0.047c0.339,0.499,0.525,0.897,0.723,1.317c0.21,0.449,0.448,0.956,0.871,1.58 c0.58,1.025,1.697,1.051,2.359,1.039c0.02,0.02,0.038,0.038,0.057,0.058c0.03,0.031,0.061,0.06,0.088,0.088 c-0.004,0.03-0.006,0.061-0.007,0.091c-0.004,0.115-0.093,0.303-0.187,0.501c-0.186,0.393-0.439,0.931-0.364,1.528 c0.097,2.071,0.307,3.666,0.629,4.81c0.062,0.298,0.16,0.588,0.261,0.876c0.116,0.333,0.217,0.621,0.221,0.883 c0.016,0.677-0.123,1.844-0.266,2.559c-0.454,1.203-0.71,2.376-0.762,3.487c-0.018,0.376,0.179,0.73,0.507,0.916 c0.783,0.443,1.583,0.394,2.228,0.354c0.391-0.025,0.729-0.048,0.992,0.038c1.224,0.388,2.248,0.536,3.483,0.522 c0.708-0.013,1.454-0.078,2.219-0.192c0.485-0.073,0.847-0.488,0.852-0.979c0.001-0.08,0.011-0.161,0.019-0.243 c0.035-0.34,0.087-0.854-0.173-1.369c-0.038-0.075-0.086-0.146-0.142-0.209c-0.518-0.589-1.186-0.812-1.723-0.99 c-0.246-0.082-0.479-0.16-0.653-0.258c-0.216-0.203-0.387-0.462-0.581-0.758c-0.133-0.2-0.267-0.403-0.432-0.616 c0.017-0.057,0.038-0.122,0.055-0.173c0.087-0.269,0.196-0.602,0.186-1.028c0.006-0.771,0.01-1.499,0.265-2.128 c0.339-0.892,0.229-1.788,0.072-2.563c-0.077-0.353,0-0.766,0.088-1.244c0.053-0.283,0.104-0.565,0.131-0.842 c0.075-0.73,0.12-1.606,0.163-2.438c0.021-0.42,0.042-0.829,0.065-1.184c0.056-0.688-0.118-1.297-0.271-1.834l-0.067-0.221 c-0.093-0.556-0.397-0.938-0.619-1.219c-0.089-0.111-0.198-0.249-0.238-0.372c-0.984-2.61-1.896-4.775-3.924-6.949 c-0.203-0.194-0.377-0.47-0.464-0.766c0.035,0.01,0.071,0.019,0.107,0.026c0.385,0.097,0.785-0.049,1.026-0.36 c0.535-0.694,1.044-1.47,1.136-2.431c0.039-0.4,0.063-0.802,0.088-1.203c0.021-0.351,0.043-0.701,0.078-1.103 c0.008-0.206,0.027-0.415,0.046-0.623c0.054-0.609,0.114-1.294-0.049-1.994c0.735,0.358,1.513,0.664,2.389,0.794 c0.085,0.013,0.171,0.033,0.259,0.052c0.394,0.086,0.991,0.22,1.625-0.062c0.523-0.242,0.939-0.586,1.306-0.89 c0.142-0.118,0.283-0.235,0.438-0.35c0.966-0.73,1.15-1.802,1.299-2.662c0.022-0.128,0.044-0.254,0.067-0.374 c0.027-0.01,0.054-0.019,0.081-0.029l0.379-0.134c0.479-0.172,0.753-0.677,0.635-1.172c-0.053-0.222-0.114-0.444-0.176-0.667 c-0.133-0.477-0.26-0.933-0.275-1.352c0.027-0.014,0.061-0.03,0.1-0.049c0.25-0.123,0.628-0.308,0.982-0.746 c0.016-0.016,0.139-0.085,0.45-0.071C48.314,15.001,58.001,15,58.001,15C58.553,15,59,14.552,59,14v-2 C59,11.735,58.895,11.48,58.707,11.293z M47.735,13.001c-1.11-0.028-1.747,0.455-2.04,0.838c-0.053,0.065-0.105,0.096-0.291,0.187 c-0.26,0.127-0.653,0.32-0.992,0.766c-0.104,0.138-0.172,0.3-0.195,0.471c-0.108,0.807,0.059,1.553,0.241,2.226 c-0.036,0.013-0.072,0.026-0.108,0.04c-0.285,0.107-0.507,0.338-0.601,0.629c-0.12,0.372-0.185,0.743-0.246,1.102 c-0.123,0.715-0.215,1.165-0.527,1.401c-0.176,0.131-0.346,0.271-0.516,0.412c-0.299,0.248-0.581,0.482-0.833,0.601 c-0.066,0.013-0.258-0.033-0.389-0.062c-0.135-0.03-0.269-0.059-0.398-0.078c-0.97-0.144-1.867-0.63-2.818-1.144 c-0.423-0.229-0.845-0.457-1.275-0.658c-0.271-0.128-0.585-0.126-0.856,0.003c-0.271,0.129-0.469,0.374-0.54,0.665 c-0.08,0.329-0.17,0.654-0.259,0.98l-0.038,0.135c-0.115,0.422,0.057,0.871,0.426,1.107c0.085,0.054,0.174,0.107,0.264,0.16 c0.153,0.09,0.408,0.242,0.451,0.322c0.111,0.408,0.067,0.905,0.021,1.43c-0.021,0.242-0.043,0.484-0.049,0.671 c-0.033,0.369-0.057,0.739-0.079,1.11c-0.022,0.378-0.046,0.756-0.082,1.135c-0.027,0.278-0.153,0.561-0.35,0.868 c-0.036-0.01-0.071-0.02-0.107-0.029l-0.438-0.118c-0.469-0.123-0.954,0.104-1.159,0.541c-0.59,1.251-0.237,2.856,0.816,3.863 c1.742,1.869,2.54,3.77,3.455,6.19c0.13,0.426,0.371,0.728,0.563,0.971c0.079,0.1,0.199,0.25,0.232,0.396l0.098,0.349 c0.117,0.41,0.228,0.797,0.199,1.139c-0.024,0.38-0.046,0.798-0.068,1.229c-0.04,0.796-0.083,1.636-0.155,2.342 c-0.022,0.225-0.065,0.45-0.106,0.675c-0.112,0.604-0.239,1.29-0.079,2.021c0.102,0.503,0.173,1.027,0.023,1.422 c-0.391,0.963-0.397,1.963-0.402,2.846l-0.001,0.104c-0.002,0.057-0.054,0.215-0.087,0.319c-0.143,0.436-0.406,1.246,0.195,1.926 c0.156,0.19,0.285,0.388,0.413,0.582c0.255,0.388,0.545,0.827,0.997,1.219c0.035,0.03,0.072,0.059,0.111,0.084 c0.39,0.252,0.801,0.389,1.163,0.51c0.06,0.02,0.118,0.039,0.175,0.059c-0.214,0.014-0.424,0.022-0.63,0.026 c-1.004,0.015-1.825-0.105-2.839-0.428c-0.621-0.199-1.209-0.162-1.726-0.129c-0.204,0.013-0.375,0.017-0.532,0.021 c0.103-0.688,0.297-1.405,0.581-2.145c0.019-0.05,0.034-0.101,0.045-0.152c0.175-0.829,0.344-2.212,0.324-3.083 c-0.009-0.578-0.182-1.07-0.333-1.505c-0.072-0.205-0.146-0.411-0.207-0.688c-0.296-1.062-0.483-2.511-0.578-4.503 c-0.013-0.1,0.086-0.308,0.181-0.51c0.151-0.318,0.336-0.712,0.372-1.198c0.155-0.913-0.344-1.423-0.645-1.731 c-0.076-0.078-0.16-0.161-0.24-0.268c-0.184-0.241-0.466-0.388-0.769-0.396c-0.138-0.003-0.279-0.001-0.426,0.002 c-0.207,0.005-0.594,0.013-0.674-0.027c-0.019-0.034-0.038-0.067-0.06-0.099c-0.35-0.509-0.538-0.912-0.738-1.34 c-0.214-0.455-0.456-0.973-0.843-1.53c-0.404-0.734-1.117-0.87-1.544-0.95c-0.046-0.009-0.104-0.021-0.155-0.031 c-0.128-0.165-0.241-0.391-0.359-0.626c-0.056-0.11-0.111-0.222-0.17-0.33c-0.193-0.359-0.585-0.572-0.994-0.52 c-0.407,0.046-0.744,0.336-0.852,0.73c-0.142,0.519-0.288,0.827-0.485,1.025c-0.655,0.649-0.956,1.445-1.222,2.146 c-0.06,0.159-0.119,0.317-0.187,0.48c-0.232,0.579-0.484,1.271-0.576,1.96L25.172,41.4c-0.024,0.146-0.064,0.392-0.104,0.449 c-0.477,0.356-0.759,0.798-1.009,1.187c-0.162,0.253-0.302,0.472-0.479,0.632c-0.518,0.486-0.897,1.166-1.1,1.964 c-0.013,0.05-0.021,0.102-0.026,0.152c-0.023,0.258-0.011,0.516,0.007,0.774c0.015,0.217,0.028,0.422-0.007,0.558 c-0.127,0.497-0.372,0.988-0.631,1.508c-0.143,0.287-0.285,0.574-0.412,0.864c-0.13,0.297-0.233,0.604-0.336,0.911 c-0.104,0.311-0.201,0.604-0.313,0.842c-0.028,0.032-0.135,0.107-0.206,0.156c-0.192,0.134-0.433,0.301-0.64,0.565 c-0.028,0.035-0.053,0.071-0.076,0.11c-0.887,1.507-1.194,3.311-0.865,5.078c0.011,0.059,0.027,0.115,0.048,0.171 c0.09,0.237,0.152,0.441,0.19,0.624c-0.158,0.021-0.307,0.04-0.432,0.054h-1.375l-0.087-0.018c-0.101-0.021-0.199-0.04-0.292-0.062 c-0.062-0.454-0.019-0.96,0.129-1.469c0.345-1.211,0.655-2.43,0.954-3.613c0.23-0.661,0.037-1.242-0.092-1.627 c-0.041-0.122-0.104-0.308-0.099-0.369c0.003-0.043,0.004-0.087,0.001-0.13c-0.023-0.423,0.237-0.869,0.538-1.386 c0.086-0.146,0.17-0.292,0.239-0.42c0.312-0.545,0.382-1.115,0.438-1.573c0.032-0.269,0.063-0.521,0.13-0.698 c0.282-0.717,0.713-1.385,1.17-2.091c0.418-0.646,0.85-1.315,1.225-2.152c0.196-0.574,0.144-1.119,0.102-1.558 c-0.018-0.184-0.039-0.367-0.026-0.57c0.041-0.942,0.21-1.879,0.388-2.869l0.127-0.71c0.08-0.434,0.19-1.028-0.045-1.616 c-0.172-0.483-0.233-0.853-0.194-1.147c0.057-0.382-0.003-0.716-0.051-0.983c-0.021-0.111-0.05-0.278-0.045-0.317 c0.016-0.04,0.019-0.056,0.029-0.098c0.033-0.057,0.191-0.183,0.297-0.266l0.196-0.159c0.218-0.183,0.347-0.448,0.355-0.732 c0.029-0.898-0.145-1.743-0.313-2.56c-0.155-0.75-0.303-1.466-0.269-2.141c0.11-0.058,0.251-0.114,0.382-0.167 c0.101-0.041,0.2-0.081,0.298-0.124c0.398-0.177,0.637-0.59,0.59-1.022s-0.368-0.786-0.795-0.873 c-0.352-0.072-0.705-0.144-1.058-0.218c0.031-0.327,0.089-0.678,0.174-1.068c0.144-0.669,0.165-1.316,0.186-1.943 c0.01-0.309,0.02-0.606,0.046-0.911c0.045-0.002,0.089-0.003,0.133-0.005c0.381-0.016,0.775-0.032,1.269-0.149 c0.495-0.118,0.823-0.589,0.761-1.094c-0.159-1.309-0.281-2.581-0.004-3.792c0.277-1.473,1.103-2.864,2.121-3.607 c0.658-0.437,1.562-0.693,2.099-0.284c0.345,0.262,0.818,0.273,1.173,0.027l0.3-0.201c0.392-0.256,0.554-0.75,0.39-1.189 c-0.477-1.269-0.343-2.656,0.37-3.732C30.865,5.964,31.419,5.456,32.803,5h1.147c0.721,0.28,1.841,0.728,2.643,1.213 c0.024,0.09,0.048,0.18,0.072,0.27c0.216,0.8,0.42,1.561,0.291,2.226c-0.135,0.074-0.302,0.143-0.475,0.213 c-0.138,0.057-0.274,0.113-0.407,0.175c-0.391,0.181-0.621,0.592-0.573,1.019c0.047,0.414,0.111,0.825,0.177,1.235l0.036,0.229 c0.081,0.519,0.556,0.889,1.072,0.842c0.607-0.051,1.174-0.246,1.675-0.417c0.334-0.115,0.65-0.223,0.94-0.278 c0.173-0.033,0.329-0.11,0.458-0.219c0.421,0.264,0.938,0.532,1.579,0.491l8.636-0.003c0.124-0.005,0.225,0.031,0.316,0.104 c0.301,0.235,0.707,0.279,1.05,0.115c0.081-0.039,0.155-0.088,0.222-0.146c0.035,0.526,0.471,0.934,0.998,0.934L47.735,13.001z M52.719,13.005"/><path fill="#8d6c9f" d="M57 30h-8v-3h10c-.131-.793-.66-1.501-1.395-1.808-.493-.226-1.044-.19-1.57-.19L49 25c-1 0-2 1-2 2v3c.055.998 1 2 2 2h8v3H47c.134.637.47 1.237 1.018 1.593.48.346 1.083.424 1.657.407H57c1 0 2-1 2-2v-3C59 31 58.12 30.019 57 30zM6 27h9c0-1.105-.895-2-2-2H6c-1.105 0-2 .895-2 2v8c0 1.105.895 2 2 2h7c1.105 0 2-.895 2-2H6V27z"/><g><path fill="#8d6c9f" d="M40.687,18c-0.017,0-0.034,0-0.051-0.001c-0.298-0.015-0.574-0.163-0.752-0.402 c-0.055-0.074-0.118-0.147-0.182-0.22c-0.245-0.286-0.581-0.676-0.685-1.213c-0.062-0.321,0.038-0.653,0.267-0.887l0.096-0.095 c0.169-0.173,0.457-0.34,0.697-0.36c0.021-0.002,0.044-0.003,0.065-0.005c0.113-0.424,0.499-0.777,0.938-0.794 c0.288-0.011,0.579-0.018,0.871-0.023c0.502-0.003,0.987,0.41,1.017,0.948l0.03,0.618c0.02,0.376-0.185,0.721-0.495,0.909 c-0.31,0.36-0.634,0.714-0.958,1.067l-0.122,0.133C41.234,17.883,40.966,18,40.687,18z"/></g></svg>