<svg xmlns="http://www.w3.org/2000/svg"  viewBox="0 0 64 64" width="64px" height="64px"><path fill="#a2a2ea" d="M55,57H9c-1.105,0-2-0.895-2-2V9c0-1.105,0.895-2,2-2h46c1.105,0,2,0.895,2,2v46 C57,56.105,56.105,57,55,57z"/><path fill="#9393d8" d="M54,53H10c-1.657,0-3,1.343-3,3v0c0,0.552,0.448,1,1,1h48c0.552,0,1-0.448,1-1v0 C57,54.343,55.657,53,54,53z"/><path fill="#faefde" d="M49 22L41.25 22 41.839 18 23 18 23 22 15 21 17 32 15 47 23 44 23 51.541 35 49.541 35 43 49 46 47 31z"/><path fill="#b6b6ef" d="M54,12H10c-1.657,0-3-1.343-3-3V7c0-0.552,0.448-1,1-1h48c0.552,0,1,0.448,1,1v2 C57,10.657,55.657,12,54,12z"/><path fill="#8d6c9f" d="M55,6H9C7.346,6,6,7.346,6,9v46c0,1.654,1.346,3,3,3h46c1.654,0,3-1.346,3-3V9 C58,7.346,56.654,6,55,6z M56,55c0,0.551-0.449,1-1,1H9c-0.551,0-1-0.449-1-1V9c0-0.551,0.449-1,1-1h46c0.551,0,1,0.449,1,1V55z"/><path fill="#8d6c9f" d="M32 10c-.552 0-1 .448-1 1v2c0 .552.448 1 1 1 .552 0 1-.448 1-1v-2C33 10.448 32.552 10 32 10zM27 10c-.552 0-1 .448-1 1v2c0 .552.448 1 1 1s1-.448 1-1v-2C28 10.448 27.552 10 27 10zM42 10c-.552 0-1 .448-1 1v2c0 .552.448 1 1 1s1-.448 1-1v-2C43 10.448 42.552 10 42 10zM37 10c-.552 0-1 .448-1 1v2c0 .552.448 1 1 1s1-.448 1-1v-2C38 10.448 37.552 10 37 10zM52 10c-.552 0-1 .448-1 1v2c0 .552.448 1 1 1s1-.448 1-1v-2C53 10.448 52.552 10 52 10zM47 10c-.552 0-1 .448-1 1v2c0 .552.448 1 1 1s1-.448 1-1v-2C48 10.448 47.552 10 47 10zM12 10c-.552 0-1 .448-1 1v2c0 .552.448 1 1 1s1-.448 1-1v-2C13 10.448 12.552 10 12 10zM17 10c-.552 0-1 .448-1 1v2c0 .552.448 1 1 1 .552 0 1-.448 1-1v-2C18 10.448 17.552 10 17 10zM22 10c-.552 0-1 .448-1 1v2c0 .552.448 1 1 1s1-.448 1-1v-2C23 10.448 22.552 10 22 10z"/><path fill="#fff7f0" d="M15.977 39.673L15.285 44.865 40.999 19.151 41.785 18.362 41.839 18 41 18 36.15 18 16.208 37.942zM17 32L16.669 34.481 33.15 18 30.15 18 16.869 31.281zM48.194 39.956L47 31 49 22 42.54 22 19.064 45.476 23 44 23 44.786 23 47.786 23 50 23 51.541 35 49.541 35 43 43.359 44.791z"/><path fill="#fff" d="M20.5 23L21.74 25.26 24 26.5 21.74 27.74 20.5 30 19.26 27.74 17 26.5 19.26 25.26zM43.42 27L44.27 28.56 45.83 29.42 44.27 30.27 43.42 31.84 42.56 30.27 41 29.42 42.56 28.56zM21.8 39L22.38 40.06 23.44 40.65 22.38 41.23 21.8 42.3 21.21 41.23 20.15 40.65 21.21 40.06z"/><g><path fill="#a2a2ea" d="M27 22L37.206 22 36.618 26 31 26 31 32 36 32 36 36 31 36 31 46.153 27 46.819z"/><path fill="#8d6c9f" d="M36.049,23l-0.294,2H32h-2v2v4v2h2h3v2h-3h-2v2v8.306l-2,0.333V23H36.049 M38.365,21h0.005H38.365z M38.365,21H26v27l6-1V37h5v-6h-5v-4h5.481L38.365,21L38.365,21z"/></g><path fill="none" stroke="#8d6c9f" stroke-linecap="round" stroke-linejoin="round" stroke-miterlimit="10" stroke-width="2" d="M47 31L49 22 41.25 22 41.839 18 23 18 23 22 15 21 17 32 15 47 23 44 23 51.541 35 49.541 35 43 49 46 47.667 36"/></svg>