<svg xmlns="http://www.w3.org/2000/svg"  viewBox="0 0 64 64" width="64px" height="64px"><polygon fill="#ace3ff" points="17,12 17,5 12,5 5,5 5,12 5,16 5,23 5,35 12,35 12,23 16,23 16,16 12,16 12,12"/><polygon fill="#ace3ff" points="42,28 42,5 35,5 35,28 35,35 42,35 47,35 47,28"/><polygon fill="#ace3ff" points="54,28 54,5 47,5 47,28 47,35 54,35 59,35 59,28"/><polygon fill="#ace3ff" points="21.25,5 29.75,5 34,35 27.625,35 26.563,29 24.438,29 23.375,35 17,35"/><path fill="#85cbf8" d="M55.5,31h-5c-1.657,0-3,1.343-3,3v1h11v-1C58.5,32.343,57.157,31,55.5,31z"/><path fill="#85cbf8" d="M43.5,31h-5c-1.657,0-3,1.343-3,3v1h11v-1C46.5,32.343,45.157,31,43.5,31z"/><path fill="#85cbf8" d="M30.75,31h-0.5c-1.519,0-2.75,1.231-2.75,2.75V35h6v-1.25C33.5,32.231,32.269,31,30.75,31z"/><path fill="#85cbf8" d="M20.75,31h-0.5c-1.519,0-2.75,1.231-2.75,2.75V35h6v-1.25C23.5,32.231,22.269,31,20.75,31z"/><path fill="#85cbf8" d="M8.75,31h-0.5c-1.519,0-2.75,1.231-2.75,2.75V35h6v-1.25C11.5,32.231,10.269,31,8.75,31z"/><circle cx="25.5" cy="19" r="6" fill="#fff8ee"/><path fill="#8d6c9f" d="M12,36H5c-0.553,0-1-0.448-1-1V5c0-0.552,0.447-1,1-1h12c0.553,0,1,0.448,1,1v7c0,0.552-0.447,1-1,1	h-4v2h3c0.553,0,1,0.448,1,1v7c0,0.552-0.447,1-1,1h-3v11C13,35.552,12.553,36,12,36z M6,34h5V23c0-0.552,0.447-1,1-1h3v-5h-3	c-0.553,0-1-0.448-1-1v-4c0-0.552,0.447-1,1-1h4V6H6V34z"/><path fill="#8d6c9f" d="M47,36H35c-0.553,0-1-0.448-1-1V5c0-0.552,0.447-1,1-1h7c0.553,0,1,0.448,1,1v22h4	c0.553,0,1,0.448,1,1v7C48,35.552,47.553,36,47,36z M36,34h10v-5h-4c-0.553,0-1-0.448-1-1V6h-5V34z"/><path fill="#8d6c9f" d="M59,36H47c-0.553,0-1-0.448-1-1V5c0-0.552,0.447-1,1-1h7c0.553,0,1,0.448,1,1v22h4	c0.553,0,1,0.448,1,1v7C60,35.552,59.553,36,59,36z M48,34h10v-5h-4c-0.553,0-1-0.448-1-1V6h-5V34z"/><path fill="#8d6c9f" d="M34,36h-6.375c-0.485,0-0.9-0.348-0.984-0.826L25.724,30h-0.447l-0.917,5.174	C24.275,35.652,23.86,36,23.375,36H17c-0.29,0-0.565-0.125-0.755-0.344c-0.19-0.219-0.275-0.509-0.235-0.796l4.25-30	C20.33,4.367,20.752,4,21.25,4h8.5c0.498,0,0.92,0.367,0.99,0.86l4.25,30c0.04,0.287-0.045,0.577-0.235,0.796	C34.565,35.875,34.29,36,34,36z M28.464,34h4.385L28.882,6h-6.764l-3.967,28h4.385l0.917-5.174C23.537,28.348,23.952,28,24.438,28	h2.125c0.485,0,0.9,0.348,0.984,0.826L28.464,34z"/><path fill="#8d6c9f" d="M25.5,26c-3.859,0-7-3.14-7-7s3.141-7,7-7s7,3.14,7,7S29.359,26,25.5,26z M25.5,14	c-2.757,0-5,2.243-5,5s2.243,5,5,5s5-2.243,5-5S28.257,14,25.5,14z"/><ellipse cx="23.5" cy="20.5" fill="#8d6c9f" rx="1" ry="1.5"/><ellipse cx="28" cy="20" fill="#8d6c9f" rx="1" ry="1.5"/><path fill="#8d6c9f" d="M12.492,53.017c-2.613,0-6.5-2.01-6.5-7.547c0-2.74,1.343-5.164,3.593-6.483	c2.299-1.347,5.084-1.298,7.64,0.135c0.724,0.404,0.981,1.318,0.576,2.042c-0.403,0.723-1.317,0.981-2.041,0.576	c-1.605-0.898-3.303-0.958-4.657-0.164c-1.321,0.774-2.11,2.23-2.11,3.895c0,3.589,2.2,4.547,3.5,4.547	c1.354,0,2.11-0.165,2.5-0.296v-2.75h-0.5c-0.828,0-1.5-0.671-1.5-1.5s0.672-1.5,1.5-1.5h2c0.828,0,1.5,0.671,1.5,1.5v5.039	c0,0.231-0.054,0.459-0.156,0.667C17.495,51.863,16.347,53.017,12.492,53.017z"/><path fill="#8d6c9f" d="M22,48c-0.828,0-1.5-0.671-1.5-1.5v-6.983c0-0.829,0.672-1.5,1.5-1.5s1.5,0.671,1.5,1.5V46.5	C23.5,47.329,22.828,48,22,48z"/><path fill="#8d6c9f" d="M31,48c-0.828,0-1.5-0.671-1.5-1.5v-6.983c0-0.829,0.672-1.5,1.5-1.5s1.5,0.671,1.5,1.5V46.5	C32.5,47.329,31.828,48,31,48z"/><path fill="#8d6c9f" d="M26.5,53.017c-3.309,0-6-2.691-6-6c0-0.829,0.672-1.5,1.5-1.5s1.5,0.671,1.5,1.5c0,1.654,1.346,3,3,3	s3-1.346,3-3c0-0.829,0.672-1.5,1.5-1.5s1.5,0.671,1.5,1.5C32.5,50.325,29.809,53.017,26.5,53.017z"/><path fill="#8d6c9f" d="M40,53c-0.828,0-1.5-0.671-1.5-1.5v-6.474l-3.671-4.589c-0.518-0.647-0.413-1.591,0.233-2.108	c0.65-0.518,1.593-0.412,2.108,0.234l4,5c0.213,0.266,0.329,0.596,0.329,0.937v7C41.5,52.329,40.828,53,40,53z"/><path fill="#8d6c9f" d="M39.999,46c-0.328,0-0.659-0.107-0.937-0.329c-0.646-0.518-0.751-1.461-0.233-2.108l4-5	c0.517-0.646,1.459-0.752,2.108-0.234c0.646,0.518,0.751,1.461,0.233,2.108l-4,5C40.875,45.807,40.439,46,39.999,46z"/><path fill="#8d6c9f" d="M52.62,52.993c-2.063,0-4.188-0.801-4.798-1.111c-0.739-0.375-1.035-1.277-0.66-2.016	s1.28-1.034,2.016-0.66c0.895,0.453,3.607,1.158,4.545,0.583C53.813,49.734,54,49.62,54,49.023c0-0.828-1.124-1.417-2.84-2.223	c-1.854-0.87-4.16-1.953-4.16-4.368c0-2.106,0.96-3.178,1.766-3.706c2.519-1.65,6.55-0.037,7.332,0.302	c0.76,0.331,1.108,1.214,0.778,1.974s-1.214,1.108-1.974,0.778c-1.296-0.559-3.623-1.119-4.492-0.545	c-0.102,0.066-0.41,0.27-0.41,1.197c0,0.509,1.407,1.17,2.436,1.652C54.361,44.989,57,46.228,57,49.023	c0,1.879-0.929,2.844-1.707,3.323C54.521,52.82,53.577,52.993,52.62,52.993z"/><path fill="#8d6c9f" d="M54,60c-0.553,0-1-0.448-1-1v-2c0-0.552,0.447-1,1-1s1,0.448,1,1v2C55,59.552,54.553,60,54,60z"/><path fill="#8d6c9f" d="M49,60c-0.553,0-1-0.448-1-1v-2c0-0.552,0.447-1,1-1s1,0.448,1,1v2C50,59.552,49.553,60,49,60z"/><path fill="#8d6c9f" d="M44,60c-0.553,0-1-0.448-1-1v-2c0-0.552,0.447-1,1-1s1,0.448,1,1v2C45,59.552,44.553,60,44,60z"/><path fill="#8d6c9f" d="M39,60c-0.553,0-1-0.448-1-1v-2c0-0.552,0.447-1,1-1s1,0.448,1,1v2C40,59.552,39.553,60,39,60z"/><path fill="#8d6c9f" d="M34,60c-0.553,0-1-0.448-1-1v-2c0-0.552,0.447-1,1-1s1,0.448,1,1v2C35,59.552,34.553,60,34,60z"/><path fill="#8d6c9f" d="M29,60c-0.553,0-1-0.448-1-1v-2c0-0.552,0.447-1,1-1s1,0.448,1,1v2C30,59.552,29.553,60,29,60z"/><path fill="#8d6c9f" d="M24,60c-0.553,0-1-0.448-1-1v-2c0-0.552,0.447-1,1-1s1,0.448,1,1v2C25,59.552,24.553,60,24,60z"/><path fill="#8d6c9f" d="M19,60c-0.553,0-1-0.448-1-1v-2c0-0.552,0.447-1,1-1s1,0.448,1,1v2C20,59.552,19.553,60,19,60z"/><path fill="#8d6c9f" d="M14,60c-0.553,0-1-0.448-1-1v-2c0-0.552,0.447-1,1-1s1,0.448,1,1v2C15,59.552,14.553,60,14,60z"/><path fill="#8d6c9f" d="M9,60c-0.553,0-1-0.448-1-1v-2c0-0.552,0.447-1,1-1s1,0.448,1,1v2C10,59.552,9.553,60,9,60z"/></svg>