<svg xmlns="http://www.w3.org/2000/svg"  viewBox="0 0 64 64" width="64px" height="64px"><path fill="#f9dd8f" d="M53.228 47L63 16 57.772 16 48 47z"/><path fill="#f9dd8f" d="M51.532 35.796L44.333 16 39.013 16 49.061 43.633z"/><path fill="#72caaf" d="M42.625,26C40,26,36,26.867,36,32.067S39,39,39,39s-0.125-2.75,1.225-4.333 C41.796,32.825,44,31,43,27L42.625,26z"/><path fill="#97e0bb" d="M42.625,26C40,26,36,26.867,36,32.067S39,39,39,39s-0.672-1.709-0.788-2.259 C38.053,35.989,38,35.375,38,34.625C38,29.804,42,27,42,27l0.786-0.571L42.625,26z"/><path fill="#cda1a7" d="M51 43A1 1 0 1 0 51 45A1 1 0 1 0 51 43Z"/><path fill="#8d6c9f" d="M48.122,43.976L38.073,16.342c-0.112-0.307-0.066-0.648,0.12-0.915 C38.381,15.159,38.687,15,39.013,15h5.32c0.421,0,0.796,0.263,0.939,0.658l7.199,19.796l-1.879,0.684L43.633,17H40.44l9.561,26.292 L48.122,43.976z"/><path fill="#8d6c9f" d="M53.228 48H48c-.318 0-.618-.151-.807-.408-.188-.258-.243-.589-.147-.893l9.772-31C56.95 15.283 57.336 15 57.772 15H63c.318 0 .618.151.807.408.188.258.243.589.147.893l-9.772 31C54.05 47.717 53.664 48 53.228 48zM49.363 46h3.131l9.143-29h-3.131L49.363 46zM39 40c-.173 0-.346-.045-.5-.134-.144-.083-3.5-2.088-3.5-7.8C35 27.575 37.779 25 42.625 25c.417 0 .79.259.937.648l.375 1c.013.036.024.072.033.109 1.017 4.064-.906 6.22-2.45 7.952-.182.203-.361.404-.533.605-1.064 1.248-.988 3.615-.987 3.64.017.364-.167.71-.479.899C39.36 39.951 39.18 40 39 40zM41.939 27.021C38.661 27.222 37 28.917 37 32.066c0 2.246.601 3.748 1.215 4.696.195-.914.563-1.939 1.25-2.745.181-.212.37-.424.562-.639 1.412-1.584 2.747-3.081 2.017-6.083L41.939 27.021zM17 52c-.552 0-1 .447-1 1v2c0 .553.448 1 1 1s1-.447 1-1v-2C18 52.447 17.552 52 17 52zM22 52c-.552 0-1 .447-1 1v2c0 .553.448 1 1 1s1-.447 1-1v-2C23 52.447 22.552 52 22 52zM27 52c-.552 0-1 .447-1 1v2c0 .553.448 1 1 1s1-.447 1-1v-2C28 52.447 27.552 52 27 52zM32 52c-.552 0-1 .447-1 1v2c0 .553.448 1 1 1 .552 0 1-.447 1-1v-2C33 52.447 32.552 52 32 52zM37 52c-.552 0-1 .447-1 1v2c0 .553.448 1 1 1s1-.447 1-1v-2C38 52.447 37.552 52 37 52zM42 52c-.552 0-1 .447-1 1v2c0 .553.448 1 1 1s1-.447 1-1v-2C43 52.447 42.552 52 42 52zM47 52c-.552 0-1 .447-1 1v2c0 .553.448 1 1 1s1-.447 1-1v-2C48 52.447 47.552 52 47 52zM52 52c-.552 0-1 .447-1 1v2c0 .553.448 1 1 1s1-.447 1-1v-2C53 52.447 52.552 52 52 52zM57 52c-.552 0-1 .447-1 1v2c0 .553.448 1 1 1s1-.447 1-1v-2C58 52.447 57.552 52 57 52z"/><path fill="#72caaf" d="M14 23.125c0 0-.358-5.125-5.367-5.125C4.817 18 1 22 1 22s2.862 0 4.771 2 3.817 2 4.771 2C13.553 26 14 23.125 14 23.125M10 9.375c0 0 .25.125 2 3.768 1.93 4.018 6 3.732 6 3.732S19 16.5 19 14c0-1.75-1-2.875-1.625-3.375C15.786 9.354 14.25 9 12.625 9 11.375 9 10 9.375 10 9.375z"/><path fill="#97e0bb" d="M19 14c0-1.75-1-2.875-1.625-3.375C15.786 9.354 14.25 9 12.625 9 11.375 9 10 9.375 10 9.375l1.625.75c0 0 4.25 1.25 6 5.75l.375 1c0 0 .043-.026.11-.066C18.365 16.634 19 16.003 19 14zM3.25 21.375C3.25 21.375 4 21 7 21c4 0 6 2.125 6 2.125l.915.343C13.977 23.261 14 23.125 14 23.125S13.642 18 8.633 18C4.817 18 1 22 1 22s.181 0 .482.032L3.25 21.375z"/><path fill="#f9dd8f" d="M22,21h10v-5H22c-4.418,0-8,3.582-8,8v2c0,4.418,3.582,8,8,8h1.004C25.211,34,27,35.789,27,37.996 v0.001c0,2.21-1.792,4.001-4.001,4l-4.668-0.002c-0.864,0-1.705-0.28-2.396-0.798L13,39v6l1.23,0.88 c1.018,0.728,2.239,1.12,3.491,1.12H23c4.971,0,9-4.029,9-9v-2c0-3.866-3.134-7-7-7h-3c-1.657,0-3-1.343-3-3v-2 C19,22.343,20.343,21,22,21z"/><path fill="#8d6c9f" d="M23,48h-5.279c-1.47,0-2.878-0.452-4.072-1.307l-1.23-0.88C12.156,45.626,12,45.323,12,45v-6 c0-0.379,0.214-0.725,0.553-0.895c0.338-0.168,0.742-0.134,1.047,0.094l2.935,2.197C17.051,40.782,17.688,41,18.332,41 c0,0,4.669,0,4.67,0c0.801,0,1.554-0.315,2.12-0.882C25.688,39.552,26,38.799,26,37.997C26,36.345,24.656,35,23.004,35H22 c-4.963,0-9-4.037-9-9v-2c0-4.963,4.037-9,9-9h10c0.553,0,1,0.447,1,1v5c0,0.553-0.447,1-1,1H22c-1.103,0-2,0.897-2,2v2 c0,1.103,0.897,2,2,2h3c4.411,0,8,3.589,8,8v2C33,43.514,28.514,48,23,48z M14,44.485l0.813,0.581 C15.665,45.678,16.671,46,17.721,46H23c4.411,0,8-3.589,8-8v-2c0-3.309-2.691-6-6-6h-3c-2.206,0-4-1.794-4-4v-2c0-2.206,1.794-4,4-4 h9v-3h-9c-3.859,0-7,3.141-7,7v2c0,3.859,3.141,7,7,7h1.004C25.759,33,28,35.241,28,37.996c0,1.336-0.521,2.592-1.465,3.537 C25.591,42.477,24.336,43,23.001,43c-0.001,0-4.67,0-4.67,0c-1.072,0-2.137-0.359-2.996-1.002l-1.335-1 C14,40.998,14,44.485,14,44.485z"/><path fill="#8d6c9f" d="M17.818 17.88c-1.018 0-4.788-.282-6.72-4.305-1.31-2.725-1.732-3.383-1.822-3.51-.197-.207-.3-.493-.271-.789C9.046 8.864 9.337 8.52 9.737 8.41 9.798 8.394 11.257 8 12.625 8 14.748 8 16.406 8.568 18 9.844c.602.481 2 1.85 2 4.156 0 3.039-1.373 3.708-1.648 3.812-.091.033-.186.055-.281.061C18.047 17.874 17.958 17.88 17.818 17.88zM11.589 10.079c.32.602.742 1.443 1.313 2.631 1.336 2.781 3.855 3.132 4.73 3.167C17.768 15.671 18 15.151 18 14c0-1.439-.874-2.294-1.25-2.594C15.519 10.421 14.285 10 12.625 10 12.289 10 11.929 10.033 11.589 10.079zM10.541 27c-.984 0-3.29 0-5.494-2.31C3.47 23.037 1.021 23 .996 23c-.398-.003-.76-.243-.915-.61s-.08-.791.195-1.08C.444 21.134 4.437 17 8.633 17c4.7 0 6.219 3.961 6.365 6.056.005.074.002.149-.01.223C14.788 24.565 13.601 27 10.541 27zM3.221 21.367c1.038.311 2.264.884 3.273 1.942C8.106 25 9.631 25 10.541 25c1.873 0 2.353-1.504 2.45-1.924C12.902 22.301 12.31 19 8.633 19 6.637 19 4.568 20.309 3.221 21.367z"/></svg>