<svg xmlns="http://www.w3.org/2000/svg"  viewBox="0 0 64 64" width="64px" height="64px"><polygon fill="#efc88e" points="55,33 57,37 57,50 47,54.35 47,6 57,6 57,15 55,19"/><polygon fill="#efc88e" points="43,6 43,56.09 34,60 34,6"/><polygon fill="#efc88e" points="17,6 17,54.35 7.97,50.42 7,50 7,37 9,33 9,19 7,15 7,6"/><polygon fill="#efc88e" points="30,6 30,60 24.42,57.58 21,56.09 21,6"/><polygon fill="#f9e3ae" points="34,6 34,11 39,6"/><polygon fill="#f9e3ae" points="21,21 21,24 30,15 30,12"/><polygon fill="#f9e3ae" points="9,33 7,37 7,38 17,28 17,25"/><polygon fill="#f9e3ae" points="7,41 7,47 17,37 17,31"/><polygon fill="#f9e3ae" points="21,27 21,33 30,24 30,18"/><polygon fill="#f9e3ae" points="42,6 34,14 34,20 43,11 43,6"/><polygon fill="#f9e3ae" points="34,48 43,39 43,15.4 34,24.4"/><polygon fill="#f9e3ae" points="30,28.39 21,37.39 21,56.09 24.42,57.58 30,52"/><polygon fill="#f9e3ae" points="52.4,6 47,11.4 47,35 55,27 55,19 57,15 57,6"/><polygon fill="#f9e3ae" points="7.97,50.42 17,54.35 17,41.39"/><path fill="#fff8f8" d="M54,12.5l-0.973,0.527L52.5,14l-0.527-0.973L51,12.5l0.973-0.527L52.5,11l0.527,0.973L54,12.5z"/><polygon fill="#fff8f8" points="25.508,31.031 24.653,32.595 23.089,33.45 24.653,34.305 25.508,35.869 26.363,34.305 27.926,33.45 26.363,32.595"/><polygon fill="#fff8f8" points="38.501,42 37.616,43.617 36,44.5 37.616,45.384 38.501,47 39.384,45.384 41,44.5 39.384,43.617"/><polygon fill="#fff8f8" points="25.5,9 24.97,9.97 24,10.5 24.97,11.031 25.5,12 26.03,11.031 27,10.5 26.03,9.97"/><polygon fill="#fff8f8" points="12.5,15 11.97,15.97 11,16.5 11.97,17.031 12.5,18 13.03,17.031 14,16.5 13.03,15.97"/><g><path fill="#8d6c9f" d="M53,48h-2c-0.553,0-1-0.448-1-1s0.447-1,1-1h2c0.553,0,1,0.448,1,1S53.553,48,53,48z"/><path fill="#8d6c9f" d="M53,38h-2c-0.553,0-1-0.448-1-1s0.447-1,1-1h2c0.553,0,1,0.448,1,1S53.553,38,53,38z"/><path fill="#8d6c9f" d="M53,43h-2c-0.553,0-1-0.448-1-1s0.447-1,1-1h2c0.553,0,1,0.448,1,1S53.553,43,53,43z"/><path fill="#8d6c9f" d="M13,48h-2c-0.553,0-1-0.448-1-1s0.447-1,1-1h2c0.553,0,1,0.448,1,1S13.553,48,13,48z"/><path fill="#8d6c9f" d="M13,38h-2c-0.553,0-1-0.448-1-1s0.447-1,1-1h2c0.553,0,1,0.448,1,1S13.553,38,13,38z"/><path fill="#8d6c9f" d="M13,43h-2c-0.553,0-1-0.448-1-1s0.447-1,1-1h2c0.553,0,1,0.448,1,1S13.553,43,13,43z"/><path fill="#8d6c9f" d="M47,55.348c-0.192,0-0.383-0.055-0.548-0.164C46.17,54.999,46,54.685,46,54.348V6 c0-0.552,0.447-1,1-1h10c0.553,0,1,0.448,1,1v9c0,0.155-0.036,0.309-0.105,0.447L56,19.236v13.528l1.895,3.789 C57.964,36.691,58,36.845,58,37v13c0,0.398-0.236,0.758-0.602,0.917l-10,4.348C47.271,55.32,47.136,55.348,47,55.348z M48,7v45.822 l8-3.478V37.236l-1.895-3.789C54.036,33.309,54,33.155,54,33V19c0-0.155,0.036-0.309,0.105-0.447L56,14.764V7H48z"/><path fill="#8d6c9f" d="M34,61c-0.192,0-0.383-0.055-0.548-0.164C33.17,60.651,33,60.337,33,60V6c0-0.552,0.447-1,1-1h9 c0.553,0,1,0.448,1,1v50.087c0,0.398-0.236,0.758-0.602,0.917l-9,3.913C34.271,60.973,34.136,61,34,61z M35,7v51.475l7-3.043V7H35z"/><path fill="#8d6c9f" d="M17,55.348c-0.136,0-0.271-0.027-0.398-0.083l-10-4.348C6.236,50.758,6,50.398,6,50V37 c0-0.155,0.036-0.309,0.105-0.447L8,32.764V19.236l-1.895-3.789C6.036,15.309,6,15.155,6,15V6c0-0.552,0.447-1,1-1h10 c0.553,0,1,0.448,1,1v48.348c0,0.337-0.17,0.651-0.452,0.836C17.383,55.292,17.192,55.348,17,55.348z M8,49.344l8,3.478V7H8v7.764 l1.895,3.789C9.964,18.691,10,18.845,10,19v14c0,0.155-0.036,0.309-0.105,0.447L8,37.236V49.344z"/><path fill="#8d6c9f" d="M30,61c-0.136,0-0.271-0.027-0.398-0.083l-9-3.913C20.236,56.845,20,56.485,20,56.087V6 c0-0.552,0.447-1,1-1h9c0.553,0,1,0.448,1,1v54c0,0.337-0.17,0.651-0.452,0.836C30.383,60.945,30.192,61,30,61z M22,55.431l7,3.043 V7h-7V55.431z"/></g></svg>