<svg xmlns="http://www.w3.org/2000/svg"  viewBox="0 0 64 64" width="64px" height="64px"><path fill="#faefde" d="M32.079,55.856c-0.141,0-0.282-0.03-0.414-0.09l-8.377-3.808c-1.092-0.496-1.913-1.44-2.252-2.591 l-3.312-11.241c-0.027-0.092-0.041-0.187-0.041-0.282V24.224c0-2.206,1.794-4,4-4h20.789c2.206,0,4,1.794,4,4v13.621 c0,0.096-0.014,0.19-0.041,0.282l-3.311,11.24c-0.339,1.151-1.16,2.096-2.252,2.592l-8.377,3.808 C32.361,55.826,32.22,55.856,32.079,55.856z"/><path fill="#8d6c9f" d="M42.473,21.224c1.657,0,3,1.343,3,3v13.621l-3.311,11.24c-0.257,0.871-0.88,1.588-1.707,1.964 l-8.377,3.808l-8.377-3.808c-0.827-0.376-1.45-1.093-1.706-1.964l-3.311-11.24V24.224c0-1.657,1.343-3,3-3h10.394H42.473 M42.473,19.224H32.079H21.684c-2.757,0-5,2.243-5,5v13.621c0,0.191,0.027,0.382,0.082,0.565l3.311,11.24 c0.421,1.43,1.441,2.603,2.797,3.22l8.377,3.808c0.263,0.12,0.545,0.179,0.828,0.179c0.282,0,0.565-0.06,0.828-0.179l8.377-3.808 c1.357-0.617,2.376-1.79,2.798-3.22l3.311-11.24c0.054-0.184,0.081-0.374,0.081-0.565V24.224 C47.473,21.467,45.23,19.224,42.473,19.224L42.473,19.224z"/><path fill="#7bbeeb" d="M27.386,40.763v1.33c0,0.141-0.016,0.266-0.047,0.407c-0.172,1.079-1.111,1.893-2.237,1.924h-0.063 c-1.048,0-1.955-0.688-2.237-1.721l-0.188-0.688l-0.141-0.501c-0.328-1.158,0.282-2.362,1.392-2.8l0.329-0.125 C25.727,37.979,27.386,39.121,27.386,40.763z"/><path fill="#8d6c9f" d="M25.102,45.424h-0.063c-1.514,0-2.8-0.987-3.202-2.457l-0.326-1.182 c-0.468-1.648,0.386-3.369,1.987-4.001l0.34-0.13c0.382-0.152,0.795-0.232,1.215-0.232c1.837,0,3.332,1.499,3.332,3.342v1.329 c0,0.207-0.022,0.405-0.07,0.623c-0.238,1.5-1.583,2.663-3.186,2.708C25.12,45.424,25.111,45.424,25.102,45.424z M25.054,39.422 c-0.166,0-0.33,0.032-0.49,0.096l-0.343,0.131c-0.629,0.249-0.972,0.936-0.786,1.592l0.332,1.2 c0.161,0.588,0.672,0.983,1.272,0.983l0.063,1l-0.028-1c0.643-0.018,1.18-0.473,1.278-1.082c0.03-0.146,0.034-0.197,0.034-0.249 v-1.329C26.386,39.935,25.694,39.422,25.054,39.422z"/><path fill="#7bbeeb" d="M41.683,41.514l-0.141,0.501l-0.188,0.688c-0.282,1.032-1.189,1.721-2.237,1.721h-0.063 c-1.126-0.031-2.065-0.845-2.237-1.924c-0.031-0.141-0.047-0.266-0.047-0.407v-1.33c0-1.643,1.658-2.785,3.191-2.174l0.329,0.125 C41.402,39.152,42.012,40.356,41.683,41.514z"/><path fill="#8d6c9f" d="M39.118,45.424h-0.063c-1.631-0.045-2.976-1.208-3.225-2.766c-0.037-0.16-0.06-0.358-0.06-0.565 v-1.329c0-1.843,1.495-3.342,3.332-3.342c0.42,0,0.833,0.08,1.229,0.238l0.314,0.119c1.612,0.637,2.466,2.357,1.999,4.007 l-0.326,1.18C41.918,44.437,40.632,45.424,39.118,45.424z M39.103,39.422c-0.64,0-1.332,0.513-1.332,1.342v1.329 c0,0.052,0.004,0.104,0.023,0.191c0.108,0.667,0.646,1.122,1.289,1.14l0.035,1v-1c0.6,0,1.111-0.396,1.272-0.984l0.331-1.197 c0.187-0.658-0.156-1.345-0.797-1.599l-0.317-0.12C39.433,39.454,39.269,39.422,39.103,39.422z"/><path fill="#fbd" d="M28.95,46.035v1.668c0,1.527,1.238,2.764,2.764,2.764h0.729c1.527,0,2.764-1.238,2.764-2.764 v-1.668H28.95z"/><path fill="#8d6c9f" d="M32.443,51.467h-0.729c-2.076,0-3.764-1.688-3.764-3.764v-1.668c0-0.553,0.448-1,1-1h6.257 c0.552,0,1,0.447,1,1v1.668C36.207,49.778,34.519,51.467,32.443,51.467z M29.95,47.035v0.668c0,0.973,0.792,1.764,1.764,1.764 h0.729c0.973,0,1.764-0.791,1.764-1.764v-0.668H29.95z"/><path fill="#e8eaf6" d="M62,31.808l-0.305,0.136c-3.222,1.432-7.008,0.368-9.012-2.533l-4.774-6.634 c-0.046-0.065-0.104-0.118-0.159-0.173v-0.025c-0.186-0.235-0.369-0.47-0.567-0.702c-0.066-0.077-0.135-0.147-0.201-0.222 c-3.224-4.633-8.728-7.689-14.982-7.689c-6.637,0-12.42,3.448-15.538,8.564c-0.096,0.076-0.198,0.144-0.271,0.246l-4.774,6.634 c-2.004,2.901-5.789,3.965-9.011,2.533L2.1,31.808l0.474,0.522c1.826,2.008,4.21,3.027,6.613,3.162l-1.92,9.46 c-2.133,10.507,8.904,18.769,18.384,13.764l0,0h0c-3.074-0.064-5.78-1.346-7.74-3.334c1.921,1,4.294,1.16,6.514,0.06l2.412-1.195 c-4.724-1.074-7.647-5.817-6.482-10.52l3.353-13.532l0.845-2.818c0.992,5.738,5.764,10.225,11.748,10.964 c-1.638-2.714-2.709-6.072-2.978-9.749c0.652,1.071,1.415,2.138,2.296,3.168c1.963,2.296,4.183,4.065,6.348,5.199l1.677,6.767 c1.165,4.703-1.757,9.446-6.482,10.52l2.412,1.195c2.22,1.1,4.593,0.94,6.514-0.06c-1.96,1.988-4.666,3.27-7.74,3.334h0l0,0 c9.481,5.005,20.517-3.258,18.384-13.764l-1.922-9.468c2.437-0.106,4.862-1.117,6.715-3.155L62,31.808z"/><path fill="#8d6c9f" d="M23.744,6.979c-0.491,0-0.919-0.361-0.989-0.861l-0.276-1.98 c-0.077-0.548,0.305-1.053,0.852-1.129c0.542-0.083,1.052,0.305,1.128,0.852l0.276,1.98c0.077,0.548-0.305,1.053-0.852,1.129 C23.837,6.976,23.791,6.979,23.744,6.979z"/><path fill="#8d6c9f" d="M18.525,8.131c-0.427,0-0.823-0.276-0.955-0.706l-0.588-1.911 c-0.163-0.527,0.134-1.087,0.662-1.25c0.522-0.164,1.087,0.134,1.25,0.662l0.588,1.911c0.163,0.527-0.134,1.087-0.662,1.25 C18.722,8.117,18.623,8.131,18.525,8.131z"/><path fill="#8d6c9f" d="M13.572,10.12c-0.367,0-0.719-0.202-0.895-0.552L11.78,7.78c-0.248-0.493-0.048-1.095,0.446-1.342 c0.492-0.25,1.094-0.048,1.342,0.445l0.897,1.788c0.248,0.493,0.048,1.095-0.446,1.342C13.875,10.086,13.722,10.12,13.572,10.12z"/><path fill="#8d6c9f" d="M9.005,12.897c-0.311,0-0.616-0.144-0.812-0.415l-1.17-1.621C6.699,10.414,6.8,9.789,7.248,9.466 c0.45-0.323,1.074-0.223,1.396,0.226l1.17,1.621c0.324,0.447,0.223,1.072-0.225,1.396C9.412,12.836,9.208,12.897,9.005,12.897z"/><path fill="#8d6c9f" d="M40.256,6.979c-0.046,0-0.093-0.003-0.14-0.01c-0.547-0.076-0.929-0.581-0.852-1.129l0.276-1.98 c0.076-0.547,0.582-0.935,1.128-0.852c0.547,0.076,0.929,0.581,0.852,1.129l-0.276,1.98C41.175,6.617,40.747,6.979,40.256,6.979z"/><path fill="#8d6c9f" d="M45.475,8.131c-0.098,0-0.197-0.014-0.294-0.044c-0.528-0.163-0.824-0.723-0.662-1.25l0.588-1.911 c0.162-0.528,0.724-0.826,1.25-0.662c0.528,0.163,0.824,0.723,0.662,1.25L46.43,7.425C46.298,7.854,45.902,8.131,45.475,8.131z"/><path fill="#8d6c9f" d="M50.428,10.12c-0.15,0-0.304-0.034-0.447-0.106c-0.494-0.247-0.693-0.849-0.446-1.342l0.897-1.788 c0.249-0.493,0.849-0.694,1.342-0.445c0.494,0.247,0.693,0.849,0.446,1.342l-0.897,1.788C51.147,9.918,50.795,10.12,50.428,10.12 z"/><path fill="#8d6c9f" d="M54.995,12.897c-0.203,0-0.407-0.062-0.584-0.189c-0.448-0.323-0.549-0.948-0.225-1.396 l1.17-1.621c0.323-0.448,0.947-0.549,1.396-0.226c0.448,0.323,0.549,0.948,0.225,1.396l-1.17,1.621 C55.611,12.754,55.306,12.897,54.995,12.897z"/><g><path fill="#8d6c9f" d="M10.271,36.5H8.313c-0.552,0-1-0.447-1-1s0.448-1,1-1h1.958c0.932,0,1.867-0.111,2.781-0.33 c0.536-0.126,1.077,0.204,1.206,0.739c0.128,0.537-0.203,1.077-0.74,1.206C12.453,36.37,11.36,36.5,10.271,36.5z M16.974,34.634 c-0.34,0-0.672-0.174-0.859-0.486c-0.284-0.474-0.129-1.088,0.344-1.372c0.525-0.313,1.035-0.672,1.516-1.064 c0.428-0.349,1.059-0.284,1.407,0.143c0.349,0.428,0.285,1.058-0.143,1.406c-0.556,0.454-1.146,0.868-1.753,1.232 C17.326,34.588,17.149,34.634,16.974,34.634z"/></g><g><path fill="#8d6c9f" d="M18.573,56.7c-0.133,0-0.269-0.026-0.398-0.083c-3.87-1.684-6.292-5.496-6.17-9.713l0.094-3.261 c0.016-0.554,0.479-0.961,1.028-0.972c0.552,0.017,0.987,0.477,0.971,1.028l-0.094,3.261c-0.098,3.396,1.853,6.467,4.969,7.822 c0.506,0.221,0.738,0.81,0.518,1.315C19.327,56.476,18.959,56.7,18.573,56.7z"/></g><g><path fill="#c2cde7" d="M47.244,28.423c-0.591,0-1.177-0.261-1.572-0.762l-2.97-3.766c-1.727-2.189-4.051-3.774-6.722-4.582 l-4.531-1.37c-1.057-0.319-1.655-1.436-1.335-2.493c0.32-1.058,1.436-1.657,2.494-1.335l4.531,1.37 c3.458,1.046,6.468,3.098,8.704,5.934l4.598,4.302c0.684,0.867-1.092,1.589-1.959,2.272C48.114,28.282,47.678,28.423,47.244,28.423 z"/></g><g><polygon fill="#fbd" points="34,17.793 34,7.557 35,6.557 32,2 29,6.557 30,7.557 30,17.793 28.5,19.293 32,24.609 35.5,19.293"/><path fill="#8d6c9f" d="M32,25.609c-0.336,0-0.65-0.169-0.835-0.45l-3.5-5.316c-0.261-0.396-0.207-0.921,0.128-1.257 L29,17.379V7.971l-0.707-0.707c-0.335-0.336-0.389-0.86-0.128-1.257l3-4.557c0.37-0.563,1.301-0.563,1.671,0l3,4.557 c0.261,0.396,0.207,0.921-0.128,1.257L35,7.971v9.408l1.207,1.207c0.335,0.336,0.389,0.86,0.128,1.257l-3.5,5.316 C32.65,25.44,32.336,25.609,32,25.609z M29.783,19.424L32,22.791l2.217-3.367L33.293,18.5C33.105,18.313,33,18.059,33,17.793 V7.557c0-0.266,0.105-0.52,0.293-0.707l0.424-0.424L32,3.818l-1.717,2.607l0.424,0.424C30.895,7.037,31,7.291,31,7.557v10.236 c0,0.266-0.105,0.52-0.293,0.707L29.783,19.424z"/></g><g><path fill="#c2cde7" d="M42.63,61.091c-0.874,0-1.676-0.577-1.924-1.459c-0.299-1.063,0.32-2.168,1.384-2.467 c2.679-0.754,4.057-1.128,4.805-1.313l3.482-3.581c1.315-1.85,1.848-4.098,1.502-6.346l-1.426-6.945 c-0.222-1.082,0.476-2.139,1.558-2.36c1.083-0.225,2.31-0.936,2.531,0.145l1.272,8.456c0.532,3.444,0.573,6.089-1.43,8.82 c-0.055,0.074-1.829,2.142-1.893,2.209l-3.142,2.815c-0.312,0.32-0.719,0.525-1.156,0.586c-0.478,0.104-2.893,0.767-5.021,1.364 C42.992,61.066,42.81,61.091,42.63,61.091z"/></g><g><path fill="#8d6c9f" d="M44.287,61.217C44.286,61.217,44.286,61.217,44.287,61.217c-2.219,0-4.374-0.544-6.405-1.616 c-0.403-0.213-0.611-0.672-0.506-1.115s0.497-0.76,0.953-0.77c1.126-0.023,2.224-0.229,3.256-0.602 c-0.842-0.125-1.664-0.385-2.454-0.775l-2.412-1.194c-0.379-0.188-0.599-0.594-0.549-1.015c0.05-0.42,0.359-0.763,0.771-0.857 c2.021-0.459,3.733-1.684,4.82-3.448c1.086-1.765,1.411-3.844,0.912-5.855l-1.57-6.338c-2.18-1.212-4.288-2.961-6.129-5.085 c0.476,1.852,1.182,3.585,2.097,5.135c0.156,0.176,0.251,0.408,0.251,0.662c0,0.553-0.448,1-1,1c-0.007,0-0.013,0-0.02,0 c-0.041,0-0.082-0.003-0.123-0.008c-5.172-0.639-9.567-3.963-11.602-8.491l-3.251,13.125c-0.499,2.012-0.174,4.091,0.912,5.855 c1.087,1.765,2.799,2.989,4.82,3.448c0.413,0.095,0.722,0.438,0.771,0.857c0.05,0.421-0.17,0.826-0.549,1.015l-2.412,1.194 c-0.79,0.391-1.611,0.65-2.454,0.775c1.033,0.373,2.13,0.578,3.256,0.602c0.456,0.01,0.848,0.326,0.953,0.77 s-0.103,0.902-0.506,1.115c-2.031,1.072-4.186,1.616-6.404,1.616c-4.058,0-8.042-1.911-10.658-5.11 C6.436,52.9,5.452,48.868,6.288,44.753l1.702-8.388c-2.361-0.389-4.515-1.559-6.155-3.362l-0.475-0.523 c-0.318-0.35-0.347-0.875-0.069-1.258s0.785-0.52,1.217-0.327l0.305,0.136c0.815,0.362,1.68,0.546,2.568,0.546 c2.082,0,4.031-1.022,5.214-2.734l4.785-6.649c0.109-0.15,0.17-0.269,0.267-0.349c3.421-5.486,9.705-8.876,16.354-8.876 c6.336,0,12.225,3.013,15.765,8.063l0.181,0.201c0.163,0.19,0.319,0.387,0.474,0.583l0.112,0.142 c0.018,0.022,0.034,0.044,0.049,0.067c0.051,0.055,0.097,0.11,0.139,0.169l4.774,6.634c1.194,1.728,3.143,2.75,5.225,2.75 c0.889,0,1.753-0.184,2.569-0.547l0.304-0.135c0.431-0.192,0.94-0.056,1.217,0.327c0.277,0.383,0.249,0.908-0.069,1.258 l-0.474,0.522c-1.666,1.831-3.854,3.002-6.256,3.368l1.702,8.383c0.835,4.115-0.148,8.147-2.769,11.354 C52.328,59.307,48.344,61.217,44.287,61.217z M42.191,59.022c4.08,0.762,8.508-0.883,11.205-4.182 c2.233-2.732,3.071-6.174,2.357-9.689l-1.922-9.468c-0.058-0.287,0.012-0.585,0.192-0.815c0.18-0.23,0.452-0.37,0.745-0.383 c1.246-0.055,2.441-0.371,3.523-0.92c-2.576-0.133-4.956-1.452-6.43-3.587l-4.763-6.618c-0.058-0.057-0.112-0.123-0.16-0.196 l-0.085-0.108c-0.14-0.177-0.28-0.354-0.429-0.528l-0.19-0.21c-0.025-0.029-0.049-0.06-0.071-0.091 c-3.163-4.546-8.457-7.26-14.161-7.26c-6.019,0-11.703,3.087-14.742,8.074c-0.061,0.101-0.3,0.372-0.3,0.372l-4.73,6.582 c-1.465,2.121-3.846,3.44-6.424,3.571c1.059,0.541,2.225,0.859,3.44,0.929c0.29,0.016,0.558,0.157,0.735,0.388 c0.177,0.229,0.246,0.524,0.188,0.81l-1.92,9.46c-0.713,3.516,0.124,6.956,2.357,9.688c2.24,2.741,5.646,4.377,9.11,4.377 c0.706,0,1.405-0.065,2.095-0.194c-1.72-0.608-3.294-1.604-4.609-2.938c-0.345-0.351-0.384-0.9-0.092-1.297 c0.292-0.396,0.829-0.522,1.266-0.292c1.745,0.908,3.821,0.938,5.608,0.051l0.328-0.162c-1.54-0.794-2.84-1.995-3.774-3.511 c-1.371-2.226-1.78-4.849-1.151-7.385l3.353-13.532l0.857-2.864c0.133-0.444,0.545-0.736,1.018-0.711 c0.463,0.027,0.846,0.37,0.925,0.828c0.801,4.633,4.332,8.406,8.885,9.729c-1.163-2.496-1.882-5.316-2.098-8.271 c-0.034-0.461,0.253-0.885,0.693-1.025c0.44-0.14,0.919,0.038,1.159,0.433c0.645,1.061,1.386,2.083,2.202,3.039 c1.815,2.123,3.908,3.839,6.051,4.962c0.253,0.133,0.438,0.367,0.507,0.646l1.677,6.768c0.629,2.536,0.22,5.159-1.151,7.385 c-0.934,1.516-2.234,2.717-3.774,3.511l0.328,0.162c1.788,0.888,3.864,0.857,5.608-0.051c0.437-0.228,0.974-0.104,1.266,0.292 s0.253,0.946-0.092,1.297C45.485,57.418,43.911,58.413,42.191,59.022z"/></g><g><path fill="#8d6c9f" d="M45.427,56.7c-0.386,0-0.754-0.225-0.917-0.602c-0.22-0.506,0.012-1.095,0.518-1.315 c3.116-1.355,5.067-4.426,4.969-7.822L49.903,43.7c-0.016-0.552,0.419-1.012,0.971-1.028c0.56,0.01,1.013,0.418,1.028,0.972 l0.094,3.261c0.122,4.217-2.301,8.029-6.17,9.713C45.695,56.674,45.56,56.7,45.427,56.7z"/></g><g><path fill="#8d6c9f" d="M54.687,36.5h-1.958c-2.896,0-5.702-0.896-8.115-2.592c-0.452-0.317-0.561-0.941-0.244-1.394 c0.318-0.451,0.941-0.562,1.393-0.243c2.075,1.458,4.483,2.229,6.965,2.229h1.958c0.552,0,1,0.447,1,1S55.239,36.5,54.687,36.5z M42.231,31.407c-0.258,0-0.517-0.1-0.712-0.298l-1.404-1.424c-0.388-0.394-0.383-1.026,0.01-1.414 c0.394-0.389,1.027-0.383,1.414,0.01l1.404,1.424c0.388,0.394,0.383,1.026-0.01,1.414C42.739,31.312,42.485,31.407,42.231,31.407z"/></g><g><path fill="#fbd" d="M32,9.616c-8.284,0-15,1.832-15,4.091c0,1.457,2.804,2.73,7.007,3.455 c0.14,0.035,0.293,0.06,0.462,0.06c0.556,0,1.006-0.215,1.006-0.479c0-0.164-0.184-0.302-0.448-0.388l0.01-0.01 c-0.034-0.006-0.064-0.013-0.097-0.019c-0.059-0.015-0.119-0.026-0.184-0.035c-1.427-0.274-2.301-0.627-2.301-1.016 c0-0.866,4.274-1.568,9.545-1.568s9.545,0.702,9.545,1.568c0,0.383-0.85,0.732-2.241,1.005c-0.474,0.039-0.841,0.227-0.841,0.463 c0,0.265,0.45,0.479,1.006,0.479c0.12,0,0.231-0.014,0.338-0.032l0.004,0.004C44.117,16.476,47,15.185,47,13.707 C47,11.448,40.284,9.616,32,9.616z"/><path fill="#8d6c9f" d="M39.47,18.223c-1.162,0-2.006-0.622-2.006-1.479c0-0.772,0.68-1.352,1.698-1.454 c0.027-0.005,0.054-0.011,0.081-0.017c-1.447-0.291-3.892-0.565-7.243-0.565c-3.349,0-5.792,0.273-7.24,0.565 c0.059,0.012,0.121,0.024,0.185,0.036c0.064,0.009,0.16,0.027,0.253,0.053c0.047,0.012,0.093,0.028,0.138,0.047l0.001-0.004 c1.057,0.344,1.139,1.111,1.139,1.339c0,1.028-1.254,1.759-2.712,1.389C20.262,17.531,16,16.261,16,13.707 c0-3.498,8.294-5.091,16-5.091s16,1.593,16,5.091c0,2.591-4.363,3.862-8.023,4.474c-0.034,0.006-0.068,0.01-0.103,0.012 C39.745,18.211,39.611,18.223,39.47,18.223z M32,12.707c4.811,0,10.545,0.445,10.545,2.568c0,0.108-0.012,0.212-0.034,0.309 C45.068,14.865,46,14.052,46,13.707c0-0.925-4.763-3.091-14-3.091s-14,2.166-14,3.091c0,0.34,0.93,1.154,3.488,1.875 c-0.022-0.097-0.034-0.198-0.034-0.307C21.455,13.152,27.189,12.707,32,12.707z"/></g></svg>