<svg xmlns="http://www.w3.org/2000/svg"  viewBox="0 0 64 64" width="64px" height="64px" fill-rule="evenodd" clip-rule="evenodd"><path fill="#fff8ee" d="M43.922,54l-2.18-0.393c0,0-0.414,2.799-2.617,1.596c-2.203-1.203,0.479-3.926,0.479-3.926 L41.922,50L43.922,54z"/><path fill="#fff8ee" d="M54.256,54l2.18-0.393c0,0,0.414,2.799,2.617,1.596c2.203-1.203-0.479-3.926-0.479-3.926L56.256,50 L54.256,54z"/><path fill="#8d6c9f" d="M62,36.836h-7.918c0.452-0.594,0.703-1.311,0.695-2.103l0-5.404c0-0.122-0.011-0.241-0.032-0.356	c0.021-0.116,0.032-0.235,0.032-0.356V25.83c0-1.099-0.891-1.99-1.99-1.99l-1.669-0.002l-0.752-0.001	c-0.33-0.641-0.998-1.08-1.769-1.081l-3.245-0.003c0,0-0.001,0-0.002,0c-0.477,0-0.936,0.171-1.295,0.479	c-0.082-0.01-0.166-0.016-0.25-0.016c-0.001,0-0.002,0-0.003,0c-0.482,0.001-2.093,0.003-3.531,0.003	c-0.838,0-1.617-0.001-2.077-0.003c-0.003,0-0.013,0-0.017,0c-0.863,0-1.625,0.223-2.274,0.663	c-0.644-0.435-1.404-0.663-2.227-0.663c-0.002,0-0.007,0-0.008,0l-1.716,0.001l-2.326-0.001c-0.862,0-1.651,0.247-2.315,0.72	c-0.636-0.453-1.38-0.691-2.191-0.697c-0.118-0.001-0.257-0.001-0.411-0.002c0-0.38,0-0.738-0.001-1l0.817,0l1.397,0	c0.003,0,0.006,0,0.01,0c0.155-0.001,0.306-0.019,0.45-0.053c0.151,0.037,0.308,0.056,0.47,0.056h3.374	c0.142,0,0.281-0.015,0.415-0.043c0.134,0.028,0.273,0.043,0.415,0.043h3.385c0.4,0,0.773-0.118,1.085-0.322	c0.491,0.214,1.014,0.322,1.564,0.322h5.713c1.099,0,1.99-0.891,1.99-1.99V6.624c0-1.099-0.891-1.99-1.99-1.99H40.51	c-1.099,0-1.99,0.891-1.99,1.99v0.49l-0.426,0c-0.361,0.002-0.7,0.044-1.02,0.122c-0.444,0.11-0.843,0.285-1.189,0.516	c-0.589-0.397-1.257-0.614-1.972-0.637c-0.08-0.002-0.147-0.003-0.213-0.003c-0.193,0-0.386,0.007-0.577,0.02	c-0.318,0.024-0.698,0.065-1.108,0.159c-0.241-0.104-0.508-0.162-0.787-0.162h-3.372c-0.39,0-0.753,0.112-1.06,0.306	c-0.48-0.214-0.998-0.324-1.536-0.324c-0.002,0-0.007,0-0.009,0c-0.643,0.002-1.284,0.003-1.924,0.003l-1.736-0.001l-0.597-0.001	c-0.778,0-1.499,0.226-2.126,0.659c-0.638-0.435-1.364-0.66-2.139-0.66h-6.062c-0.162,0-0.319,0.019-0.469,0.056	c-0.149-0.036-0.304-0.054-0.463-0.054L6.059,7.112L3.697,7.113C2.856,7.115,2.059,7.381,1.386,7.882	c-0.893,0.663-1.386,1.643-1.386,2.756v8.051c0,0.459,0.083,0.892,0.243,1.287c-0.145,0.276-0.227,0.591-0.227,0.924v2.755	c0,1.099,0.891,1.99,1.99,1.99l0.936,0l1.047,0c1.179,0,2.402,0,3.452,0.003c-0.005,0.058-0.008,0.118-0.008,0.178v2.793	c0,0.834,0.513,1.548,1.24,1.844v4.545c0,0.047,0.002,0.093,0.005,0.14c0.05,0.715,0.322,1.365,0.786,1.882	c0.023,0.025,0.046,0.05,0.069,0.075c-0.032,0.018-0.064,0.037-0.096,0.058c-0.472-0.209-0.983-0.316-1.518-0.316	c-0.002,0-0.007,0-0.009,0l-2.124,0.002l-2.125-0.002c-0.862,0-1.68,0.29-2.374,0.838c-0.839,0.666-1.293,1.614-1.282,2.672	c0.004,0.339,0.003,0.906,0.003,1.437l0,0.505c0,0.347,0.089,0.673,0.245,0.957c-0.181,0.437-0.268,0.916-0.251,1.419	c0.02,0.569,0.009,2.723,0.005,3.534l-0.001,0.291c-0.004,1.152,0.496,1.887,0.916,2.301c0.775,0.763,1.727,1.168,2.751,1.173	c0.759,0.002,1.609,0.002,2.478,0.002l1.8,0l1.629,0c0.394,0,0.761-0.114,1.07-0.312c0.469,0.206,0.978,0.312,1.516,0.312	l2.118-0.003c0.61,0,1.22,0.001,1.83,0.004c0.905,0,1.728-0.301,2.467-0.895c0.698,0.581,1.54,0.888,2.466,0.892l3.901,0.005	c0.853,0,1.636-0.253,2.341-0.752c0.621,0.471,1.395,0.75,2.232,0.75h7.5c0.016,0,0.031-0.004,0.047-0.005	c-0.007,0.114-0.011,0.223-0.02,0.346c-0.038,0.506-0.072,1.073,0.007,1.723c0,0.01-0.004,0.019-0.003,0.029	c0.004,0.056,0.022,0.104,0.029,0.157c0.011,0.07,0.015,0.137,0.029,0.209c0.004,0.019,0.015,0.033,0.02,0.051	c0.303,1.117,1.42,1.723,2.486,1.746c0.02,0,0.04,0.001,0.06,0.001c0.59,0,1.196-0.189,1.671-0.581	c0.447-0.321,0.775-0.835,0.836-1.533c0.339,0.117,0.708,0.323,1.086,0.652l1.094,2.073l2.106,3.988	c0.346,0.656,1.027,1.066,1.769,1.066h2.008c0.78,0,1.489-0.453,1.816-1.162l2.304-4.993l0.247-0.535	c0.529-0.603,1.055-0.928,1.524-1.089c0.06,0.697,0.387,1.21,0.832,1.531c0.475,0.394,1.082,0.583,1.673,0.583	c0.02,0,0.039-0.001,0.059-0.001c1.074-0.022,2.198-0.637,2.492-1.769c0.002-0.01,0.009-0.018,0.011-0.028	c0.008-0.04,0.009-0.076,0.016-0.115c0.016-0.084,0.04-0.162,0.047-0.251c0.001-0.016-0.005-0.03-0.006-0.046	c0.076-0.643,0.042-1.204,0.004-1.706c-0.032-0.428-0.059-0.797-0.007-1.144c0.071-0.472,0.212-0.761,0.361-1.066	c0.548-1.123,0.587-1.913-0.633-3.619c-0.028-0.039-0.059-0.076-0.092-0.111c-0.48-0.501-1.019-0.942-1.586-1.353	c0.007-0.014,0.014-0.028,0.022-0.042c0.128-0.246,0.255-0.492,0.399-0.729c0.216-0.356,0.425-0.66,0.64-0.933	c0.27-0.341,0.506-0.429,0.68-0.467c0.169-0.036,0.356-0.055,0.564-0.055l0.093,0.001l0.151,0.002L62.03,42.8	c1.093-0.016,1.97-0.907,1.97-2v-1.964C64,37.732,63.105,36.836,62,36.836z M40.863,32.642h3.097c0,0,0,1.62,0,2.168	c0,0.62,0.104,1.013,0.413,1.456c0.019,0.027,0.052,0.089,0.052,0.089l-3.562,0.004V32.642z M40.094,53.217	c-0.249,0.118-0.355,0.417-0.236,0.666c0.117,0.249,0.417,0.354,0.666,0.236c0.006-0.003,0.261-0.117,0.663-0.141	c-0.064,0.401-0.241,0.688-0.473,0.886c-0.173,0.112-0.368,0.184-0.568,0.186c-0.452,0.007-0.999-0.265-1.045-1.048	c0-0.005-0.003-0.01-0.004-0.015c0.008-0.636,0.239-1.204,0.727-1.725c0.382-0.408,0.906-0.775,1.54-1.098	c0.001,0.002,0.002,0.005,0.003,0.008l1.047,1.983C41.435,52.845,40.562,52.992,40.094,53.217z M58.169,55.05	c-0.214-0.003-0.423-0.08-0.604-0.209c-0.215-0.197-0.376-0.478-0.437-0.864c0.389,0.024,0.64,0.132,0.666,0.144	c0.246,0.117,0.545,0.01,0.662-0.238c0.119-0.249,0.013-0.548-0.236-0.666c-0.536-0.257-1.594-0.411-2.738,0.103l1.074-2.328	c0.805,0.363,1.475,0.785,1.93,1.271c0.492,0.525,0.723,1.099,0.727,1.741C59.167,54.785,58.633,55.063,58.169,55.05z"/><path fill="#fff8ee" d="M31.235,11.914h0.82l0.003,8.338h3.385v-9.627c0-0.05,0-0.1,0-0.15 c-0.01-0.265-0.081-0.512-0.256-0.709c-0.359-0.4-0.798-0.646-1.338-0.663c-0.05-0.001-0.1-0.002-0.15-0.002 c-0.146,0-0.293,0.005-0.438,0.016c-0.698,0.052-1.369,0.196-1.955,0.619c-0.014,0.011-0.037,0.008-0.079,0.014V9.121h-3.372 c0,3.716,0,11.131,0,11.132h3.374L31.235,11.914z"/><path fill="#fff8ee" d="M45.355,35.008c0.019,0.264,0.105,0.496,0.281,0.691c0.388,0.431,0.867,0.66,1.436,0.663h3.894 c0.005,0,0.009,0,0.014,0c0.456,0,0.856-0.149,1.223-0.421c0.393-0.292,0.589-0.673,0.584-1.188V29.33h-3.354c0,0,0,1.4,0,2.094 c0,0.693,0,2.085,0,2.085s-0.524,0-0.793,0v-4.891h4.147V25.83c-1.111,0-2.237-0.003-3.359-0.003c-0.278,0-0.555,0-0.832,0.001 v-1.08l-3.245-0.003v1.082h-0.924v2.793h0.929C45.355,28.718,45.355,33.197,45.355,35.008z"/><path fill="#fff8ee" d="M29.623,36.359c0.004,0,0.007,0,0.011,0c0.613-0.002,1.226-0.002,1.839-0.002 c0.742,0,1.485,0.001,2.228,0.002c0.002,0,0.003,0,0.005,0c0.524,0,0.974-0.198,1.36-0.548c0.245-0.221,0.375-0.503,0.374-0.845 c-0.002-0.533-0.001-1.427-0.001-2.08h-3.39v0.684h-0.802c0-0.466,0-1.383,0-1.383h4.19l0.002-5.511 c0.001-0.39-0.138-0.703-0.416-0.959c-0.383-0.354-0.835-0.509-1.348-0.509c-0.002,0-0.004,0-0.006,0 c-0.573,0.001-1.146,0.001-1.718,0.001c-0.776,0-1.552-0.001-2.328-0.001c-0.002,0-0.004,0-0.006,0 c-0.519,0-0.978,0.161-1.363,0.525c-0.264,0.249-0.401,0.556-0.401,0.927v8.255c0,0.399,0.154,0.715,0.453,0.961 C28.691,36.194,29.127,36.359,29.623,36.359z M31.249,28.025h0.798c0,0.45,0,0.886,0,1.337c-0.269,0-0.527,0-0.798,0 C31.249,29.056,31.249,28.494,31.249,28.025z"/><path fill="#fff8ee" d="M36.834,19.799c0.37,0.292,0.784,0.453,1.258,0.453c0.002,0,0.004,0,0.005,0h5.708V6.624H40.51 c0,0.904,0,2.478,0,2.478l-2.415,0.003c-0.182,0.001-0.369,0.021-0.545,0.064c-0.768,0.19-1.176,0.726-1.176,1.528l-0.001,8.128 C36.368,19.235,36.524,19.554,36.834,19.799z M39.672,11.854c0.266,0,0.517,0,0.781,0c0,1.823,0,3.878,0,5.708 c-0.259,0-0.513,0-0.781,0C39.672,15.744,39.672,13.688,39.672,11.854z"/><path fill="#fff8ee" d="M33.782,40.831v-1.99c0-0.011,0.003-0.022,0.003-0.033h-4.349c-0.899,0-1.628,0.729-1.628,1.628 v7.837c0,0.946,0.767,1.712,1.712,1.712h4.357c0.872,0,1.58-0.707,1.58-1.58v-5.608C34.508,42.643,33.782,41.825,33.782,40.831z M32.038,47.185h-0.784c0-1.849,0-3.687,0-5.545c0.273,0,0.52,0,0.783,0h0.001V47.185z"/><path fill="#fff8ee" d="M39.709,31.403h4.096V28.68h-4.096v-0.684h4.096v-2.788c-0.482,0.001-2.095,0.003-3.534,0.003 c-0.842,0-1.625-0.001-2.087-0.003c-0.002,0-0.005,0-0.007,0c-0.53,0-1.003,0.14-1.402,0.518c-0.266,0.253-0.406,0.562-0.404,0.942 c0.001,0.27,0,0.54,0,0.809c0,2.468,0,8.882,0,8.882h3.338V31.403z"/><path fill="#fff8ee" d="M22.579,38.373l-3.246-0.002v1.082h-0.924v2.793h0.929c0,0.099,0,4.578,0,6.389 c0.019,0.264,0.105,0.496,0.281,0.691c0.388,0.431,0.867,0.655,1.436,0.658l3.895,0.005c0.004,0,0.008,0,0.011,0 c0.456,0,0.858-0.148,1.225-0.421c0.393-0.292,0.589-0.673,0.584-1.188v-5.423h-3.354c0,0,0,1.4,0,2.094c0,0.693,0,2.085,0,2.085 s-0.524,0-0.793,0v-4.891h4.147h0.001v-2.786c-1.388,0-2.795-0.004-4.193-0.004V38.373z"/><path fill="#fff8ee" d="M14.531,47.203h-0.776V38.85c-0.79,0-2.145-0.007-3.244-0.011c0,3.063,0,6.865-0.001,9.753 c0,0.302,0.1,0.555,0.295,0.771c0.372,0.411,0.821,0.623,1.36,0.623c0.706-0.001,1.412-0.003,2.118-0.003 c0.613,0,1.226,0.001,1.839,0.004c0.003,0,0.006,0,0.009,0c0.475,0,0.88-0.187,1.244-0.492c0.281-0.235,0.414-0.54,0.411-0.929 v-9.729h-3.255L14.531,47.203z"/><path fill="#fff8ee" d="M13.905,23.969h-3.246v1.857H9.425v2.793h1.24c0,0.099,0,4.578,0,6.389 c0.019,0.264,0.105,0.496,0.281,0.691c0.388,0.431,0.867,0.655,1.436,0.658l3.895,0.005c0.004,0,0.008,0,0.011,0 c0.456,0,0.858-0.148,1.225-0.421c0.393-0.292,0.589-0.673,0.584-1.188V29.33h-3.354c0,0,0,1.4,0,2.094c0,0.693,0,2.085,0,2.085 s-0.524,0-0.793,0v-4.891h4.147v-2.789c-1.388,0-2.795-0.004-4.193-0.004V23.969z"/><path fill="#fff8ee" d="M25.107,25.232c-0.324-0.002-0.808-0.003-1.333-0.003c-0.345,0-0.708,0-1.054,0 c0-0.449,0-2.493-0.001-3.178H18.41c0-1.98,0-5.322-0.001-6.53c0-0.114-0.009-0.228-0.022-0.341 c-0.03-0.237-0.133-0.435-0.327-0.577c-0.022-0.017-0.056-0.015-0.086-0.022c0.078-0.079,0.119-0.107,0.159-0.135 c0.182-0.126,0.276-0.299,0.276-0.524c-0.001-1.14,0.001-2.278-0.003-3.418c-0.001-0.286-0.084-0.55-0.285-0.763 c-0.379-0.4-0.834-0.638-1.395-0.638h-6.062v12.382h3.445c0-1.806,0-5.423,0-5.423h0.838c0,0.087,0.001,4.17,0,6.514h0.001 c0,0.347,0,0.668-0.001,0.918c-0.001,0.334,0.109,0.609,0.344,0.837c0.372,0.363,0.813,0.567,1.341,0.567c0.875,0,2.717,0,2.717,0 V36.36h3.367l-0.001-8.246h0.844v8.245h3.211c0,0,0-9.717,0.004-9.767c-0.006-0.28-0.098-0.53-0.287-0.738 C26.117,25.448,25.656,25.235,25.107,25.232z M14.911,13.229h-0.788c0-0.447,0-0.881,0-1.329c0.271,0,0.529,0,0.788,0V13.229z"/><path fill="#fff8ee" d="M2.614,19.841c0.383,0.254,0.803,0.367,1.259,0.367h2.404V20.9H2.007v2.755c0.617,0,1.293,0,1.983,0 c1.354,0,2.764,0.001,3.906,0.004c0.002,0,0.004,0,0.006,0c0.482,0,0.911-0.138,1.295-0.426c0.347-0.261,0.538-0.595,0.538-1.048 c0-2.544-0.004-8.303-0.004-13.082c0,0-1.885-0.001-3.672-0.001c-0.894,0-1.763,0-2.36,0.001C3.285,9.104,2.909,9.23,2.575,9.479 c-0.39,0.29-0.584,0.662-0.584,1.16v8.051C1.991,19.202,2.199,19.567,2.614,19.841z M5.464,11.904c0.26,0,0.523,0,0.799,0 c0,1.64,0,3.789,0,5.54H5.464V11.904z"/><path fill="#fff8ee" d="M25.257,9.102c-0.002,0-0.003,0-0.005,0c-0.643,0.002-1.285,0.003-1.928,0.003 c-0.778,0-1.557-0.001-2.335-0.002c-0.533,0-0.973,0.217-1.336,0.605c-0.2,0.213-0.313,0.47-0.313,0.771c0,0.527,0,2.058,0,2.058 h3.387v-0.628h0.794v1.367l-2.392-0.003c-0.013,0-0.027,0-0.04,0c-0.573,0-1.036,0.235-1.432,0.645 c-0.216,0.222-0.321,0.487-0.32,0.808c0.005,1.357,0.007,2.713-0.001,4.069c-0.002,0.421,0.166,0.746,0.476,0.999 c0.374,0.305,0.797,0.461,1.282,0.461c0.004,0,0.008,0,0.011,0c0.822-0.003,1.824-0.003,2.847-0.003 c1.022,0,2.066,0.001,2.971,0.001v-9.745C26.917,10.14,26.77,9.837,26.507,9.6C26.152,9.279,25.741,9.102,25.257,9.102z M23.499,17.467h-0.777v-1.393c0.299,0,0.67,0,0.777,0V17.467z"/><path fill="#fff8ee" d="M7.921,38.836c-0.002,0-0.003,0-0.005,0c-0.71,0.001-1.419,0.002-2.128,0.002 s-1.419-0.001-2.128-0.002c-0.002,0-0.004,0-0.006,0c-0.426,0-0.797,0.146-1.132,0.41c-0.348,0.276-0.53,0.631-0.525,1.089 c0.005,0.455,0.003,1.317,0.003,1.964h3.384v-0.654h0.809v1.364H3.769c-0.011,0-0.022,0-0.033,0c-0.431,0-0.807,0.142-1.15,0.4 c-0.395,0.296-0.612,0.674-0.595,1.201c0.023,0.685,0.007,3.284,0.005,3.899c-0.001,0.333,0.082,0.638,0.322,0.875 c0.38,0.374,0.83,0.598,1.364,0.601c0.753,0.002,1.601,0.002,2.469,0.002c1.168,0,2.372-0.001,3.428-0.001c0-3.081,0-6.696,0-9.724 c0-0.328-0.11-0.615-0.338-0.848C8.876,39.041,8.442,38.836,7.921,38.836z M6.191,47.204H5.396v-1.389h0.795 C6.191,45.815,6.191,46.596,6.191,47.204z"/><g><path fill="#fff8ee" d="M60.17,47.07c-2.537-2.646-6.28-3.846-10.997-3.88v-0.001c-0.006,0-0.012,0.001-0.018,0.001 c-0.006,0-0.012-0.001-0.018-0.001v0.001c-4.717,0.034-8.46,1.234-10.997,3.88c-1.604,2.246-0.384,2.051-0.096,3.955 c0.153,1.015-0.195,1.959,0.048,3.222c-0.239-3.828,5.46-5.564,11.064-5.576c5.604,0.013,11.303,1.748,11.064,5.576 c0.243-1.264-0.105-2.208,0.048-3.222C60.554,49.12,61.774,49.316,60.17,47.07z"/></g><g><path fill="#72caaf" d="M51.944,38.836c-0.001,0-0.001,1.301-0.001,1.955c0.067,0.004,0.121,0.006,0.175,0.01 c0.311,0.026,0.622,0.037,0.93,0.082c0.409,0.057,0.793,0.191,1.131,0.436c0.273,0.197,0.434,0.46,0.472,0.795 c0.029,0.253,0.006,0.498-0.045,0.739c1.082,0.282,2.078,0.658,2.992,1.12c0.134-0.258,0.27-0.514,0.421-0.761 c0.237-0.389,0.493-0.769,0.774-1.127c0.471-0.595,1.067-1.02,1.826-1.186c0.327-0.07,0.658-0.101,0.991-0.101 c0.048,0,0.096,0.001,0.145,0.002c0.027,0.001,0.063,0.001,0.099,0.001C61.927,40.801,62,40.8,62,40.8v-1.964H51.944z"/><path fill="#72caaf" d="M37.577,41.08c0.318,0.162,0.597,0.401,0.841,0.709c0.223,0.282,0.45,0.565,0.637,0.87 c0.339,0.556,0.659,1.123,0.984,1.688c2.061-1.2,4.594-1.903,7.583-2.094c-0.026-0.526,0.169-0.946,0.666-1.189 c0.141-0.069,0.296-0.119,0.448-0.157c0.151-0.037,0.304-0.058,0.457-0.069c0.002,0,0.003,0,0.005,0 c0.054-0.005,0.108-0.005,0.162-0.007c0.069-0.002,0.138-0.009,0.207-0.009c0.047,0,0.094,0,0.14,0.001h0.242v-1.981H35.782 c0,0.001,0,1.317,0,1.99c0.167,0,0.327,0,0.484,0c0.079,0,0.157,0,0.235,0C36.9,40.832,37.258,40.918,37.577,41.08z"/><path fill="#72caaf" d="M51.707,49.81l-0.606,1.416l-0.611-1.514c-0.437-0.023-0.879-0.041-1.334-0.042 c-2.23,0.005-4.261,0.284-5.915,0.771c1.672,3.167,3.336,6.317,4.994,9.457h2.008c1.472-3.189,2.939-6.37,4.417-9.572 C53.768,50.091,52.773,49.92,51.707,49.81z"/></g><g><path fill="#8d6c9f" fill-rule="evenodd" d="M43.835,44.949c-0.976,0.198-1.845,0.489-2.656,0.891 c-0.033,0.017-0.107,0.052-0.119,0.068c-0.001,0.007,0.006,0.177,0.006,0.177c0.232-0.051,0.421-0.023,0.558,0.083 c0.142,0.113,0.216,0.306,0.216,0.575c0,0,0,0.844,0.001,1.108c0.001,0.488-0.225,0.871-0.672,1.14 c-0.026,0.015-0.067,0.038-0.108,0.061v0.186c1.125-0.484,2.262-0.838,3.47-1.078v-0.175c-0.021,0.001-0.045,0.003-0.071,0 l-0.078-0.004c-0.136-0.006-0.28-0.014-0.419-0.051c-0.279-0.076-0.408-0.243-0.408-0.529v-0.696l0.784,0.437l0.005-1.191 l-0.79,0.582l0.002-1.332l1.675,0.938v-1.45l-0.352,0.063C44.531,44.817,44.183,44.877,43.835,44.949z" clip-rule="evenodd"/><path fill="#8d6c9f" fill-rule="evenodd" d="M56.785,46.938c0.052,0.052,0.089,0.081,0.135,0.099v-1.18 c0-0.047-0.004-0.053-0.046-0.069c-0.119-0.046-0.237-0.093-0.356-0.141c-0.176-0.072-0.351-0.142-0.53-0.206 c-0.25-0.088-0.577-0.191-0.772-0.249c-1.519-0.458-3.215-0.7-5.252-0.788c-1.396-0.063-2.707-0.003-4.025,0.177 c-0.114,0.016-0.228,0.035-0.342,0.053l-0.043,0.006v0.185c0.035,0,0.066,0,0.098,0.003c0.379,0.027,0.676,0.316,0.679,0.654 c0.005,0.378,0.005,0.569,0.006,0.947l0.001,0.517c0.002,0.151-0.046,0.292-0.141,0.421c-0.154,0.207-0.344,0.349-0.566,0.422 c-0.021,0.006-0.04,0.014-0.059,0.02v0.173c1.063-0.156,2.058-0.242,3.059-0.265c-0.001-0.024-0.002-0.157-0.004-0.178h-0.001 c-0.491-0.05-0.787-0.369-0.788-0.856c0,0-0.009-0.706-0.009-1.223c0-0.353,0.256-0.897,0.769-0.897c0.302,0,0.523,0.372,0.6,0.514 l1.285,2.68l0.984,0.067c0.035-0.081,1.124-2.591,1.194-2.685c0.18-0.243,0.429-0.265,0.61-0.225 c0.466,0.104,0.493,0.574,0.503,0.683c0.006,0.076,0.009,1.296,0.004,1.71c-0.002,0.383-0.177,0.555-0.565,0.555 c-0.003,0-0.202,0-0.202,0v0.17c0.979,0.121,2.138,0.353,3.908,1.105v-1.587c-0.062-0.026-0.086-0.016-0.181,0.03 c-0.068,0.032-1.52,0.75-1.52,0.75v-1.384l0.764,0.715v-1.21l-0.764,0.294v-1.364C55.217,45.378,55.954,46.085,56.785,46.938z M52.163,45.501l-0.693,1.554l-0.646-1.359c-0.051-0.114-0.103-0.228-0.152-0.342c-0.089-0.207-0.058-0.331,0.105-0.471 c0.23-0.193,0.458-0.221,0.684-0.203c0.239,0.017,0.473,0.141,0.648,0.395C52.199,45.207,52.217,45.366,52.163,45.501z" clip-rule="evenodd"/></g></svg>