<svg xmlns="http://www.w3.org/2000/svg"  viewBox="0 0 64 64" width="64px" height="64px"><path fill="#85cbf8" d="M7,13v38c0,3.31,2.69,6,6,6h38c3.31,0,6-2.69,6-6V13c0-3.31-2.69-6-6-6H13C9.69,7,7,9.69,7,13z"/><path fill="#ace3ff" d="M9,32L9,32c0,12.703,10.297,23,23,23h0c12.703,0,23-10.297,23-23v0C55,19.297,44.703,9,32,9h0	C19.297,9,9,19.297,9,32z"/><ellipse cx="31.009" cy="24.972" fill="#efc88e" rx="14.306" ry="10.426" transform="rotate(-71.657 31.01 24.971)"/><circle cx="40" cy="33" r="12" fill="#c4939c"/><circle cx="40" cy="23" r="2" fill="#ffeb9b"/><circle cx="45" cy="27" r="2" fill="#f7a1c8"/><circle cx="46" cy="38" r="2" fill="#f7a1c8"/><circle cx="38" cy="29" r="2" fill="#85cbf8"/><circle cx="39" cy="36" r="2" fill="#ffeb9b"/><circle cx="32.5" cy="22.5" r="1.5" fill="#8d6c9f"/><circle cx="44.5" cy="32.5" r="1.5" fill="#97e0bb"/><circle cx="49.5" cy="24.5" r="1.5" fill="#8d6c9f"/><circle cx="50.5" cy="33.5" r="1.5" fill="#85cbf8"/><circle cx="47.5" cy="43.5" r="1.5" fill="#8d6c9f"/><circle cx="32.5" cy="30.5" r="1.5" fill="#97e0bb"/><circle cx="33.5" cy="35.5" r="1.5" fill="#f7a1c8"/><path fill="#f283a5" d="M40.87,46.43c-0.31,1.71-1.14,3.19-2.3,4.31C37.11,52.16,35.12,53,33.01,53	c-0.48,0-0.96-0.04-1.44-0.13c-8.42-1.53-18.9-10.39-20.48-20.65c-0.33-2.13,0.22-4.19,1.37-5.83c1.21-1.71,3.09-2.95,5.32-3.3	c4.37-0.67,8.45,2.33,9.13,6.69c0.43,2.8,4.98,6.89,7.52,7.35C38.78,37.92,41.66,42.08,40.87,46.43z"/><path fill="#ed7899" d="M38.57,50.74C37.11,52.16,35.12,53,33.01,53c-0.48,0-0.96-0.04-1.44-0.13	c-8.42-1.53-18.9-10.39-20.48-20.65c-0.33-2.13,0.22-4.19,1.37-5.83c2.31,0.53,4.18,2.43,4.56,4.91	c1.15,7.43,9.34,14.53,15.62,15.67c0.12,0.02,0.25,0.03,0.37,0.03C35.52,47,37.68,48.55,38.57,50.74z"/><path fill="#8d6c9f" d="M51,58H13c-3.86,0-7-3.141-7-7V13c0-3.859,3.14-7,7-7h38c3.86,0,7,3.141,7,7v38	C58,54.859,54.86,58,51,58z M13,8c-2.757,0-5,2.243-5,5v38c0,2.757,2.243,5,5,5h38c2.757,0,5-2.243,5-5V13c0-2.757-2.243-5-5-5H13z"/><path fill="#8d6c9f" d="M33.009,54.001c-0.541,0-1.086-0.049-1.619-0.146c-8.749-1.591-19.642-10.807-21.285-21.486	c-0.755-4.905,2.622-9.51,7.527-10.265c2.374-0.371,4.751,0.213,6.69,1.637c1.938,1.422,3.207,3.514,3.573,5.89	c0.362,2.352,4.535,6.118,6.715,6.514c2.365,0.431,4.421,1.756,5.79,3.732c1.368,1.977,1.885,4.367,1.455,6.732	C41.076,50.893,37.356,54.001,33.009,54.001z M19.02,23.997c-0.359,0-0.721,0.028-1.083,0.084c-3.816,0.587-6.442,4.168-5.855,7.983	c1.516,9.851,11.581,18.353,19.666,19.823c0.416,0.075,0.84,0.113,1.262,0.113c3.379,0,6.272-2.418,6.878-5.749	c0.334-1.84-0.067-3.699-1.132-5.236c-1.064-1.538-2.664-2.568-4.503-2.902c-2.94-0.534-7.835-4.934-8.334-8.178	c-0.285-1.849-1.271-3.476-2.779-4.582C21.927,24.464,20.494,23.997,19.02,23.997z"/><g><path fill="#8d6c9f" d="M28.385,47.561c-0.146,0-0.295-0.032-0.436-0.101c-0.497-0.241-0.704-0.839-0.463-1.336l0.873-1.8 c0.241-0.497,0.839-0.704,1.336-0.463c0.497,0.24,0.704,0.839,0.463,1.336l-0.873,1.8C29.112,47.354,28.756,47.561,28.385,47.561z"/><path fill="#8d6c9f" d="M23.944,44.717c-0.219,0-0.44-0.071-0.625-0.22c-0.431-0.345-0.501-0.975-0.155-1.405l1.25-1.561 c0.344-0.433,0.975-0.502,1.405-0.155c0.431,0.345,0.501,0.975,0.155,1.405l-1.25,1.561 C24.528,44.589,24.237,44.717,23.944,44.717z"/><path fill="#8d6c9f" d="M20.192,41.037c-0.288,0-0.574-0.124-0.771-0.363c-0.352-0.426-0.292-1.056,0.134-1.408 l1.542-1.273c0.426-0.35,1.056-0.29,1.408,0.135c0.352,0.426,0.292,1.056-0.134,1.408l-1.542,1.273 C20.642,40.962,20.417,41.037,20.192,41.037z"/><path fill="#8d6c9f" d="M17.333,36.576c-0.376,0-0.737-0.213-0.906-0.577c-0.234-0.5-0.018-1.095,0.482-1.329l1.812-0.847 c0.5-0.229,1.096-0.019,1.329,0.483c0.234,0.5,0.018,1.095-0.482,1.329l-1.812,0.847C17.619,36.546,17.475,36.576,17.333,36.576z"/></g><path fill="#8d6c9f" d="M40.999,45.96c-0.515,0-0.952-0.396-0.996-0.918c-0.045-0.55,0.364-1.033,0.914-1.079	C46.571,43.495,51,38.68,51,33c0-5.386-4.003-10.06-9.312-10.872c-6.503-0.971-12.257,3.829-12.661,10.155	c-0.035,0.552-0.504,0.953-1.062,0.935c-0.551-0.035-0.969-0.511-0.934-1.062c0.478-7.476,7.284-13.16,14.956-12.006	C48.267,21.111,53,26.636,53,33c0,6.712-5.235,12.403-11.917,12.957C41.055,45.959,41.026,45.96,40.999,45.96z"/><path fill="#8d6c9f" d="M20.681,24.19c-0.077,0-0.155-0.009-0.234-0.027c-0.537-0.129-0.868-0.668-0.74-1.205	c0.136-0.566,0.285-1.086,0.456-1.589c2.658-8.004,9.686-12.903,15.661-10.929c3.957,1.315,6.644,5.389,7.013,10.629	c0.039,0.551-0.376,1.029-0.927,1.067c-0.555,0.05-1.029-0.376-1.068-0.927c-0.312-4.417-2.476-7.816-5.648-8.871	c-4.933-1.641-10.823,2.701-13.135,9.667c-0.153,0.45-0.286,0.912-0.406,1.417C21.543,23.882,21.133,24.19,20.681,24.19z"/><path fill="#f9e3ae" d="M25.708,22c-0.149,0-0.3-0.033-0.443-0.104c-0.495-0.245-0.697-0.845-0.452-1.34	c1.946-3.924,5.255-6.56,8.235-6.56c0.552,0,1,0.447,1,1s-0.448,1-1,1c-2.203,0-4.853,2.24-6.443,5.448	C26.43,21.796,26.076,22,25.708,22z"/></svg>