<svg xmlns="http://www.w3.org/2000/svg"  viewBox="0 0 64 64" width="64px" height="64px"><path fill="#e3e8f6" d="M47.626,5.808L47.626,5.808c-0.923-0.284-1.709,0.72-1.212,1.548L48,10l-3,2l0.62,0.451	c5.394,3.923,3.898,11.782-0.952,16.361l0,0c0,0-5.824-1.812-12.668-1.812s-9.729,0.975-12.67,1.814l0.001-0.002L17.8,27.281	C13.212,22.693,13.752,15.816,19,12l0,0l-3-2l1.587-2.644c0.497-0.828-0.29-1.832-1.212-1.548l0,0C10.208,7.705,6,13.403,6,19.854	v0.711C6,25.755,9.6,32.25,14,35l0,0v13c0,7.18,5.82,13,13,13h10c7.18,0,13-5.82,13-13V35l0,0c4.4-2.75,8-9.245,8-14.434v-0.711	C58,13.403,53.792,7.705,47.626,5.808z"/><path fill="#d0d8ec" d="M44.928,30.07c-0.316,1.38-1.458,2.3-2.712,2.3c-0.214,0-0.436-0.03-0.659-0.09	C39.728,31.8,36.05,31,32,31c-4.96,0-7.486,0.63-9.473,1.23c-1.477,0.44-3.018-0.49-3.427-2.09c-0.139-0.55-0.13-1.11,0.009-1.63	C19.453,28.97,25.648,27,32,27c3.176,0,6.12,0.45,8.266,0.9c2.145,0.46,4.272,1.08,4.625,0.62	C45.031,29.01,45.049,29.54,44.928,30.07z"/><ellipse cx="23" cy="47" fill="#836c9b" rx="5" ry="6"/><ellipse cx="41" cy="47" fill="#836c9b" rx="5" ry="6"/><path fill="#836c9b" d="M41.949,23.688c-0.052,0-0.104-0.004-0.156-0.012c-0.546-0.086-0.919-0.598-0.833-1.144l0.31-1.977	c0.085-0.546,0.602-0.913,1.143-0.833c0.546,0.086,0.919,0.598,0.833,1.144l-0.31,1.977C42.858,23.337,42.433,23.688,41.949,23.688z"/><path fill="#836c9b" d="M36.99,23.145c-0.022,0-0.045-0.001-0.067-0.002c-0.551-0.037-0.968-0.514-0.931-1.064l0.133-1.996	c0.037-0.551,0.519-0.956,1.064-0.932c0.551,0.037,0.968,0.514,0.931,1.064l-0.133,1.996C37.952,22.739,37.512,23.145,36.99,23.145z"/><path fill="#836c9b" d="M31.988,23.004c-0.548,0-0.995-0.442-1-0.991l-0.017-2c-0.005-0.553,0.439-1.004,0.991-1.009	c0.003,0,0.006,0,0.009,0c0.548,0,0.995,0.442,1,0.991l0.017,2c0.005,0.553-0.439,1.004-0.992,1.009	C31.994,23.004,31.991,23.004,31.988,23.004z"/><path fill="#836c9b" d="M26.992,23.234c-0.514,0-0.95-0.393-0.995-0.914l-0.172-1.992c-0.048-0.55,0.36-1.035,0.91-1.082	c0.55-0.059,1.034,0.359,1.082,0.91l0.172,1.992c0.048,0.55-0.36,1.035-0.91,1.082C27.05,23.233,27.021,23.234,26.992,23.234z"/><path fill="#836c9b" d="M22.052,23.886c-0.474,0-0.895-0.338-0.983-0.821l-0.358-1.968c-0.099-0.543,0.261-1.063,0.805-1.162	c0.549-0.105,1.064,0.261,1.163,0.805l0.358,1.968c0.099,0.543-0.261,1.063-0.805,1.162C22.171,23.881,22.111,23.886,22.052,23.886z"/><path fill="#836c9b" d="M37,62H27c-7.72,0-14-6.28-14-14V35.539c-4.453-3.071-8-9.651-8-14.974v-0.711	C5,12.92,9.453,6.892,16.081,4.852l0.134-0.041c0.796-0.241,1.645,0.023,2.16,0.68s0.57,1.545,0.14,2.262l-1.167,1.944l1.057,0.705	c0.535,0.356,0.858,0.93,0.888,1.572c0.029,0.644-0.241,1.244-0.741,1.648c-0.238,0.192-0.458,0.372-0.56,0.477	c-1.462,1.485-2.212,3.479-2.17,5.767c0.052,2.854,1.335,5.806,3.458,8.005C21,27.368,26.223,26,32,26	c5.644,0,10.972,1.439,12.72,1.962c2.12-2.201,3.402-5.169,3.457-8.05c0.043-2.313-0.707-4.323-2.169-5.813	c-0.103-0.104-0.322-0.284-0.56-0.477c-0.501-0.405-0.771-1.005-0.741-1.648c0.029-0.642,0.353-1.215,0.888-1.571l1.058-0.705	l-1.167-1.945c-0.43-0.717-0.375-1.604,0.14-2.262c0.515-0.657,1.362-0.924,2.163-0.679l0.129,0.039	c0.001,0.001,0.002,0.001,0.002,0.001C54.547,6.892,59,12.92,59,19.854v0.711c0,5.322-3.547,11.902-8,14.974V48	C51,55.72,44.72,62,37,62z M16.8,6.723l-0.134,0.042C10.886,8.543,7,13.804,7,19.854v0.711c0,4.813,3.448,11.035,7.53,13.587	C14.822,34.335,15,34.655,15,35v13c0,6.617,5.383,12,12,12h10c6.617,0,12-5.383,12-12V35c0-0.345,0.178-0.665,0.47-0.848	C53.552,31.601,57,25.379,57,20.565v-0.711c0-6.051-3.885-11.311-9.667-13.091l-0.13-0.039l1.655,2.761	c0.275,0.458,0.142,1.051-0.303,1.347l-1.851,1.234c0.314,0.252,0.598,0.496,0.732,0.632c1.847,1.881,2.795,4.389,2.741,7.251	c-0.067,3.588-1.747,7.279-4.493,9.872c-0.269,0.254-0.653,0.338-1,0.223C44.621,30.023,38.417,28,32,28	c-6.596,0-12.631,1.932-12.691,1.951c-0.348,0.115-0.729,0.027-0.995-0.224c-2.748-2.595-4.427-6.268-4.492-9.825	c-0.052-2.838,0.896-5.33,2.743-7.205c0.132-0.135,0.417-0.379,0.73-0.632l-1.85-1.233c-0.444-0.296-0.578-0.889-0.303-1.347	L16.8,6.723z"/></svg>