<svg xmlns="http://www.w3.org/2000/svg"  viewBox="0 0 64 64" width="64px" height="64px"><path fill="#acb7d0" d="M53,59H11c-3.314,0-6-2.686-6-6V11c0-3.314,2.686-6,6-6h42c3.314,0,6,2.686,6,6v42	C59,56.313,56.314,59,53,59z"/><path fill="#c2cde7" d="M56,11.945H8c-1.657,0-3-1.343-3-3l0,0c0-2.209,4-4,4-4h46c0,0,4,1.791,4,4l0,0	C59,10.602,57.657,11.945,56,11.945z"/><path fill="#8d6c9f" d="M53,4H11c-3.86,0-7,3.141-7,7v42c0,3.859,3.14,7,7,7h42c3.86,0,7-3.141,7-7V11C60,7.14,56.86,4,53,4z M58,53c0,2.757-2.243,5-5,5H11c-2.757,0-5-2.243-5-5V11c0-2.757,2.243-5,5-5h42c2.757,0,5,2.243,5,5V53z"/><path fill="#8d6c9f" d="M15,10c-0.552,0-1,0.447-1,1v2c0,0.553,0.448,1,1,1s1-0.447,1-1v-2C16,10.447,15.552,10,15,10z M10,10c-0.552,0-1,0.447-1,1v2c0,0.553,0.448,1,1,1s1-0.447,1-1v-2C11,10.447,10.552,10,10,10z M30,10c-0.552,0-1,0.447-1,1v2	c0,0.553,0.448,1,1,1s1-0.447,1-1v-2C31,10.447,30.552,10,30,10z M35,10c-0.552,0-1,0.447-1,1v2c0,0.553,0.448,1,1,1s1-0.447,1-1v-2	C36,10.447,35.552,10,35,10z M40,10c-0.552,0-1,0.447-1,1v2c0,0.553,0.448,1,1,1s1-0.447,1-1v-2C41,10.447,40.552,10,40,10z M45,10	c-0.552,0-1,0.447-1,1v2c0,0.553,0.448,1,1,1s1-0.447,1-1v-2C46,10.447,45.552,10,45,10z M50,10c-0.552,0-1,0.447-1,1v2	c0,0.553,0.448,1,1,1s1-0.447,1-1v-2C51,10.447,50.552,10,50,10z M55,10c-0.552,0-1,0.447-1,1v2c0,0.553,0.448,1,1,1s1-0.447,1-1v-2	C56,10.447,55.552,10,55,10z M20,10c-0.552,0-1,0.447-1,1v2c0,0.553,0.448,1,1,1s1-0.447,1-1v-2C21,10.447,20.552,10,20,10z M25,10	c-0.552,0-1,0.447-1,1v2c0,0.553,0.448,1,1,1s1-0.447,1-1v-2C26,10.447,25.552,10,25,10z"/><path fill="#8d6c9f" d="M18.959,36.602l0.764,1.044c0,0-0.936,0.437-1.374,0.726c0,0,0.374,0.958,0.701,1.518	c0.321,0.551,0.909,1.986,1.285,2.336s0.934,0.888,0.934,0.888l-2.116-0.446c0,0-1.778-3.751-1.934-4.049	c-0.156-0.298-0.355-0.579-0.701-0.934c-0.406-0.417-0.645-0.509-0.701-0.526c0.07,0.018,0.42,0.104,0.843,0.104	c0.137,0,0.283-0.009,0.429-0.032c0.463-0.074,0.947-0.234,1.518-0.467C18.715,36.719,18.959,36.602,18.959,36.602 M15.806,37.155	c0,0,0.004,0.001,0.013,0.003C15.81,37.156,15.806,37.155,15.806,37.155 M18.958,34.602c-0.292,0-0.587,0.064-0.865,0.197	c-0.005,0.003-0.164,0.08-0.247,0.115c-0.464,0.19-0.806,0.299-1.072,0.341c-0.017,0.003-0.054,0.007-0.113,0.007	c-0.146,0-0.29-0.028-0.337-0.039c-0.042-0.011-0.086-0.022-0.126-0.03c-0.132-0.027-0.265-0.039-0.395-0.039	c-0.906,0-1.723,0.619-1.943,1.533c-0.227,0.945,0.258,1.9,1.118,2.289c0.025,0.022,0.061,0.056,0.107,0.103	c0.236,0.242,0.31,0.367,0.361,0.465c0.11,0.214,1.061,2.212,1.9,3.981c0.268,0.564,0.783,0.971,1.394,1.1l2.116,0.446	c0.138,0.029,0.277,0.043,0.413,0.043c0.729,0,1.415-0.4,1.767-1.064c0.418-0.788,0.263-1.758-0.38-2.377	c0,0-0.494-0.475-0.873-0.831c-0.134-0.21-0.389-0.738-0.531-1.032c-0.104-0.216-0.2-0.414-0.292-0.593	c0.342-0.269,0.59-0.645,0.701-1.075c0.149-0.58,0.03-1.195-0.323-1.678l-0.764-1.044C20.187,34.892,19.58,34.602,18.958,34.602	L18.958,34.602z"/><path fill="#8d6c9f" d="M46.352,32.134c0,0,1.729,1.051,2.757,1.472c1.028,0.421,1.898,0.718,2.733,0.841	c0.398,0.059,0.76,0.079,1.069,0.079c0.494,0,0.852-0.052,1.006-0.079c-0.137,0.045-0.456,0.21-1.047,0.817	c-0.622,0.64-0.981,1.145-1.262,1.682s-3.481,7.289-3.481,7.289l-3.201,0.677c0,0,0.794-0.467,1.472-1.098	c0.677-0.631,1.791-2.953,2.219-4.018c0.316-0.787,1.121-3.201,1.121-3.201c-1.211-0.8-2.518-1.524-3.925-2.173L46.352,32.134 M53.996,34.431c0.003,0,0.004,0,0.004,0s-0.029,0.007-0.084,0.016C53.961,34.432,53.987,34.431,53.996,34.431 M46.352,30.134	c-0.262,0-0.525,0.051-0.773,0.156c-0.591,0.248-1.027,0.764-1.174,1.387l-0.537,2.289c-0.217,0.925,0.247,1.875,1.109,2.273	c0.818,0.377,1.606,0.785,2.357,1.22c-0.22,0.638-0.447,1.281-0.572,1.591c-0.49,1.219-1.402,2.954-1.742,3.316	c-0.479,0.445-1.101,0.819-1.107,0.822c-0.845,0.497-1.205,1.533-0.851,2.447c0.303,0.782,1.053,1.277,1.864,1.277	c0.137,0,0.276-0.014,0.415-0.044l3.201-0.677c0.611-0.129,1.126-0.536,1.393-1.1c1.23-2.594,3.253-6.849,3.447-7.22	c0.155-0.297,0.374-0.649,0.922-1.212c0.181-0.186,0.303-0.293,0.373-0.349c0.821-0.305,1.368-1.118,1.309-2.009	c-0.064-0.973-0.811-1.761-1.781-1.86c-0.068-0.007-0.14-0.011-0.208-0.011h0c-0.162,0-0.326,0.019-0.491,0.057	c-0.107,0.015-0.314,0.038-0.595,0.038c-0.257,0-0.518-0.019-0.776-0.058c-0.576-0.085-1.254-0.299-2.269-0.714	c-0.72-0.295-2.031-1.06-2.475-1.33C47.073,30.232,46.713,30.134,46.352,30.134L46.352,30.134z"/><path fill="#8d6c9f" d="M45.041,36.602c0,0,0.245,0.117,0.351,0.161c0.571,0.234,1.055,0.393,1.518,0.467	c0.146,0.023,0.291,0.032,0.429,0.032c0.424,0,0.774-0.086,0.843-0.104c-0.056,0.017-0.295,0.109-0.701,0.526	c-0.346,0.355-0.545,0.636-0.701,0.934c-0.156,0.298-1.934,4.049-1.934,4.049l-2.116,0.446c0,0,0.558-0.537,0.934-0.888	s0.964-1.785,1.285-2.336c0.327-0.561,0.701-1.518,0.701-1.518c-0.438-0.289-1.374-0.726-1.374-0.726L45.041,36.602 M48.194,37.155	c0,0-0.004,0.001-0.013,0.003C48.19,37.155,48.194,37.155,48.194,37.155 M45.042,34.602c-0.622,0-1.228,0.29-1.615,0.819	l-0.764,1.044c-0.353,0.483-0.472,1.098-0.323,1.678c0.11,0.429,0.359,0.806,0.701,1.075c-0.092,0.179-0.188,0.377-0.292,0.593	c-0.142,0.294-0.397,0.822-0.531,1.032c-0.38,0.356-0.873,0.831-0.873,0.831c-0.643,0.619-0.798,1.589-0.38,2.377	c0.352,0.664,1.038,1.064,1.767,1.064c0.137,0,0.275-0.014,0.413-0.043l2.116-0.446c0.611-0.129,1.127-0.536,1.394-1.1	c0.839-1.769,1.79-3.766,1.901-3.984c0.049-0.094,0.123-0.219,0.359-0.461c0.049-0.051,0.087-0.085,0.112-0.108	c0.843-0.391,1.326-1.33,1.11-2.265c-0.213-0.923-1.03-1.552-1.941-1.552c-0.13,0-0.262,0.013-0.394,0.039	c-0.04,0.008-0.085,0.019-0.128,0.03c-0.042,0.01-0.188,0.038-0.335,0.038c-0.058,0-0.096-0.005-0.113-0.007	c-0.266-0.043-0.609-0.152-1.077-0.343c-0.078-0.033-0.237-0.11-0.243-0.113C45.629,34.665,45.333,34.602,45.042,34.602	L45.042,34.602z"/><path fill="#8d6c9f" d="M52,54h-3c-0.552,0-1-0.447-1-1s0.448-1,1-1h3c0.552,0,1,0.447,1,1S52.552,54,52,54z M44,54H12 c-0.552,0-1-0.447-1-1s0.448-1,1-1h32c0.552,0,1,0.447,1,1S44.552,54,44,54z"/><path fill="#8d6c9f" d="M32.001,27.698c0,0,0.049,0.724,0.745,1.586c0.493,0.611,1.537,1.579,3.095,2.61	c0.55,0.364,1.261,0.824,2.098,1.325c1.436,0.859,2.307,1.276,2.307,1.276s0.136,0.64,0.135,1.521	c-0.001,0.835-0.127,1.886-0.515,2.859c-0.292,0.733-0.638,1.521-1.092,2.159c-0.586,0.824-1.276,1.436-1.276,1.436	s-0.022,0.004-0.044,0.004c-0.029,0-0.057-0.007-0.03-0.041c0.344-0.417,0.838-0.971,1.202-1.62	c0.447-0.794,0.811-1.732,0.663-2.699c-0.196-1.276-0.787-1.79-1.117-1.975c-0.957-0.54-2.932-1.779-4.024-2.405	C33.164,33.171,32,32.471,32,32.471s-1.164,0.7-2.148,1.264c-1.092,0.626-3.067,1.865-4.024,2.405	c-0.329,0.186-0.92,0.699-1.117,1.975c-0.149,0.967,0.216,1.905,0.663,2.699c0.365,0.649,0.859,1.202,1.202,1.62	c0.028,0.034-0.001,0.041-0.03,0.041c-0.022,0-0.044-0.004-0.044-0.004s-0.69-0.612-1.276-1.436c-0.454-0.638-0.8-1.427-1.092-2.159	c-0.388-0.973-0.514-2.024-0.515-2.859c-0.001-0.881,0.135-1.521,0.135-1.521s0.871-0.417,2.307-1.276	c0.837-0.501,1.548-0.961,2.098-1.325c1.558-1.031,2.602-1.999,3.095-2.61c0.696-0.863,0.745-1.586,0.745-1.586l0.002,0.03V27.698 M31.987,25.592c-0.035,0-0.07,0.001-0.106,0.003c-1.078,0.065-1.906,0.84-1.88,1.908c-0.029,0.089-0.108,0.282-0.304,0.526	c-0.36,0.446-1.268,1.289-2.642,2.198c-0.459,0.303-1.167,0.766-2.022,1.277c-1.322,0.791-2.137,1.185-2.146,1.189	c-0.558,0.269-0.962,0.782-1.091,1.387c-0.018,0.087-0.18,0.877-0.179,1.939c0.001,0.891,0.116,2.239,0.658,3.597	c0.324,0.813,0.735,1.756,1.32,2.578c0.698,0.981,1.49,1.694,1.578,1.772c0.276,0.244,0.613,0.408,0.976,0.473	c0.116,0.021,0.277,0.035,0.395,0.035c0.803,0,1.511-0.444,1.849-1.159c0.33-0.7,0.217-1.556-0.274-2.153l-0.171-0.206	c-0.287-0.343-0.612-0.731-0.832-1.123c-0.337-0.599-0.481-1.075-0.429-1.415c0.056-0.362,0.148-0.522,0.183-0.572	c0.516-0.293,1.244-0.735,2.013-1.202c0.716-0.435,1.442-0.876,1.963-1.175c0.383-0.22,0.794-0.46,1.154-0.672	c0.36,0.212,0.77,0.452,1.154,0.672c0.521,0.298,1.247,0.74,1.963,1.175c0.769,0.467,1.497,0.909,2.013,1.202	c0.035,0.05,0.127,0.21,0.183,0.572c0.052,0.34-0.092,0.816-0.429,1.415c-0.22,0.392-0.545,0.78-0.832,1.123l-0.171,0.205	c-0.492,0.598-0.605,1.454-0.275,2.154c0.337,0.715,1.046,1.159,1.849,1.159c0.118,0,0.279-0.014,0.395-0.035	c0.363-0.065,0.7-0.228,0.976-0.473c0.088-0.078,0.88-0.791,1.578-1.772c0.586-0.823,0.996-1.765,1.32-2.578	c0.542-1.358,0.657-2.706,0.658-3.597c0.001-1.062-0.16-1.852-0.179-1.939c-0.129-0.607-0.533-1.12-1.093-1.388	c-0.006-0.003-0.822-0.397-2.144-1.188c-0.854-0.511-1.563-0.974-2.022-1.277c-1.374-0.909-2.282-1.752-2.642-2.198	c-0.265-0.329-0.316-0.567-0.318-0.578c0.014,0.072,0.012,0.113,0.012,0.113l-0.002,0C33.908,26.514,33.028,25.592,31.987,25.592	L31.987,25.592z"/><path fill="#8d6c9f" d="M32.001,34.02c0,0,0.033,0.483,0.497,1.058c0.329,0.407,1.024,1.053,2.063,1.74	c0.367,0.243,0.84,0.549,1.399,0.883c0.957,0.573,1.538,0.851,1.538,0.851s0.091,0.427,0.09,1.014	c-0.001,0.557-0.085,1.257-0.344,1.906c-0.195,0.489-0.425,1.014-0.728,1.44c-0.391,0.549-0.851,0.957-0.851,0.957	s-0.015,0.003-0.029,0.003c-0.019,0-0.038-0.005-0.02-0.027c0.229-0.278,0.558-0.647,0.802-1.08c0.298-0.53,0.541-1.155,0.442-1.799	c-0.131-0.851-0.525-1.193-0.744-1.317c-0.638-0.36-1.955-1.186-2.683-1.603C32.776,37.669,32,37.202,32,37.202	s-0.776,0.466-1.432,0.842c-0.728,0.417-2.045,1.243-2.683,1.603c-0.219,0.124-0.613,0.466-0.744,1.317	c-0.099,0.645,0.144,1.27,0.442,1.799c0.243,0.432,0.573,0.802,0.802,1.08c0.018,0.022,0,0.027-0.02,0.027	c-0.014,0-0.029-0.003-0.029-0.003s-0.46-0.408-0.851-0.957c-0.303-0.425-0.533-0.951-0.728-1.44	c-0.259-0.649-0.343-1.349-0.344-1.906c-0.001-0.588,0.09-1.014,0.09-1.014s0.581-0.278,1.538-0.851	c0.558-0.334,1.032-0.641,1.399-0.883c1.039-0.687,1.734-1.332,2.063-1.74c0.464-0.575,0.497-1.058,0.497-1.058l0.001,0.02V34.02 M32.002,32.02c-0.023,0-0.046,0-0.069,0.001c-0.712,0.024-1.328,0.419-1.663,0.995c-0.121,0.207-0.206,0.439-0.246,0.687	c-0.011,0.023-0.035,0.064-0.078,0.118c-0.169,0.209-0.698,0.725-1.61,1.328c-0.301,0.199-0.765,0.502-1.322,0.835	c-0.85,0.508-1.373,0.762-1.378,0.765c-0.557,0.269-0.961,0.782-1.09,1.387c-0.022,0.106-0.134,0.672-0.134,1.432	c0.001,0.652,0.086,1.641,0.486,2.644c0.231,0.579,0.525,1.252,0.956,1.858c0.508,0.714,1.089,1.237,1.153,1.294	c0.275,0.244,0.613,0.408,0.975,0.473c0.116,0.021,0.263,0.034,0.381,0.034c0.796,0,1.499-0.442,1.835-1.154	c0.33-0.7,0.221-1.546-0.271-2.144l-0.118-0.142c-0.173-0.206-0.368-0.44-0.485-0.648c-0.21-0.373-0.207-0.52-0.207-0.521	c0.001-0.006,0.002-0.013,0.003-0.019c0.322-0.189,0.732-0.437,1.147-0.689c0.472-0.287,0.951-0.578,1.294-0.775	c0.143-0.082,0.292-0.168,0.438-0.253c0.146,0.085,0.294,0.171,0.438,0.253c0.343,0.197,0.822,0.488,1.294,0.775	c0.415,0.252,0.825,0.501,1.147,0.689c0.001,0.008,0.003,0.016,0.004,0.025c0,0,0,0,0,0c-0.001,0-0.002,0.148-0.208,0.515	c-0.117,0.208-0.312,0.442-0.485,0.648l-0.117,0.141c-0.492,0.598-0.602,1.444-0.272,2.144c0.33,0.7,1.061,1.155,1.835,1.155	c0.127,0,0.255-0.011,0.381-0.034c0.362-0.065,0.7-0.228,0.975-0.473c0.064-0.057,0.645-0.579,1.153-1.294	c0.431-0.606,0.725-1.28,0.956-1.859c0.4-1.004,0.485-1.992,0.486-2.644c0.001-0.76-0.111-1.326-0.134-1.432	c-0.129-0.607-0.533-1.12-1.093-1.388c-0.002-0.001-0.525-0.255-1.375-0.763c-0.558-0.334-1.022-0.636-1.322-0.835	c-0.912-0.603-1.441-1.118-1.61-1.328c-0.043-0.054-0.067-0.095-0.078-0.118C33.822,32.741,32.988,32.02,32.002,32.02L32.002,32.02z"/><path fill="#8d6c9f" d="M17.648,32.134l0.537,2.289c-1.406,0.649-2.714,1.373-3.925,2.173c0,0,0.805,2.414,1.121,3.201	c0.428,1.065,1.542,3.387,2.219,4.018c0.677,0.631,1.472,1.098,1.472,1.098l-3.201-0.677c0,0-3.201-6.751-3.481-7.289	c-0.28-0.537-0.639-1.042-1.262-1.682c-0.591-0.607-0.909-0.773-1.047-0.817c0.154,0.027,0.512,0.079,1.006,0.079	c0.309,0,0.67-0.02,1.069-0.079c0.835-0.124,1.705-0.421,2.733-0.841C15.92,33.185,17.648,32.134,17.648,32.134 M10.004,34.431	c0.009,0,0.035,0.002,0.08,0.016C10.029,34.437,10,34.431,10,34.431S10.001,34.431,10.004,34.431 M17.648,30.134	c-0.362,0-0.721,0.098-1.039,0.291c-0.444,0.27-1.755,1.035-2.475,1.33c-1.015,0.415-1.693,0.629-2.269,0.714	c-0.258,0.038-0.519,0.058-0.776,0.058c-0.281,0-0.488-0.023-0.595-0.038c-0.165-0.038-0.329-0.057-0.491-0.057	c-0.068,0-0.14,0.004-0.208,0.011c-0.97,0.099-1.716,0.886-1.781,1.86c-0.059,0.891,0.487,1.705,1.308,2.01	c0.07,0.056,0.192,0.163,0.373,0.349c0.548,0.563,0.767,0.916,0.922,1.212c0.194,0.371,2.217,4.626,3.447,7.22	c0.267,0.564,0.783,0.971,1.393,1.1l3.201,0.677c0.139,0.029,0.278,0.044,0.415,0.044c0.811,0,1.56-0.495,1.864-1.277	c0.355-0.914-0.005-1.95-0.851-2.447c-0.002-0.001-0.623-0.372-1.123-0.838c-0.325-0.346-1.237-2.081-1.726-3.3	c-0.125-0.311-0.352-0.953-0.572-1.591c0.751-0.435,1.539-0.843,2.357-1.22c0.863-0.398,1.327-1.348,1.109-2.273l-0.537-2.289	c-0.146-0.624-0.583-1.139-1.174-1.387C18.174,30.186,17.911,30.134,17.648,30.134L17.648,30.134z"/><path fill="#8d6c9f" d="M32.001,18.534c0,0,0.075,1.104,1.137,2.421c0.752,0.932,2.344,2.409,4.722,3.981	c0.839,0.555,1.923,1.257,3.201,2.022c2.19,1.31,3.519,1.947,3.519,1.947s0.207,0.976,0.206,2.321	c-0.001,1.274-0.194,2.877-0.786,4.362c-0.446,1.118-0.973,2.321-1.666,3.295c-0.895,1.257-1.947,2.19-1.947,2.19	s-0.034,0.006-0.067,0.006c-0.044,0-0.088-0.011-0.045-0.062c0.524-0.636,1.278-1.481,1.834-2.471	c0.682-1.212,1.238-2.642,1.011-4.118c-0.299-1.947-1.201-2.73-1.703-3.014c-1.46-0.824-4.474-2.714-6.14-3.669	C33.776,26.883,32,25.815,32,25.815s-1.776,1.068-3.277,1.928c-1.666,0.955-4.68,2.845-6.14,3.669	c-0.502,0.283-1.404,1.067-1.703,3.014c-0.227,1.476,0.329,2.906,1.011,4.118c0.557,0.99,1.31,1.834,1.834,2.471	c0.042,0.051-0.001,0.062-0.045,0.062c-0.033,0-0.067-0.006-0.067-0.006s-1.052-0.933-1.947-2.19	c-0.693-0.974-1.22-2.176-1.666-3.295c-0.592-1.484-0.785-3.087-0.786-4.362c-0.001-1.345,0.206-2.321,0.206-2.321	s1.329-0.636,3.519-1.947c1.278-0.764,2.362-1.467,3.201-2.022c2.377-1.572,3.969-3.049,4.722-3.981	c1.062-1.316,1.137-2.421,1.137-2.421l0.003,0.045V18.534 M31.997,16.486c-0.021,0-0.042,0-0.063,0.001	c-1.068,0.037-1.915,0.815-1.93,1.877c-0.027,0.137-0.161,0.668-0.698,1.333c-0.625,0.774-2.074,2.118-4.269,3.57	c-0.708,0.469-1.803,1.183-3.125,1.974c-2.068,1.237-3.345,1.854-3.357,1.86c-0.559,0.269-0.963,0.782-1.091,1.388	c-0.026,0.121-0.251,1.227-0.25,2.739c0.001,1.268,0.164,3.182,0.928,5.1c0.472,1.183,1.065,2.549,1.894,3.713	c1.015,1.426,2.199,2.483,2.249,2.527c0.275,0.244,0.613,0.408,0.976,0.473c0.095,0.017,0.245,0.037,0.418,0.037	c0.814,0,1.53-0.446,1.87-1.165c0.33-0.7,0.212-1.571-0.28-2.168l-0.256-0.308c-0.467-0.558-0.995-1.19-1.379-1.872	c-0.641-1.14-0.895-2.066-0.777-2.834c0.196-1.273,0.688-1.564,0.709-1.576c0.776-0.438,1.921-1.133,3.133-1.87	c1.095-0.665,2.228-1.353,3.018-1.806c0.788-0.451,1.64-0.953,2.283-1.335c0.643,0.382,1.495,0.883,2.283,1.335	c0.79,0.453,1.923,1.141,3.018,1.806c1.212,0.736,2.357,1.432,3.133,1.87c0.021,0.012,0.514,0.303,0.709,1.576	c0.118,0.767-0.136,1.694-0.777,2.834c-0.384,0.682-0.913,1.315-1.379,1.872l-0.256,0.308c-0.492,0.597-0.611,1.468-0.28,2.168	c0.339,0.719,1.056,1.165,1.87,1.165c0.174,0,0.323-0.02,0.418-0.037c0.362-0.065,0.7-0.228,0.975-0.473	c0.05-0.044,1.234-1.101,2.249-2.527c0.829-1.165,1.423-2.531,1.894-3.713c0.765-1.918,0.927-3.832,0.928-5.1	c0.002-1.512-0.224-2.618-0.25-2.739c-0.129-0.607-0.533-1.12-1.093-1.388c-0.011-0.005-1.289-0.622-3.356-1.859	c-1.321-0.791-2.416-1.505-3.125-1.974c-2.195-1.452-3.644-2.796-4.269-3.57c-0.612-0.758-0.701-1.342-0.704-1.367l0.006,0.067	l-0.004,0C33.9,17.363,33.032,16.486,31.997,16.486L31.997,16.486z"/><path fill="#efc88e" d="M44.581,28.904c0,0-1.329-0.636-3.519-1.947c-1.278-0.764-2.362-1.467-3.201-2.022 c-2.377-1.572-3.969-3.049-4.722-3.981c-1.062-1.316-1.137-2.42-1.137-2.42v0.045l-0.003-0.045c0,0-0.075,1.104-1.137,2.42 c-0.752,0.932-2.344,2.409-4.722,3.981c-0.839,0.555-1.923,1.257-3.201,2.022c-2.19,1.31-3.519,1.947-3.519,1.947 s-0.207,0.976-0.206,2.321c0.001,1.274,0.194,2.877,0.786,4.362c0.446,1.118,0.973,2.321,1.666,3.295 c0.895,1.257,1.947,2.19,1.947,2.19s0.186,0.033,0.112-0.056c-0.524-0.636-1.278-1.481-1.834-2.471 c-0.682-1.212-1.238-2.642-1.011-4.118c0.3-1.947,1.201-2.73,1.703-3.014c1.46-0.824,4.474-2.714,6.14-3.669 C30.224,26.883,32,25.815,32,25.815s1.776,1.068,3.277,1.928c1.666,0.955,4.68,2.845,6.14,3.669 c0.502,0.283,1.404,1.067,1.703,3.014c0.227,1.476-0.329,2.906-1.011,4.118c-0.557,0.99-1.31,1.834-1.834,2.471 c-0.074,0.089,0.112,0.056,0.112,0.056s1.052-0.933,1.947-2.19c0.693-0.974,1.22-2.176,1.666-3.295 c0.592-1.484,0.785-3.087,0.786-4.362C44.788,29.88,44.581,28.904,44.581,28.904z"/><path fill="#f283a5" d="M40.246,34.495c0,0-0.871-0.417-2.307-1.276c-0.837-0.501-1.548-0.961-2.098-1.325 c-1.558-1.031-2.602-1.999-3.095-2.61c-0.696-0.863-0.745-1.586-0.745-1.586v0.03l-0.002-0.03c0,0-0.049,0.724-0.745,1.586 c-0.493,0.611-1.537,1.579-3.095,2.61c-0.55,0.364-1.261,0.824-2.098,1.325c-1.436,0.859-2.307,1.276-2.307,1.276 s-0.136,0.64-0.135,1.521c0.001,0.835,0.127,1.886,0.515,2.859c0.292,0.733,0.638,1.521,1.092,2.159 c0.586,0.824,1.276,1.436,1.276,1.436s0.122,0.022,0.074-0.037c-0.344-0.417-0.838-0.971-1.202-1.62 c-0.447-0.794-0.811-1.732-0.663-2.699c0.196-1.276,0.787-1.79,1.117-1.975c0.957-0.54,2.932-1.779,4.024-2.405 C30.836,33.171,32,32.471,32,32.471s1.164,0.7,2.148,1.264c1.092,0.626,3.067,1.865,4.024,2.405 c0.329,0.186,0.92,0.699,1.117,1.975c0.149,0.967-0.216,1.905-0.663,2.699c-0.365,0.649-0.859,1.202-1.202,1.62 c-0.048,0.059,0.074,0.037,0.074,0.037s0.69-0.612,1.276-1.436c0.454-0.638,0.8-1.427,1.092-2.159 c0.388-0.973,0.514-2.024,0.515-2.859C40.382,35.135,40.246,34.495,40.246,34.495z"/><path fill="#7bbeeb" d="M37.497,38.552c0,0-0.581-0.278-1.538-0.851c-0.558-0.334-1.032-0.641-1.399-0.883 c-1.039-0.687-1.734-1.332-2.063-1.74c-0.464-0.575-0.497-1.058-0.497-1.058v0.02l-0.001-0.02c0,0-0.033,0.483-0.497,1.058 c-0.329,0.407-1.024,1.053-2.063,1.74c-0.367,0.243-0.84,0.549-1.399,0.883c-0.957,0.573-1.538,0.851-1.538,0.851 s-0.091,0.427-0.09,1.014c0.001,0.557,0.085,1.257,0.344,1.906c0.195,0.489,0.425,1.014,0.728,1.44 c0.391,0.549,0.851,0.957,0.851,0.957s0.081,0.015,0.049-0.025c-0.229-0.278-0.558-0.647-0.802-1.08 c-0.298-0.53-0.541-1.155-0.442-1.8c0.131-0.851,0.525-1.193,0.744-1.317c0.638-0.36,1.955-1.186,2.683-1.603 C31.224,37.669,32,37.202,32,37.202s0.776,0.466,1.432,0.842c0.728,0.417,2.045,1.243,2.683,1.603 c0.219,0.124,0.613,0.466,0.744,1.317c0.099,0.645-0.144,1.27-0.442,1.8c-0.243,0.432-0.573,0.802-0.802,1.08 c-0.032,0.039,0.049,0.025,0.049,0.025s0.46-0.408,0.851-0.957c0.303-0.425,0.533-0.951,0.728-1.44 c0.259-0.649,0.343-1.349,0.344-1.906C37.588,38.978,37.497,38.552,37.497,38.552z"/><path fill="#ed7899" d="M18.186,34.423l-0.537-2.289c0,0-1.729,1.051-2.757,1.472s-1.898,0.718-2.733,0.841 C10.895,34.634,10,34.431,10,34.431s0.29-0.031,1.131,0.834c0.622,0.64,0.981,1.145,1.262,1.682 c0.28,0.537,3.481,7.289,3.481,7.289l3.201,0.677c0,0-0.794-0.467-1.472-1.098c-0.677-0.631-1.791-2.953-2.219-4.018 c-0.316-0.787-1.121-3.201-1.121-3.201C15.472,35.797,16.779,35.072,18.186,34.423z"/><path fill="#7bbeeb" d="M18.959,36.602c0,0-0.245,0.117-0.351,0.161c-0.571,0.234-1.055,0.393-1.518,0.467 c-0.649,0.104-1.285-0.075-1.285-0.075s0.246,0.049,0.714,0.529c0.346,0.355,0.545,0.636,0.701,0.934 c0.156,0.298,1.934,4.049,1.934,4.049l2.116,0.446c0,0-0.558-0.537-0.934-0.888c-0.376-0.35-0.964-1.785-1.285-2.336 c-0.327-0.561-0.701-1.518-0.701-1.518c0.438-0.289,1.374-0.726,1.374-0.726L18.959,36.602z"/><path fill="#ed7899" d="M45.814,34.423l0.537-2.289c0,0,1.729,1.051,2.757,1.472c1.028,0.421,1.898,0.718,2.733,0.841 C53.105,34.634,54,34.431,54,34.431s-0.29-0.031-1.131,0.834c-0.622,0.64-0.981,1.145-1.262,1.682 c-0.28,0.537-3.481,7.289-3.481,7.289l-3.201,0.677c0,0,0.794-0.467,1.472-1.098c0.677-0.631,1.791-2.953,2.219-4.018 c0.316-0.787,1.121-3.201,1.121-3.201C48.528,35.797,47.221,35.072,45.814,34.423z"/><path fill="#7bbeeb" d="M45.041,36.602c0,0,0.245,0.117,0.351,0.161c0.571,0.234,1.055,0.393,1.518,0.467 c0.649,0.104,1.285-0.075,1.285-0.075s-0.246,0.049-0.714,0.529c-0.346,0.355-0.545,0.636-0.701,0.934 c-0.156,0.298-1.934,4.049-1.934,4.049l-2.116,0.446c0,0,0.558-0.537,0.934-0.888c0.376-0.35,0.964-1.785,1.285-2.336 c0.327-0.561,0.701-1.518,0.701-1.518c-0.438-0.289-1.374-0.726-1.374-0.726L45.041,36.602z"/></svg>