<svg xmlns="http://www.w3.org/2000/svg"  viewBox="0 0 64 64" width="64px" height="64px"><path fill="#f7a1c8" d="M32,14h-2c-9.941,0-18,8.059-18,18v22c0,1.105,0.895,2,2,2h30V26C44,19.373,38.627,14,32,14z"/><path fill="#f283a5" d="M47,31h-3v25h7c1.105,0,2-0.895,2-2V37C53,33.686,50.314,31,47,31z"/><path fill="#8d6c9f" d="M14.292,17.176c-0.252,0-0.504-0.095-0.699-0.285l-1.43-1.397 c-0.395-0.386-0.402-1.019-0.017-1.414c0.386-0.394,1.02-0.401,1.414-0.016l1.43,1.397c0.395,0.386,0.402,1.019,0.017,1.414 C14.811,17.075,14.551,17.176,14.292,17.176z"/><path fill="#8d6c9f" d="M17.982,14.083c-0.32,0-0.634-0.153-0.828-0.438l-1.125-1.653c-0.311-0.456-0.192-1.078,0.264-1.39 c0.458-0.311,1.079-0.191,1.389,0.265l1.125,1.653c0.311,0.456,0.192,1.078-0.264,1.39C18.372,14.027,18.176,14.083,17.982,14.083 z"/><path fill="#8d6c9f" d="M22.215,11.798c-0.392,0-0.764-0.231-0.924-0.616l-0.768-1.847c-0.212-0.51,0.029-1.096,0.54-1.308 c0.512-0.21,1.095,0.03,1.307,0.54l0.768,1.847c0.212,0.51-0.029,1.096-0.54,1.308C22.473,11.773,22.343,11.798,22.215,11.798z"/><path fill="#8d6c9f" d="M26.816,10.41c-0.471,0-0.891-0.334-0.981-0.813l-0.373-1.965 c-0.103-0.543,0.253-1.066,0.796-1.169c0.544-0.101,1.066,0.254,1.169,0.796L27.8,9.224c0.103,0.543-0.253,1.066-0.796,1.169 C26.941,10.404,26.878,10.41,26.816,10.41z"/><path fill="#8d6c9f" d="M31.604,10.021c-0.008,0-0.016,0-0.024,0c-0.552-0.013-0.989-0.471-0.976-1.023l0.046-1.999 c0.012-0.553,0.435-1.008,1.023-0.977c0.552,0.013,0.989,0.471,0.976,1.023l-0.046,1.999 C32.591,9.589,32.146,10.021,31.604,10.021z"/><path fill="#8d6c9f" d="M36.278,10.768c-0.097,0-0.196-0.014-0.294-0.044c-0.528-0.162-0.825-0.722-0.663-1.249 l0.586-1.912c0.162-0.528,0.722-0.825,1.249-0.663c0.528,0.162,0.825,0.722,0.663,1.249l-0.586,1.912 C37.102,10.491,36.706,10.768,36.278,10.768z"/><path fill="#8d6c9f" d="M40.565,12.771c-0.185,0-0.372-0.051-0.539-0.158c-0.465-0.298-0.6-0.917-0.302-1.382l1.08-1.684 c0.298-0.466,0.917-0.601,1.382-0.302c0.465,0.298,0.6,0.917,0.302,1.382l-1.08,1.684C41.217,12.609,40.895,12.771,40.565,12.771z"/><path fill="#8d6c9f" d="M44.178,15.84c-0.273,0-0.545-0.111-0.743-0.33c-0.37-0.41-0.337-1.042,0.073-1.412l1.485-1.34 c0.411-0.37,1.043-0.337,1.413,0.072c0.37,0.41,0.337,1.042-0.073,1.412l-1.485,1.34C44.656,15.755,44.417,15.84,44.178,15.84z"/><path fill="#8d6c9f" d="M46.872,19.744c-0.364,0-0.715-0.199-0.892-0.546c-0.25-0.492-0.055-1.095,0.437-1.345l1.782-0.908 c0.493-0.252,1.094-0.056,1.345,0.437c0.25,0.492,0.055,1.095-0.437,1.345l-1.782,0.908C47.18,19.709,47.024,19.744,46.872,19.744 z"/><path fill="#8d6c9f" d="M48.456,24.217c-0.463,0-0.878-0.323-0.978-0.794c-0.114-0.54,0.232-1.07,0.772-1.185l1.957-0.412 c0.538-0.115,1.071,0.232,1.185,0.772s-0.232,1.07-0.772,1.185l-1.957,0.412C48.594,24.21,48.524,24.217,48.456,24.217z"/><path fill="#f283a5" d="M44,56H12v-4c0-1.657,1.343-3,3-3h26c1.657,0,3,1.343,3,3V56z"/><path fill="#ed7899" d="M53,56h-9v-4c0-1.657,1.343-3,3-3h3c1.657,0,3,1.343,3,3V56z"/><path fill="#8d6c9f" d="M44,57H14c-1.654,0-3-1.346-3-3V32c0-10.477,8.523-19,19-19h2c7.168,0,13,5.832,13,13v30	C45,56.553,44.552,57,44,57z M30,15c-9.374,0-17,7.626-17,17v22c0,0.552,0.449,1,1,1h29V26c0-6.065-4.935-11-11-11H30z"/><path fill="#8d6c9f" d="M51,57h-7c-0.552,0-1-0.447-1-1V31c0-0.553,0.448-1,1-1h3c3.86,0,7,3.141,7,7v17	C54,55.654,52.654,57,51,57z M45,55h6c0.551,0,1-0.448,1-1V37c0-2.757-2.243-5-5-5h-2V55z"/><path fill="#c5e4fa" d="M34,31c0,4.42-3.58,8-8,8H15c-0.21,0-0.41-0.01-0.61-0.03h-0.01c-1.2-0.12-2.29-0.6-3.17-1.32	c-0.15-0.13-0.31-0.26-0.45-0.41c-0.4-0.4-0.75-0.86-1.03-1.36C9.27,35.03,9,34.05,9,33c0-5.52,4.48-10,10-10h7	c1.27,0,2.47,0.3,3.53,0.82c0.79,0.39,1.51,0.91,2.13,1.52c0.26,0.26,0.5,0.54,0.73,0.84c0.55,0.73,0.98,1.56,1.25,2.45	C33.87,29.38,34,30.17,34,31z"/><g><path fill="#e3f2ff" d="M34,31c0,4.42-3.58,8-8,8h-2.73l10.37-10.37C33.87,29.38,34,30.17,34,31z"/><path fill="#e3f2ff" d="M32.39,26.18L19.57,39H15c-0.21,0-0.41-0.01-0.61-0.03l15.14-15.15c0.79,0.39,1.51,0.91,2.13,1.52 C31.92,25.6,32.16,25.88,32.39,26.18z"/><path fill="#e3f2ff" d="M25.86,23L11.21,37.65c-0.15-0.13-0.31-0.26-0.45-0.41c-0.4-0.4-0.75-0.86-1.03-1.36L22.61,23H25.86 z"/></g><path fill="#8d6c9f" d="M26,40H15c-3.86,0-7-3.141-7-7c0-6.065,4.935-11,11-11h7c4.962,0,9,4.037,9,9S30.962,40,26,40z M19,24c-4.962,0-9,4.037-9,9c0,2.757,2.243,5,5,5h11c3.86,0,7-3.141,7-7s-3.14-7-7-7H19z"/><polygon fill="#fff8f8" points="22.5,27 23.027,27.973 24,28.5 23.027,29.033 22.5,30 21.967,29.033 21,28.5 21.967,27.973"/><polygon fill="#fff8f8" points="25.5,30 26.378,31.622 28,32.5 26.378,33.388 25.5,35 24.612,33.388 23,32.5 24.612,31.622"/><path fill="#8d6c9f" d="M38,47c-0.552,0-1,0.448-1,1v2c0,0.552,0.448,1,1,1s1-0.448,1-1v-2C39,47.448,38.552,47,38,47z M33,47c-0.552,0-1,0.448-1,1v2c0,0.552,0.448,1,1,1s1-0.448,1-1v-2C34,47.448,33.552,47,33,47z M28,47c-0.552,0-1,0.448-1,1v2	c0,0.552,0.448,1,1,1s1-0.448,1-1v-2C29,47.448,28.552,47,28,47z M23,47c-0.552,0-1,0.448-1,1v2c0,0.552,0.448,1,1,1s1-0.448,1-1v-2	C24,47.448,23.552,47,23,47z M18,51c0.552,0,1-0.448,1-1v-2c0-0.552-0.448-1-1-1s-1,0.448-1,1v2C17,50.552,17.448,51,18,51z"/></svg>