<svg xmlns="http://www.w3.org/2000/svg"  viewBox="0 0 64 64" width="64px" height="64px"><path fill="#f6d397" d="M25,26c3-3,6-5,10-5s5,6,5,13c0,9-9,15-16,15S8,45,8,28c0-16,2-17,2-17l14-8c0,0,16-1,22,7 s10,15,10,27s-4,18-4,18s-7.479,3-11,6c-9,0-12-1-17-4c0,0,21-6,21-27c0,0-1-16-13-16S20,27,20,29c0,3,3,9,7,9s5-8,5-10S25,26,25,26 z"/><path fill="#ffeb9b" d="M24,7c0,0-10,6-11,7s-1,9-1,13s2,13,4,15s7.881,4.52,11,4c6-1,13-8,13-12c0,0,1-13-5-13s-9,5-9,5 s6-1,6,2s1,13-5,13c-4,0-8-9-8-12s0-10,1-12s6-6,13-6s15,15,15,21c0,8-9,23-14,24c3,0,6,0,6,0s6-5,10-6c0,0,3-10,2-17s-3-18-10-22 S27,7,24,7z"/><path fill="none" stroke="#8d6c9f" stroke-linecap="round" stroke-linejoin="round" stroke-miterlimit="10" stroke-width="2" d="M15.384 40c.475.721 1.011 1.395 1.616 2M12 27c0 2.365.35 5.778 1.462 9"/><path fill="none" stroke="#8d6c9f" stroke-linecap="round" stroke-linejoin="round" stroke-miterlimit="10" stroke-width="2" d="M25,26 c3-3,6-5,10-5s5,6,5,13c0,9-9,15-16,15S8,45,8,28c0-16,2-17,2-17l14-8c0,0,16-1,22,7s10,15,10,27s-4,18-4,18s-7.479,3-11,6 c-9,0-12-1-17-4c0,0,21-6,21-27c0,0-1-16-13-16S20,27,20,29c0,3,3,9,7,9s5-8,5-10S25,26,25,26z"/><path fill="#8d6c9f" d="M47.463 47.469c-.466.297-.603.915-.307 1.381l1.074 1.687c.297.466.915.603 1.381.307s.603-.915.307-1.381l-1.074-1.687C48.547 47.31 47.929 47.172 47.463 47.469zM43.463 50.156c-.466.297-.603.915-.307 1.381l1.074 1.687c.297.466.915.603 1.381.307.466-.297.603-.915.307-1.381l-1.074-1.687C44.547 49.997 43.929 49.86 43.463 50.156zM39.463 53.156c-.466.297-.603.915-.307 1.381l1.074 1.687c.297.466.915.603 1.381.307.466-.297.603-.915.307-1.381l-1.074-1.687C40.547 52.997 39.929 52.86 39.463 53.156zM12.463 13.156c-.466.297-.603.915-.307 1.381l1.074 1.687c.297.466.915.603 1.381.307.466-.297.603-.915.307-1.381l-1.074-1.687C13.547 12.997 12.929 12.86 12.463 13.156zM16.389 10.469c-.466.297-.603.915-.307 1.381l1.074 1.687c.297.466.915.603 1.381.307.466-.297.603-.915.307-1.381l-1.074-1.687C17.473 10.31 16.855 10.172 16.389 10.469zM20.389 8.156c-.466.297-.603.915-.307 1.381l1.074 1.687c.297.466.915.603 1.381.307.466-.297.603-.915.307-1.381L21.77 8.463C21.473 7.997 20.855 7.86 20.389 8.156zM24.463 5.469c-.466.297-.603.915-.307 1.381l1.074 1.687c.297.466.915.603 1.381.307.466-.297.603-.915.307-1.381l-1.074-1.687C25.547 5.31 24.929 5.172 24.463 5.469z"/><path fill="none" stroke="#8d6c9f" stroke-linecap="round" stroke-linejoin="round" stroke-miterlimit="10" stroke-width="2" d="M52 33c-.415-2.906-2-8-3-10M51.729 42c.19-1.289.343-2.646.42-4"/></svg>