<svg xmlns="http://www.w3.org/2000/svg"  viewBox="0 0 64 64" width="64px" height="64px" fill-rule="evenodd" clip-rule="evenodd"><path fill="#f283a5" d="M43.87,7H36c-1.105,0-2,0.895-2,2v46c0,1.105,0.895,2,2,2h7.87c6.593,0,11.104-4.898,11.104-11.842	L55,18C55,10,51.782,7,43.87,7z"/><path fill="#fff8ee" d="M19.118,7H27c1.105,0,2,0.895,2,2v46c0,1.105-0.895,2-2,2h-7.882C12.517,57,8,52.944,8,46V18	C8,10,11.196,7,19.118,7z"/><path fill="#ed7899" d="M47,56H34.529C34.237,56,34,55.763,34,55.471v-2.942C34,52.237,34.237,52,34.529,52h11.82	C47.813,52,49,53.187,49,54.651v0.41C49,55.58,47.519,56,47,56z"/><path fill="#faefde" d="M14.939,56h13.532C28.763,56,29,55.763,29,55.471v-2.942C29,52.237,28.763,52,28.471,52h-11.82	C15.187,52,14,53.187,14,54.651v0.41C14,55.58,14.42,56,14.939,56z"/><path fill="#8d6c9f" d="M43.87,58H36c-1.654,0-3-1.346-3-3V9c0-1.654,1.346-3,3-3h7.87C52.372,6,56,9.589,56,18	l-0.025,27.159C55.975,52.719,50.997,58,43.87,58z M36,8c-0.552,0-1,0.449-1,1v46c0,0.551,0.448,1,1,1h7.87	c6.044,0,10.104-4.357,10.104-10.842L54,17.999C54,10.617,51.35,8,43.87,8H36z"/><path fill="#8d6c9f" d="M27,58h-7.883C11.756,58,7,53.29,7,46V18C7,9.477,10.511,6,19.117,6H27c1.654,0,3,1.346,3,3v46	C30,56.654,28.654,58,27,58z M19.117,8C11.647,8,9,10.617,9,18v28c0,6.168,3.877,10,10.117,10H27c0.552,0,1-0.449,1-1V9	c0-0.551-0.448-1-1-1H19.117z"/><circle cx="18.5" cy="17.5" r="4.5" fill="#fff8ee" fill-rule="evenodd" clip-rule="evenodd"/><path fill="#8d6c9f" d="M18.5,23c-3.032,0-5.5-2.467-5.5-5.5s2.468-5.5,5.5-5.5s5.5,2.467,5.5,5.5S21.532,23,18.5,23z M18.5,14c-1.93,0-3.5,1.57-3.5,3.5s1.57,3.5,3.5,3.5s3.5-1.57,3.5-3.5S20.43,14,18.5,14z"/><path fill="#8d6c9f" d="M12,48c-0.553,0-1-0.448-1-1V33c0-0.552,0.447-1,1-1s1,0.448,1,1v14C13,47.552,12.553,48,12,48z"/><path fill="#8d6c9f" d="M12,30c-0.553,0-1-0.448-1-1v-2c0-0.552,0.447-1,1-1s1,0.448,1,1v2C13,29.552,12.553,30,12,30z"/><circle cx="44.5" cy="37.5" r="4.5" fill="#fff8ee" fill-rule="evenodd" clip-rule="evenodd"/><path fill="#8d6c9f" d="M44.5,43c-3.032,0-5.5-2.467-5.5-5.5s2.468-5.5,5.5-5.5s5.5,2.467,5.5,5.5S47.532,43,44.5,43z M44.5,34c-1.93,0-3.5,1.57-3.5,3.5s1.57,3.5,3.5,3.5s3.5-1.57,3.5-3.5S46.43,34,44.5,34z"/><path fill="#8d6c9f" d="M51,13c0-0.552-0.448-1-1-1h-2c-0.552,0-1,0.448-1,1s0.448,1,1,1h2C50.552,14,51,13.552,51,13z"/><path fill="#8d6c9f" d="M51,18c0-0.552-0.448-1-1-1h-2c-0.552,0-1,0.448-1,1s0.448,1,1,1h2C50.552,19,51,18.552,51,18z"/><path fill="#8d6c9f" d="M51,23c0-0.552-0.448-1-1-1h-2c-0.552,0-1,0.448-1,1s0.448,1,1,1h2C50.552,24,51,23.552,51,23z"/><path fill="#8d6c9f" d="M51,28c0-0.552-0.448-1-1-1h-2c-0.552,0-1,0.448-1,1s0.448,1,1,1h2C50.552,29,51,28.552,51,28z"/></svg>