<svg xmlns="http://www.w3.org/2000/svg"  viewBox="0 0 64 64" width="64px" height="64px"><path fill="#6e91ce" d="M7,13v38c0,3.31,2.69,6,6,6h38c3.31,0,6-2.69,6-6V13c0-3.31-2.69-6-6-6H13C9.69,7,7,9.69,7,13z"/><path fill="#ace3ff" d="M49,57c5-3,3.5-6.5,3-7l-6-1c3,1,1,6-7,8H49z"/><path fill="#ace3ff" d="M57,42.18V51c0,0.06,0,0.12-0.01,0.18C49.52,49.15,41.02,48,32,48s-17.52,1.15-24.99,3.18	C7,51.12,7,51.06,7,51v-8.82C14.47,40.15,22.98,39,32,39S49.53,40.15,57,42.18z"/><path fill="#7bbeeb" d="M57,26.18v16C49.53,40.15,41.02,39,32,39s-17.53,1.15-25,3.18v-16C14.47,24.15,22.98,23,32,23	S49.53,24.15,57,26.18z"/><path fill="#fff8ee" d="M52,32c0,4.64-1.58,8.91-4.24,12.3C44.11,48.99,38.41,52,32,52s-12.11-3.01-15.76-7.7	C13.58,40.91,12,36.64,12,32s1.58-8.91,4.24-12.3C19.89,15.01,25.59,12,32,12s12.11,3.01,15.76,7.7C50.42,23.09,52,27.36,52,32z"/><path fill="#ed7899" d="M52,32H12c0-11.05,8.95-20,20-20S52,20.95,52,32z"/><path fill="#8d6c9f" d="M51,58H13c-3.859,0-7-3.141-7-7V13c0-3.859,3.141-7,7-7h38c3.859,0,7,3.141,7,7v38	C58,54.859,54.859,58,51,58z M13,8c-2.757,0-5,2.243-5,5v38c0,2.757,2.243,5,5,5h38c2.757,0,5-2.243,5-5V13c0-2.757-2.243-5-5-5H13z"/><path fill="#f283a5" d="M47.76,19.7C47,20.44,46,20.81,45,20.81c-0.92,0-1.85-0.32-2.6-0.96C39.5,17.37,35.81,16,32,16	s-7.5,1.37-10.4,3.85c-1.58,1.34-3.9,1.26-5.36-0.15C19.89,15.01,25.59,12,32,12S44.11,15.01,47.76,19.7z"/><path fill="#faefde" d="M47.76,44.3C44.11,48.99,38.41,52,32,52s-12.11-3.01-15.76-7.7c1.46-1.41,3.78-1.49,5.36-0.15	C24.5,46.63,28.19,48,32,48s7.5-1.37,10.4-3.85C43.98,42.8,46.3,42.89,47.76,44.3z"/><path fill="#8d6c9f" d="M32,53c-11.579,0-21-9.421-21-21s9.421-21,21-21s21,9.421,21,21S43.579,53,32,53z M32,13	c-10.477,0-19,8.523-19,19s8.523,19,19,19s19-8.523,19-19S42.477,13,32,13z"/><path fill="#8d6c9f" d="M56.991,52.22c-0.091,0-0.183-0.012-0.274-0.038c-4.233-1.202-8.834-2.072-13.672-2.588	c-0.55-0.059-0.947-0.551-0.889-1.1c0.059-0.55,0.556-0.948,1.1-0.889c4.951,0.527,9.664,1.42,14.008,2.652	c0.531,0.15,0.84,0.704,0.688,1.235C57.827,51.933,57.427,52.22,56.991,52.22z"/><path fill="#8d6c9f" d="M7.009,52.22c-0.436,0-0.836-0.287-0.961-0.727c-0.151-0.531,0.157-1.085,0.688-1.235	c4.344-1.232,9.057-2.125,14.008-2.652c0.544-0.062,1.041,0.34,1.1,0.889s-0.339,1.041-0.889,1.1	c-4.838,0.516-9.438,1.386-13.672,2.588C7.191,52.208,7.1,52.22,7.009,52.22z"/><circle cx="32" cy="32" r="5" fill="#faefde"/><path fill="#8d6c9f" d="M32,38c-3.309,0-6-2.691-6-6s2.691-6,6-6s6,2.691,6,6S35.309,38,32,38z M32,28c-2.206,0-4,1.794-4,4	s1.794,4,4,4s4-1.794,4-4S34.206,28,32,28z"/><path fill="#8d6c9f" d="M22.385,34c-0.553,0-1-0.447-1-1v-2c0-0.553,0.447-1,1-1s1,0.447,1,1v2 C23.385,33.553,22.938,34,22.385,34z"/><path fill="#8d6c9f" d="M16.615,34c-0.553,0-1-0.447-1-1v-2c0-0.553,0.447-1,1-1s1,0.447,1,1v2 C17.615,33.553,17.168,34,16.615,34z"/><path fill="#8d6c9f" d="M47.385,34c-0.553,0-1-0.447-1-1v-2c0-0.553,0.447-1,1-1s1,0.447,1,1v2 C48.385,33.553,47.938,34,47.385,34z"/><path fill="#8d6c9f" d="M41.615,34c-0.553,0-1-0.447-1-1v-2c0-0.553,0.447-1,1-1s1,0.447,1,1v2 C42.615,33.553,42.168,34,41.615,34z"/><path fill="#8d6c9f" d="M38.999,58c-0.448,0-0.855-0.303-0.969-0.758c-0.135-0.535,0.191-1.078,0.728-1.212	c5.128-1.282,7.511-3.851,7.565-5.265c0.011-0.277-0.053-0.621-0.64-0.817c-0.523-0.174-0.807-0.74-0.632-1.265	c0.175-0.523,0.735-0.809,1.265-0.632c1.306,0.435,2.056,1.479,2.006,2.791c-0.091,2.362-2.971,5.601-9.08,7.127	C39.161,57.99,39.079,58,38.999,58z"/><path fill="#8d6c9f" d="M49.001,58c-0.34,0-0.671-0.173-0.858-0.485c-0.284-0.474-0.131-1.088,0.343-1.372	c1.773-1.063,2.834-2.311,3.068-3.605c0.182-1.004-0.182-1.727-0.28-1.852c-0.391-0.391-0.381-1.013,0.01-1.403	c0.391-0.39,1.033-0.38,1.424,0.011c0.453,0.453,1.056,1.709,0.858,3.313c-0.171,1.39-1.013,3.429-4.051,5.252	C49.354,57.954,49.176,58,49.001,58z"/></svg>