<svg xmlns="http://www.w3.org/2000/svg"  viewBox="0 0 64 64" width="64px" height="64px"><circle cx="32" cy="32" r="28" fill="#6e91ce"/><path fill="#faefde" d="M49.298,28.7c-2.174-6.692-9.569-10.327-16.261-8.153c-2.586,0.84-4.76,2.213-6.279,4.233 c1.116-4.764,5.423-8.098,10.527-8.098c0.501,0,1.059,0.007,1.643,0.032c1.126,0.048,1.451-1.542,0.385-1.907 C37.792,14.285,36.171,14,34.598,14c-7.036,0-12.993,5.446-12.993,12.482c0,2.719,0.762,5.049,2.213,7.118 c-4.185-2.534-6.153-7.499-4.576-12.353c0.157-0.484,0.352-1.015,0.578-1.562c0.427-1.031-0.915-1.874-1.646-1.031 c-1.171,1.35-2.123,2.897-2.637,4.481c-2.174,6.692,1.488,13.879,8.179,16.053c2.586,0.84,5.526,1.033,7.942,0.292 c-3.703,3.197-9.521,3.338-13.65,0.338c-0.454-0.33-0.958-0.713-1.467-1.134c-0.858-0.708-2.044,0.333-1.458,1.279 c0.961,1.552,2.192,2.956,3.576,3.962c5.692,4.136,13.659,2.874,17.795-2.818c1.598-2.199,2.023-4.979,2.065-7.505 c1.897,4.51,0.899,10.13-3.23,13.13c-0.204,0.148-0.422,0.295-0.652,0.439c-0.93,0.583-0.387,1.991,0.694,1.802 c1.518-0.266,2.933-0.755,4.167-1.651c5.692-4.136,6.851-12.042,2.715-17.734c-1.598-2.2-4.246-3.985-6.636-4.806 c4.876-0.411,10.048,2.797,11.625,7.651c0.248,0.763,0.537,1.66,0.776,2.585c0.273,1.056,1.799,0.935,1.926-0.148 C50.149,32.79,49.914,30.597,49.298,28.7z"/><path fill="#8d6c9f" d="M32,57.029c-0.553,0-1-0.447-1-1v-2c0-0.553,0.447-1,1-1s1,0.447,1,1v2 C33,56.582,32.553,57.029,32,57.029z"/><path fill="#8d6c9f" d="M37.86,56.291c-0.088,0.023-0.176,0.034-0.265,0.034c-0.44-0.004-0.84-0.299-0.957-0.746 l-0.508-1.935c-0.141-0.535,0.179-1.08,0.713-1.221c0.531-0.137,1.081,0.178,1.221,0.713l0.508,1.933 C38.714,55.603,38.395,56.149,37.86,56.291z M27.44,55.534c-0.122,0.448-0.531,0.741-0.973,0.737 c-0.086-0.001-0.171-0.014-0.256-0.036c-0.533-0.146-0.847-0.695-0.7-1.228l0.528-1.93c0.146-0.534,0.704-0.843,1.228-0.7 c0.533,0.146,0.846,0.696,0.7,1.228L27.44,55.534z"/><path fill="#8d6c9f" d="M20.743,54.042c-0.483-0.27-0.655-0.878-0.385-1.361l0.976-1.746 c0.27-0.483,0.878-0.655,1.361-0.385c0.483,0.27,0.655,0.878,0.385,1.361l-0.976,1.746 C21.834,54.139,21.225,54.311,20.743,54.042z"/><path fill="#8d6c9f" d="M43.31,54.042c0.483-0.27,0.655-0.878,0.385-1.361l-0.976-1.746 c-0.27-0.483-0.878-0.655-1.361-0.385s-0.655,0.878-0.385,1.361l0.976,1.746C42.218,54.139,42.827,54.311,43.31,54.042z"/><path fill="#8d6c9f" d="M32,61C16.01,61,3,47.99,3,32S16.01,3,32,3s29,13.01,29,29S47.99,61,32,61z M32,5 C17.112,5,5,17.112,5,32s12.112,27,27,27s27-12.112,27-27S46.888,5,32,5z"/><path fill="#8d6c9f" d="M34.598,14c1.573,0,3.194,0.285,4.715,0.806c1.05,0.36,0.75,1.908-0.336,1.908 c-0.016,0-0.033,0-0.049-0.001c-0.584-0.025-1.142-0.032-1.643-0.032c-5.104,0-9.411,3.335-10.527,8.098 c1.519-2.02,3.693-3.393,6.279-4.233c1.314-0.427,2.653-0.63,3.976-0.63c5.417,0,10.537,3.404,12.285,8.782 c0.617,1.897,0.851,4.09,0.607,6.168c-0.067,0.575-0.53,0.879-0.989,0.879c-0.406,0-0.809-0.236-0.937-0.731 c-0.239-0.925-0.528-1.822-0.776-2.585c-1.486-4.575-6.165-7.687-10.78-7.687c-0.282,0-0.564,0.012-0.845,0.035 c2.39,0.82,5.038,2.606,6.636,4.806c4.136,5.692,2.977,13.599-2.716,17.734c-1.234,0.897-2.649,1.386-4.167,1.651 c-0.067,0.012-0.132,0.017-0.195,0.017c-0.948,0-1.371-1.272-0.499-1.819c0.23-0.144,0.448-0.291,0.652-0.439 c4.129-3,5.126-8.62,3.23-13.13c-0.042,2.526-0.467,5.306-2.065,7.505c-2.493,3.431-6.377,5.253-10.317,5.253 c-2.596,0-5.217-0.791-7.478-2.434c-1.384-1.005-2.615-2.409-3.576-3.962c-0.451-0.728,0.148-1.512,0.838-1.512 c0.207,0,0.422,0.07,0.62,0.233c0.51,0.42,1.013,0.804,1.467,1.134c1.985,1.442,4.36,2.158,6.703,2.158 c2.531,0,5.025-0.836,6.948-2.497c-1.025,0.314-2.145,0.461-3.292,0.461c-1.556,0-3.162-0.269-4.65-0.753 c-6.692-2.174-10.354-9.361-8.18-16.053c0.515-1.584,1.466-3.131,2.637-4.481c0.209-0.241,0.469-0.344,0.722-0.344 c0.632,0,1.228,0.64,0.923,1.375c-0.226,0.547-0.421,1.079-0.578,1.562c-1.577,4.854,0.391,9.819,4.576,12.353 c-1.451-2.069-2.213-4.399-2.213-7.118C21.605,19.445,27.562,14,34.598,14 M34.598,12c-5.364,0-10.078,2.734-12.729,6.836 c-0.065-0.414-0.22-0.815-0.464-1.18c-0.555-0.831-1.516-1.347-2.508-1.347c-0.862,0-1.655,0.367-2.233,1.034 c-1.41,1.625-2.457,3.414-3.029,5.174c-1.217,3.745-0.902,7.739,0.885,11.247c0.498,0.978,1.094,1.885,1.776,2.712 c-0.124-0.016-0.249-0.024-0.375-0.024c-1.083,0-2.087,0.595-2.621,1.554c-0.529,0.949-0.498,2.074,0.082,3.011 c1.139,1.84,2.557,3.405,4.1,4.527c2.536,1.842,5.528,2.816,8.653,2.816c2.167,0,4.283-0.481,6.204-1.372 c-0.211,0.575-0.241,1.215-0.061,1.841c0.372,1.292,1.52,2.161,2.857,2.161c0.179,0,0.361-0.016,0.54-0.047 c1.986-0.347,3.621-1.003,4.998-2.003c3.183-2.313,5.259-5.723,5.845-9.603c0.131-0.866,0.184-1.733,0.162-2.594 c0.546,0.629,1.344,1.006,2.235,1.006c1.544,0,2.796-1.113,2.976-2.646c0.272-2.318,0.026-4.81-0.692-7.019 c-1.615-4.971-5.722-8.609-10.725-9.77c0.748-0.436,1.295-1.192,1.447-2.106c0.243-1.459-0.563-2.813-1.96-3.292 C38.217,12.316,36.362,12,34.598,12L34.598,12z"/><path fill="#8d6c9f" d="M42.999,12c-0.184,0-0.369-0.051-0.535-0.156c-0.925-0.588-1.885-1.094-2.854-1.504 c-0.509-0.216-0.746-0.802-0.531-1.311c0.216-0.511,0.807-0.744,1.311-0.531c1.07,0.453,2.129,1.011,3.146,1.658 c0.467,0.296,0.604,0.914,0.308,1.38C43.653,11.836,43.33,12,42.999,12z"/><path fill="#8d6c9f" d="M21.002,12c-0.331,0-0.655-0.164-0.846-0.465c-0.296-0.466-0.158-1.083,0.307-1.379 c0.29-0.185,7.206-4.498,15.719-2.925c0.543,0.101,0.902,0.622,0.802,1.165s-0.626,0.901-1.165,0.802 c-7.723-1.428-14.218,2.605-14.282,2.646C21.37,11.949,21.185,12,21.002,12z"/></svg>