<svg xmlns="http://www.w3.org/2000/svg"  viewBox="0 0 64 64" width="64px" height="64px"><path fill="#ace3ff" d="M7.924,18.634c0.02,0.329,0.09,1.571,0.12,1.928c0.771,9.339,4.913,27.847,24.983,37.248 c0,0,0.138,0.074,0.394,0.19c0.193-0.094,0.394-0.19,0.394-0.19c27.531-12.896,25.09-42.924,25.09-42.924 C52.354,10.577,43.496,9.077,33.816,9h-0.789c-5.094,0.041-9.96,0.475-14.381,1.505L7.924,18.634z"/><path fill="#8d6c9f" d="M18.593,34.68c-3.558-0.593-6.378-1.353-8.289-2.856c0.795,2.282,1.759,4.483,2.914,6.581 c0.436-0.375,1.229-0.537,1.973-0.537c11.587,0.425,23.812,6.697,26.045,12.225c0.228,0.626,0.383,1.436,0.211,2.232h1.064 C43.361,46.374,31.242,36.7,18.593,34.68z"/><path fill="#8d6c9f" d="M56.454,33.629c0-0.109-0.111-0.329-0.111-0.44c-0.66-2.529-3.739-5.499-8.247-6.378 c-1.32-0.22-3.079,0.111-4.068,0.989l-0.88-0.22V27.47c0,0,1.649-1.1,2.309-1.32c0,0,0.329-0.111,0.549-0.22 c0-0.22-0.111-0.44-0.989-0.88c-0.88-0.44-2.089-0.329-2.089-0.329l0.88-0.549v-0.109l-1.869-1.869v-0.329l-0.769-0.769 c0,0,0.111-0.329-0.22-0.549c-0.329-0.329-0.66-0.549-0.769-0.66c-0.109-0.111-0.44-0.22-0.44-0.22s0.22-0.44,0.22-0.66 c0,0,0-0.109-0.111-0.109c-0.109,0-1.209-0.769-1.54-0.88c-0.329-0.111-1.32-0.329-1.429-0.329c-0.111,0-0.22,0.111-0.22,0.22 c0,0.111-0.111,0.66-0.111,0.66l0.88,0.329l-0.111,0.329l-0.549-0.109c-0.329-0.22-1.98-0.88-3.739-1.1 c-1.76-0.22-3.739-0.329-3.959-0.329c-0.22,0-0.44,0.111-1.54,0.44c-1.1,0.329-1.869,0.66-2.309,0.66 c-0.44,0.111-1.979,0.111-1.979,0.111s0-0.111-0.66-0.44c-0.66-0.329-2.199-1.1-2.749-1.209c-0.109,0-0.109,0.111-0.109,0.111 s-0.329,0-0.329,0.549c-0.111-0.109-0.329-0.109-0.329-0.109l-0.22,0.549c-0.549-0.111-0.989-0.22-1.32-0.329 c0.041-0.048,0.073-0.105,0.113-0.155c-0.291,0.129-0.628,0.203-1.009,0.207c-0.177,0.308-0.407,0.758-0.533,1.266l0.549,0.329 l-0.109,1.32l-0.111,0.109v0.22l0.111,0.111l-0.111,0.549l-0.109,0.22h0.109v0.111h0.111v0.109h-0.769l0.109-1.209 c0,0-0.22,0-0.22-0.329c0-0.22,0.111-1.649,0.111-1.649s0.037-0.143,0.113-0.348c-0.189,0.128-0.405,0.227-0.644,0.296 c-0.255,0.181-0.573,0.289-0.922,0.357l0,0c-0.16,0.093-0.333,0.168-0.525,0.221c-0.021,0.007-0.041,0.015-0.064,0.021 c-0.204,0.051-0.421,0.087-0.661,0.087c-0.265,0-0.501-0.044-0.722-0.105c0.105,0.445,0.108,0.854,0.024,1.224 c1.013-0.219,1.977-0.596,2.851-1.201v0.329h0.111c0,0,0,0.44,0.22,1.209c-0.111,0.111-0.44,1.1-0.22,2.199 c0.329,1.1,1.54,2.309,2.969,2.749c1.429,0.44,2.749-0.66,2.749-0.66l0.44,0.549l1.1,0.22c0,0-0.66,1.649,0,3.189 c0.66,1.54,2.859,2.639,3.848,2.639s2.309-0.769,2.969-1.32c0.66-0.549,1.209-1.649,1.32-2.089c0.989,0.769,2.089,1.1,2.969,0.66 l0.44,0.111l2.749,1.54l2.199,0.769c0,0,0,1.209,0.549,1.869c0.549,0.66,1.98,1.32,2.419,1.32c0.44,0,1.54,0,2.529-1.32v-0.111 c1.649,1.979,3.959,2.749,6.268,2.749c1.244,0,2.185,0.505,2.527,1.352c1.47-1.26,2.458-2.026,3.085-4.11 C56.456,33.623,56.456,33.626,56.454,33.629z M44.137,29.671v0.111l-0.88,1.1l-0.109,0.109l-0.22-0.329 C42.928,30.66,43.698,29.671,44.137,29.671z M37.98,20.873c0,0,1.429,0.329,2.309,2.199l-2.199-0.769l-0.66-1.209L37.98,20.873z M32.372,19.224c0.22,0,1.32,0.111,2.529,0.22c1.32,0.22,1.54,0.22,1.649,0.44c0,0,0.329,1.1,0.549,1.54 c0.22,0.549,0.329,0.989,0.22,0.989H34.46c-1.1,0.111-2.859,0.22-2.859,0.22s-0.329-0.22-0.44-0.22l-0.88-1.1 c0,0-0.329-0.44-0.22-0.549c0.111-0.22,0.22-0.329,0.769-0.66c0.549-0.331,1.209-0.769,1.209-0.769S32.152,19.224,32.372,19.224z M32.702,25.381l-0.66,0.109l-0.329-0.109c0,0-0.989-1.209-1.649-1.649C30.062,23.732,31.493,23.843,32.702,25.381z M27.643,21.533 v-0.88c0,0,1.76,0.44,2.859,1.209C28.853,21.533,27.643,21.533,27.643,21.533z M28.303,17.905c0,0,1.54,0.44,3.189,1.1 c0,0-1.869,1.1-1.979,1.1c-0.109,0-0.44,0.22-0.989,0c-0.66-0.22-2.199-0.769-2.309-0.769c-0.111,0-0.88-0.44-0.88-0.44 S28.193,17.905,28.303,17.905z M26.105,21.093c0,0,0.329,0,0.329-0.44c0.043-0.172,0.029-0.264,0.005-0.328 c0.016,0.005,0.325,0.116,0.325,0.437c0,0.22-0.111,0.44-0.329,0.44C26.214,21.093,26.103,21.093,26.105,21.093l-0.22,0.111h-0.111 l0.111-0.769l0.213-0.071c0.072-0.08,0.165-0.149,0.227-0.149c0,0,0.076,0.012,0.115,0.112l-0.005-0.003h-0.22l-0.116,0.039 c-0.057,0.063-0.104,0.132-0.104,0.181C25.994,20.764,25.994,20.873,26.105,21.093z M19.616,17.685c0,0,2.419,0.769,2.969,1.209 c-0.329,0-0.989,0.109-0.989,0.109s-0.329-0.329-2.089-0.549C19.506,18.014,19.616,17.685,19.616,17.685z M16.867,21.644 c0-0.22,0.111-1.76,0.111-1.76s0.22-0.88,0.769-1.54c0.22,0.109,0.549,0.22,0.989,0.329v0.109l0.111-0.329l2.089,0.549 c0,0-0.471,0.067-0.726,0.096l0.067,0.015c0,0-1.649,0.329-1.869,0.329c0,0.109-0.111,0.109-0.111,0.22h-0.111v0.44l-0.109,0.111 v0.109c0.22,0.111,0.88,0.549,1.1,0.66h0.22l0.109,0.109c0,0-0.44-0.109-0.549,0.111c-0.109,0.22-0.22,0.989-0.22,0.989 s0,0.329,0.66,0.329v0.109l-0.111,0.111h-0.22v0.88l-0.22,0.111v-0.88l0.22-0.109l-0.22-0.22l-0.111-0.22l-0.989-0.549v0.44h0.111 v0.66h-0.111v-0.44l-0.109,0.769h-0.66l0.111-1.209C17.087,21.973,16.758,21.864,16.867,21.644z M25.883,27.251l0.769,0.769v0.22 l-0.989,1.429C25.665,29.671,25.114,28.68,25.883,27.251z M26.323,26.592c0,0,0.88-1.1,2.089-0.989l-0.989,1.54l-0.22,0.111 L26.323,26.592z M25.883,30.22l1.1-1.32h0.22l0.66,1.649C27.863,30.551,26.654,30.88,25.883,30.22z M28.523,30.331l-0.549-1.76 l0.111-0.111l1.76-0.111C29.842,28.351,29.622,29.56,28.523,30.331z M28.193,27.471l-0.109-0.111l0.88-1.54 c0,0,0.989,0.549,0.989,1.76L28.193,27.471z M31.162,27.801c0,0,0.329-1.76-0.88-3.079c-1.32-1.32-2.969-1.54-3.959-1.54 c-0.989,0.111-2.419,1.1-2.859,1.76c-0.44,0-1.54-0.109-1.54-0.109l-0.22,0.44l-0.109,0.109h-0.109l-0.66,0.22 c0,0-0.109,0.111-0.549-0.111c-0.111-0.109-0.22-0.109-0.44-0.22c-0.22,0.111-0.769,0.111-1.209-0.109 c-0.549-0.22-0.769-0.66-0.88-0.88h-0.109v-0.88l1.54,1.209h0.109l0.44-0.22c0,0,0.109-0.111,0.109-0.22s0.111-0.329,0.111-0.329 l0.329-0.329c-0.111-0.22-0.66-1.1-0.769-1.209l0.22-0.88c0,0,0.989,1.209,1.209,1.649l0.657-0.219 c0.065-0.423,0.308-0.828,0.553-0.99c0.329-0.22,0.66,0.22,0.66,0.22s-0.329-0.329-0.66,0.111c-0.44,0.549-0.549,1.429,0,1.649 c-0.329,0-0.44,0-0.549-0.549c-0.027-0.132-0.024-0.269-0.007-0.407c-0.031,0.157-0.16,0.968,0.336,1.066l0.549,0.111h0.22 c0,0,0.66-0.329,0.88-0.549c0.22-0.329,0.22-0.769,0-1.1c0.329-0.109,1.76-0.329,3.299,0c-0.109-0.109-0.22-0.329-0.22-0.329 c-0.111-0.109-0.66-0.22-2.529-0.66c0,0,0-0.111,0.66,0c0.66,0.111,1.869,0.22,2.199,0.44c0.331,0.22,0.549,0.44,0.549,0.44 l0.22,0.44c0.22,0.329,0.329,0.44,0.329,0.44s0.22,0.22,0.549,0.329c0.329,0,0.88,0.111,0.88,0.111s2.089,1.98,2.969,4.179 l1.1,0.769L31.162,27.801z M33.032,25.052c0,0-0.66-1.1-1.32-1.869c0,0,3.519-0.44,7.697,0.44 C36.441,23.512,34.131,23.952,33.032,25.052z M35.89,29.231l1.869-1.649l0.22,0.22l0.769,0.329l-1.429,1.54L35.89,29.231z M39.189,30.551l-1.1-0.329l1.54-1.76l0.66,0.22C40.289,28.68,39.409,29.671,39.189,30.551z M40.84,28.241l-2.419-0.769l-0.22-0.22 l0.941-0.836c-0.052-0.025-0.096-0.056-0.129-0.089c-0.081-0.031-0.151-0.064-0.151-0.064c0-0.109,0-0.44,0.111-0.549 c0.22-0.22,0.989-0.549,1.429-0.77c0.44-0.109,1.209-0.22,1.32-0.329c0.111-0.111,0.329-0.549,0.329-0.549l0.88,0.109l-0.329,0.66 c-2.199,0-3.628,1.1-3.628,1.1v0.329c0,0.021,0.02,0.044,0.041,0.064c0.063,0.024,0.131,0.045,0.179,0.045l-0.049,0.044 c0.08,0.04,0.159,0.067,0.159,0.067c0.549,0.22,2.419,0.989,2.859,1.209C42.158,27.691,41.389,27.801,40.84,28.241z M42.598,31.21 c0.111,0.22,0.22,0.44,0.111,0.44v0.22l-0.549,1.209C42.158,33.079,42.049,32.309,42.598,31.21z M42.378,33.739l-0.111-0.111 l0.66-1.209h0.109l0.44,1.32C43.478,33.739,42.928,33.959,42.378,33.739z M44.577,32.639c-0.329,0.44-0.66,0.769-0.66,0.769 l-0.329-1.429l0.111-0.111l1.32-0.111C45.017,31.76,44.908,32.2,44.577,32.639z M45.017,31.1h-1.209v-0.111l0.88-1.209 C44.688,29.78,45.237,30.331,45.017,31.1z M45.128,32.859c0.549-0.989,0.769-2.089,0.66-2.859c-0.111-0.989-0.44-1.209-1.1-1.649 c-0.111-0.109-0.22-0.109-0.329-0.22c3.299-1.54,9.456,2.639,9.787,6.818C52.495,33.299,48.207,34.948,45.128,32.859z"/><path fill="#8d6c9f" d="M26.326,63.194c-0.167,0-0.337-0.042-0.493-0.13c-0.479-0.273-0.648-0.884-0.376-1.364 l0.987-1.739c0.272-0.479,0.882-0.648,1.364-0.376c0.479,0.273,0.648,0.884,0.376,1.364l-0.987,1.739 C27.013,63.013,26.675,63.194,26.326,63.194z"/><path fill="#8d6c9f" d="M21.991,60.465c-0.2,0-0.402-0.06-0.578-0.185c-0.45-0.32-0.556-0.944-0.236-1.395l1.158-1.631 c0.32-0.449,0.943-0.557,1.395-0.236c0.45,0.32,0.556,0.944,0.236,1.395l-1.158,1.631C22.612,60.318,22.305,60.465,21.991,60.465 z"/><path fill="#8d6c9f" d="M17.987,57.265c-0.235,0-0.472-0.082-0.662-0.25c-0.414-0.366-0.453-0.998-0.088-1.412 l1.323-1.499c0.368-0.414,0.999-0.452,1.412-0.088c0.414,0.366,0.453,0.998,0.088,1.412l-1.323,1.499 C18.539,57.15,18.264,57.265,17.987,57.265z"/><path fill="#8d6c9f" d="M14.343,53.657c-0.271,0-0.542-0.109-0.739-0.326c-0.372-0.408-0.343-1.04,0.065-1.413 l1.478-1.348c0.407-0.371,1.041-0.343,1.413,0.065s0.343,1.04-0.065,1.413l-1.478,1.348 C14.825,53.571,14.584,53.657,14.343,53.657z"/><path fill="#8d6c9f" d="M11.089,49.694c-0.309,0-0.612-0.142-0.809-0.409c-0.325-0.446-0.229-1.072,0.217-1.398 l1.614-1.181c0.448-0.325,1.071-0.229,1.398,0.217c0.325,0.446,0.229,1.072-0.217,1.398l-1.614,1.181 C11.5,49.632,11.294,49.694,11.089,49.694z"/><path fill="#8d6c9f" d="M8.278,45.41c-0.345,0-0.68-0.178-0.865-0.497c-0.277-0.478-0.116-1.09,0.361-1.367l1.729-1.006 c0.478-0.277,1.09-0.116,1.367,0.361s0.116,1.09-0.361,1.367L8.78,45.274C8.622,45.366,8.449,45.41,8.278,45.41z"/><path fill="#8d6c9f" d="M5.937,40.855c-0.38,0-0.743-0.218-0.911-0.586c-0.229-0.503-0.007-1.096,0.496-1.324l1.82-0.828 c0.504-0.229,1.096-0.006,1.324,0.496c0.229,0.503,0.007,1.096-0.496,1.324l-1.82,0.828C6.216,40.827,6.074,40.855,5.937,40.855z"/><path fill="#8d6c9f" d="M4.033,36.107c-0.415,0-0.802-0.26-0.945-0.673c-0.181-0.522,0.097-1.092,0.618-1.272l1.89-0.653 c0.522-0.18,1.092,0.098,1.272,0.618c0.181,0.522-0.097,1.092-0.618,1.272l-1.89,0.653C4.252,36.09,4.142,36.107,4.033,36.107z"/><path fill="#8d6c9f" d="M2.569,31.21c-0.448,0-0.856-0.304-0.97-0.76c-0.133-0.535,0.194-1.078,0.73-1.211l1.941-0.481 c0.528-0.129,1.077,0.192,1.211,0.73c0.133,0.535-0.194,1.078-0.73,1.211l-1.941,0.481C2.73,31.2,2.649,31.21,2.569,31.21z"/><path fill="#8d6c9f" d="M1.556,26.201c-0.484,0-0.909-0.352-0.987-0.845c-0.085-0.546,0.287-1.058,0.833-1.144 l1.977-0.311c0.543-0.083,1.057,0.287,1.144,0.833c0.085,0.546-0.287,1.058-0.833,1.144l-1.977,0.311 C1.659,26.197,1.607,26.201,1.556,26.201z"/><g><circle cx="12" cy="13" r="7" fill="#faefde"/></g><g><path fill="#85cbf8" d="M33.425,58.117c-0.742,0-1.454-0.414-1.801-1.125c-0.482-0.993-0.069-2.19,0.924-2.674l0.383-0.184 c23.89-11.19,22.047-37.393,22.025-37.656c-0.09-1.101,0.73-2.066,1.831-2.155c1.123-0.102,2.065,0.73,2.155,1.831 c0.023,0.291,2.061,29.248-24.307,41.6l-0.338,0.162C34.016,58.053,33.718,58.117,33.425,58.117z"/></g><g><path fill="#fff8ee" d="M7.1,16.383c-0.694-1.003-1.061-2.18-1.061-3.402C6.039,9.683,8.722,7,12.02,7v0 c0,1.009-0.605,1.918-1.536,2.308C9.049,9.91,8.039,11.329,8.039,12.98c0,0.301,0.033,0.597,0.099,0.885 C8.356,14.828,7.911,15.821,7.1,16.383L7.1,16.383z"/></g><g><path fill="#e3f2ff" d="M56.971,17.73c-0.322,0-0.648-0.078-0.952-0.242C50.595,14.545,43.326,13.076,33.8,13h-0.772 c-5.356,0.043-9.918,0.519-13.928,1.453c-1.078,0.248-2.151-0.419-2.402-1.494c-0.25-1.076,0.419-2.151,1.494-2.402 C22.492,9.555,27.34,9.046,33.012,9h0.804c10.215,0.082,18.097,1.708,24.111,4.973c0.971,0.526,1.331,1.741,0.804,2.712 C58.368,17.353,57.681,17.73,56.971,17.73z"/></g><g><path fill="#efd8be" d="M12.02,18.961c-0.545,0-1.084-0.073-1.602-0.217l0.087-0.312c0.239-0.859,1.013-1.419,1.902-1.49 c0.001,0,0.003,0,0.004,0C14.423,16.745,16,15.044,16,12.98c0-0.179-0.012-0.357-0.036-0.533c-0.131-0.974,0.24-1.944,1.084-2.446 l0.116-0.069C17.711,10.852,18,11.906,18,12.98C18,16.278,15.317,18.961,12.02,18.961z"/></g><path fill="#8d6c9f" d="M59.902,14.806l-0.04-0.486l-0.407-0.268C53.401,10.068,45.017,8.089,33.815,8H33.02	c-5.288,0.042-9.836,0.497-13.888,1.378C17.812,6.785,15.123,5,12.02,5c-4.4,0-7.98,3.58-7.98,7.98c0,2.478,1.136,4.696,2.914,6.161	c0.03,0.512,0.073,1.241,0.094,1.503c0.837,10.14,5.27,28.569,25.511,38.049c0,0,0.157,0.085,0.452,0.218l0.428,0.193l0.802-0.389	C62.077,45.676,59.927,15.113,59.902,14.806z M6.039,12.98C6.039,9.683,8.722,7,12.02,7S18,9.683,18,12.98s-2.683,5.98-5.98,5.98	S6.039,16.278,6.039,12.98z M33.422,56.891C14.072,47.812,9.841,30.184,9.041,20.48c-0.002-0.025-0.005-0.072-0.008-0.105	c0.923,0.374,1.93,0.585,2.986,0.585c4.4,0,7.98-3.58,7.98-7.98c0-0.585-0.067-1.154-0.188-1.704	c3.853-0.814,8.186-1.236,13.215-1.276h0.78c10.533,0.084,18.433,1.867,24.126,5.45C58.079,19.318,58.1,45.307,33.422,56.891z"/></svg>