<svg xmlns="http://www.w3.org/2000/svg"  viewBox="0 0 64 64" width="64px" height="64px"><path fill="#f9dd8f" d="M19.611,15c-3.872,6.178-8.286,15.339-8.594,24c-0.173,4.874,0.954,9.589,4.209,13.525 c0.826,0.999,2.773,3.137,6.37,4.973c6.532,3.335,14.351,3.335,20.886,0.006c3.598-1.833,5.518-3.967,6.341-4.979 C59.68,39.167,46.592,17.15,40.918,9.942C37.481,5.576,34.699,4,32.025,4s-5.457,1.576-8.893,5.942 C22.134,11.21,20.902,12.939,19.611,15z"/><path fill="#8d6c9f" d="M12.372,36.494c-0.051,0-0.103-0.004-0.155-0.012l-1.977-0.309 c-0.546-0.085-0.919-0.597-0.834-1.143c0.086-0.545,0.586-0.913,1.143-0.834l1.977,0.309c0.546,0.085,0.919,0.597,0.834,1.143 C13.282,36.142,12.856,36.494,12.372,36.494z"/><path fill="#8d6c9f" d="M13.329,32.118c-0.09,0-0.181-0.012-0.271-0.038l-1.926-0.54 c-0.532-0.149-0.843-0.701-0.693-1.233s0.708-0.84,1.232-0.693l1.926,0.54c0.532,0.149,0.843,0.701,0.693,1.233 C14.167,31.829,13.766,32.118,13.329,32.118z"/><path fill="#8d6c9f" d="M14.756,27.844c-0.119,0-0.24-0.021-0.357-0.066l-1.868-0.715 c-0.516-0.198-0.774-0.776-0.576-1.292c0.197-0.516,0.779-0.772,1.291-0.577l1.868,0.715c0.516,0.198,0.774,0.776,0.576,1.292 C15.537,27.599,15.158,27.844,14.756,27.844z"/><path fill="#8d6c9f" d="M16.537,23.686c-0.143,0-0.289-0.031-0.427-0.096l-1.808-0.855 c-0.499-0.236-0.713-0.833-0.477-1.332c0.235-0.499,0.832-0.713,1.332-0.476l1.808,0.855c0.499,0.236,0.713,0.833,0.477,1.332 C17.271,23.475,16.912,23.686,16.537,23.686z"/><path fill="#8d6c9f" d="M18.613,19.656c-0.165,0-0.332-0.041-0.486-0.126l-1.747-0.974 c-0.482-0.269-0.655-0.878-0.386-1.36c0.268-0.483,0.878-0.656,1.36-0.387l1.747,0.974c0.482,0.269,0.655,0.878,0.386,1.36 C19.305,19.471,18.964,19.656,18.613,19.656z"/><path fill="#ffeb9b" d="M48.82,52.52c-0.82,1.02-2.74,3.15-6.34,4.98c-0.891,0.453-11.058,5.516-20.88,0 c-6.398-3.593-8.885-9.56-9.6-11.5c0.946,1.168,5.739,6.85,13,7c8.431,0.174,15.123-6.595,17-13c0.756-2.58-0.819-8.088-4-19 c-3.015-10.341-4.346-13.227-7-14c-2.62-0.763-5.434,0.852-7.4,2.37C26.82,5.44,29.47,4,32.02,4c2.68,0,5.46,1.58,8.9,5.94 C46.59,17.15,59.68,39.17,48.82,52.52z"/><path fill="#8d6c9f" d="M32.043,61.002c-3.745,0-7.488-0.871-10.901-2.613c-2.714-1.386-4.964-3.145-6.686-5.227 c-3.146-3.802-4.639-8.579-4.438-14.198c0.019-0.552,0.526-1.014,1.034-0.963c0.553,0.02,0.984,0.482,0.964,1.034 c-0.182,5.115,1.157,9.439,3.98,12.852c1.548,1.871,3.584,3.46,6.055,4.721c6.252,3.191,13.721,3.191,19.977,0.006 c2.472-1.259,4.496-2.847,6.019-4.72c10.262-12.623-2.234-34.117-7.915-41.333C37.146,6.767,34.57,5,32.024,5 c-2.545,0-5.121,1.767-8.106,5.561c-0.772,0.98-1.999,2.639-3.459,4.97c-0.294,0.468-0.911,0.61-1.379,0.317 c-0.468-0.293-0.609-0.911-0.316-1.378c1.508-2.407,2.78-4.127,3.582-5.146C25.741,5.009,28.817,3,32.024,3 c3.208,0,6.284,2.009,9.68,6.323c7.406,9.409,18.587,30.678,7.896,43.832c-1.7,2.091-3.942,3.854-6.663,5.24 C39.525,60.133,35.783,61.002,32.043,61.002z"/><g><path fill="#efc88e" d="M25.074,25.482c-2.281,3.641-4.883,9.039-5.064,14.143c-0.102,2.872,0.562,5.65,2.481,7.97 c0.487,0.588,1.634,1.848,3.754,2.931c3.849,1.965,8.457,1.965,12.308,0.004c2.12-1.08,3.251-2.338,3.736-2.934 c6.398-7.872-1.315-20.846-4.658-25.094C35.605,19.929,33.966,19,32.39,19c-1.576,0-3.215,0.929-5.241,3.501 C26.561,23.249,25.835,24.268,25.074,25.482z"/></g><g><path fill="#5dbc9d" d="M27.751,24c-2.75-1.546-3.282-2.145-3.515-3c-0.773-2.831,2.084-7.07,6.218-8 c3.087-0.695,6.381,0.569,8.291,3c2.818,3.586,1.121,7.799,1.036,8c-2.418-1-4.836-2-7.254-3c-0.95-1.033-0.779-2.443,0-3 c0.534-0.382,1.359-0.367,2.073,0c-0.167-0.302-1.486-2.605-4.145-3c-2.631-0.391-4.531,1.39-5.182,2 c-2.182,2.046-3.02,5.35-2.073,8c0.705,1.973,2.057,3.191,5.182,5c5.182,3,5.855,2.538,8.291,5c1.178,1.191,3.177,3.211,3.109,6 c-0.075,3.091-2.658,6.411-6.218,7c-0.473,0.078-4.149,0.626-6.218-2c-1.511-1.917-1.544-4.739,0-7 c-0.085,1.391,0.798,2.632,2.073,3c1.155,0.333,2.469-0.102,3.109-1c0.631-0.886,0.437-2.151,0-3 c-1.234-2.398-4.535-1.722-8.291-4c-2.078-1.261-3.383-2.872-4.145-4c-0.839,1.648-1.975,4.437-2.073,8 c-0.056,2.052-0.223,7.961,4.145,12c4.857,4.49,13.257,4.955,18.654,1c0.55-0.403,4.781-3.607,5.182-9 c0.449-6.049-4.267-10.196-5.182-11c-0.268-0.235-0.498-0.421-0.743-0.592c-0.305-0.213-0.742-0.496-1.329-0.763L35,27.592 c-0.843-0.44-1.832-0.963-3-1.592c0,0,0,0,0,0L27.751,24z"/><path fill="#97e0bb" d="M46,42c-0.353,5.383-4.46,8.474-5.18,9c-5.4,3.95-13.8,3.49-18.66-1 c-4.656-4.301-4.209-10.772-4.14-12c0.178-3.145,1.225-5.577,1.98-7c1.667,1.333,3.333,2.667,5,4c-0.303,0.372-3.357,4.245-2,9 c1.193,4.181,5.142,6.748,9,7c4.76,0.311,8.395-2.967,10-6c2.439-4.61,1.301-10.763-3-15C43.588,32.595,46.311,37.262,46,42z"/></g><path fill="#836c9b" d="M32.165,54.689c-3.923,0-7.851-1.339-10.681-3.955c-4.699-4.344-4.524-10.676-4.467-12.757 c0.08-2.91,0.813-5.745,2.181-8.431c0.161-0.315,0.477-0.522,0.83-0.544c0.357-0.028,0.691,0.145,0.89,0.438 c1.049,1.55,2.339,2.797,3.836,3.706c1.522,0.923,2.984,1.329,4.275,1.688c1.795,0.499,3.49,0.97,4.386,2.709 c0.542,1.054,0.848,2.743-0.074,4.038c-0.889,1.245-2.654,1.826-4.201,1.381c-0.744-0.215-1.386-0.65-1.866-1.223 c-0.23,1.308,0.055,2.625,0.856,3.643c1.661,2.107,4.681,1.729,5.27,1.633c3.247-0.537,5.321-3.553,5.382-6.038 c0.058-2.363-1.674-4.114-2.82-5.272c-1.387-1.401-2.114-1.755-3.709-2.528c-0.998-0.484-2.365-1.147-4.372-2.31 c-2.981-1.726-4.761-3.118-5.622-5.529c-0.974-2.722-0.303-6.002,1.619-8.312c0.099-0.196,0.207-0.392,0.324-0.586 c1.331-2.213,3.587-3.863,6.033-4.414c3.385-0.761,7.12,0.587,9.296,3.358c3.203,4.076,1.256,8.808,1.172,9.007 c-0.214,0.506-0.798,0.742-1.303,0.535l-7.255-3c-0.135-0.056-0.256-0.14-0.354-0.248c-0.666-0.724-0.993-1.669-0.897-2.591 c0.082-0.787,0.465-1.479,1.052-1.899c0.144-0.103,0.299-0.188,0.462-0.256c-0.533-0.431-1.23-0.812-2.1-0.941 c-2.158-0.318-3.75,1.177-4.351,1.74c-0.136,0.127-0.266,0.26-0.39,0.397c-0.434,0.947-0.567,1.872-0.366,2.61 c0.129,0.472,0.422,0.919,3.041,2.392c0.481,0.271,0.652,0.88,0.382,1.362c-0.271,0.48-0.881,0.651-1.362,0.381 c-1.885-1.06-2.887-1.758-3.445-2.49c-0.037,0.781,0.066,1.558,0.325,2.282c0.589,1.648,1.741,2.734,4.741,4.471 c1.943,1.125,3.219,1.744,4.243,2.241c1.695,0.822,2.63,1.276,4.258,2.921c1.215,1.228,3.476,3.513,3.398,6.728 c-0.092,3.762-3.257,7.334-7.056,7.962c-0.782,0.13-4.809,0.624-7.166-2.367c-1.804-2.289-1.82-5.577-0.041-8.184 c0.254-0.371,0.728-0.526,1.15-0.382c0.426,0.146,0.701,0.559,0.674,1.007c-0.055,0.904,0.514,1.736,1.352,1.979 c0.731,0.214,1.62-0.06,2.018-0.62c0.356-0.499,0.232-1.365-0.075-1.962c-0.473-0.918-1.402-1.213-3.143-1.697 c-1.346-0.373-3.02-0.838-4.777-1.904c-1.273-0.773-2.417-1.752-3.412-2.921c-0.798,1.971-1.23,4.014-1.287,6.093 c-0.058,2.059-0.208,7.511,3.824,11.238c4.545,4.203,12.346,4.619,17.385,0.928c0.734-0.539,4.419-3.472,4.775-8.268 c0.358-4.829-2.881-8.447-4.844-10.174c-0.237-0.209-0.44-0.374-0.657-0.525c-0.247-0.172-0.64-0.431-1.171-0.672 c-0.502-0.229-0.725-0.821-0.496-1.324c0.228-0.502,0.816-0.725,1.324-0.497c0.68,0.309,1.175,0.635,1.488,0.854 c0.274,0.192,0.532,0.399,0.831,0.662c3.873,3.407,5.832,7.606,5.519,11.825c-0.421,5.671-4.729,9.102-5.587,9.732 C38.77,53.74,35.469,54.688,32.165,54.689z M33.139,20.171l6.008,2.484c0.305-1.335,0.536-3.843-1.188-6.038 c-1.711-2.176-4.641-3.237-7.284-2.642c-0.04,0.009-0.08,0.019-0.121,0.028c0.017,0.002,0.032,0.004,0.049,0.007 c3.052,0.454,4.595,3.001,4.873,3.507c0.212,0.385,0.147,0.864-0.159,1.179c-0.309,0.315-0.783,0.393-1.175,0.192 c-0.429-0.221-0.852-0.203-1.033-0.076c-0.117,0.084-0.204,0.267-0.226,0.478C32.852,19.587,32.943,19.899,33.139,20.171z"/><path fill="#836c9b" d="M34.999,28.592c-0.156,0-0.314-0.036-0.462-0.113c-0.846-0.442-1.839-0.967-3.011-1.598 c-0.486-0.262-0.669-0.868-0.407-1.354c0.263-0.486,0.87-0.668,1.354-0.406c1.164,0.626,2.149,1.147,2.989,1.585 c0.489,0.256,0.679,0.86,0.424,1.35C35.708,28.396,35.359,28.592,34.999,28.592z"/></svg>