<svg xmlns="http://www.w3.org/2000/svg"  viewBox="0 0 64 64" width="64px" height="64px"><circle cx="12.277" cy="39.61" r="2.499" fill="#dbb2ba"/><circle cx="51.784" cy="39.61" r="2.499" fill="#dbb2ba"/><polygon fill="#efd8be" points="21.75,40.583 16.82,31.204 7.917,33.333 8.75,38.417 7.917,43.083 10.083,44.583 13.75,42.25 14.083,40.25 11.5,41.5 10.687,39.625 13.937,37.813 18.736,39.602"/><polygon fill="#efd8be" points="42.25,40.583 47.18,31.204 56.083,33.333 55.25,38.417 56.083,43.083 53.917,44.583 50.25,42.25 49.917,40.25 52.5,41.5 53.312,39.625 50.062,37.813 45.264,39.602"/><path fill="#e3f2ff" d="M61,9H39v6h1.732c2.209,0,3.661,2.307,2.704,4.298l-6.45,13.434l-7.125-13.317 C28.793,17.417,30.241,15,32.507,15H34V9H3v6h2.601c1.477,0,2.833,0.813,3.528,2.116L29.893,56h5.933l18.096-38.695 C54.58,15.899,55.992,15,57.545,15H61V9z"/><path fill="#8d6c9f" d="M35.826,57h-5.933c-0.369,0-0.708-0.203-0.882-0.529L8.248,17.587C7.725,16.608,6.711,16,5.602,16H3 c-0.552,0-1-0.447-1-1V9c0-0.553,0.448-1,1-1h31c0.552,0,1,0.447,1,1v6c0,0.553-0.448,1-1,1h-1.493 c-0.709,0-1.351,0.363-1.716,0.973c-0.364,0.608-0.382,1.345-0.047,1.971l6.194,11.579l5.597-11.656 c0.304-0.633,0.264-1.337-0.11-1.932C42.051,16.341,41.434,16,40.732,16H39c-0.552,0-1-0.447-1-1V9c0-0.553,0.448-1,1-1h22 c0.552,0,1,0.447,1,1v6c0,0.553-0.448,1-1,1h-3.455c-1.16,0-2.226,0.679-2.717,1.729L36.731,56.424 C36.567,56.775,36.214,57,35.826,57z M30.492,55h4.697l17.827-38.118C53.834,15.132,55.612,14,57.545,14H60v-4H40v4h0.732 c1.383,0,2.649,0.699,3.385,1.869c0.737,1.171,0.819,2.615,0.221,3.862l-6.45,13.434c-0.163,0.34-0.503,0.559-0.879,0.567 c-0.376-0.018-0.726-0.195-0.904-0.528L28.98,19.887c-0.669-1.251-0.634-2.725,0.096-3.942C29.805,14.727,31.088,14,32.507,14H33 v-4H4v4h1.602c1.85,0,3.54,1.014,4.411,2.646L30.492,55z"/><path fill="#72caaf" d="M57.545,12H42v0.133c1.563,0.334,2.936,1.281,3.81,2.671c1.105,1.756,1.229,3.922,0.331,5.792	l-6.449,13.434l-2.56,5.332l-2.79-5.215L27.217,20.83c-1.004-1.877-0.951-4.088,0.143-5.914c0.828-1.382,2.132-2.343,3.64-2.728V12	H6v0.011c2.432,0.137,4.62,1.525,5.776,3.692L31.692,53h2.225l17.287-36.965C52.35,13.584,54.839,12,57.545,12z"/><path fill="#8d6c9f" d="M32.667,48.333c-0.362,0-0.711-0.197-0.889-0.54l-1.118-2.16c-0.254-0.491-0.062-1.094,0.429-1.348 c0.492-0.253,1.094-0.061,1.348,0.428l1.118,2.16c0.254,0.491,0.062,1.094-0.429,1.348C32.979,48.297,32.822,48.333,32.667,48.333z M29.71,42.62c-0.362,0-0.711-0.197-0.889-0.54l-9.653-18.649c-0.254-0.491-0.062-1.094,0.429-1.348 c0.491-0.253,1.094-0.061,1.348,0.428l9.653,18.649c0.254,0.491,0.062,1.094-0.429,1.348C30.022,42.584,29.865,42.62,29.71,42.62z M18.219,20.418c-0.362,0-0.711-0.197-0.889-0.54l-2.298-4.44c-0.254-0.491-0.062-1.094,0.429-1.348 c0.49-0.253,1.094-0.062,1.348,0.428l2.298,4.44c0.254,0.491,0.062,1.094-0.429,1.348C18.53,20.382,18.374,20.418,18.219,20.418z"/><path fill="#fff8ee" d="M10.684,37.772c4.785-3.272,12.29-5.605,21.316-5.605s15.992,2.144,20.778,5.417	c0.294-0.201,2.082,2.507,2.056,2.167c-0.25-3.25,0.5-4.583,1.5-7.083c0.073-0.182,2.167-2.053,2.167-2.25	c0-6.95-11.864-12.583-26.5-12.583S5.5,23.467,5.5,30.417c0,0.271-0.14,0.619,0.054,0.806c1.651,1.595,3.452,3.887,2.838,9.865	C8.352,41.471,9.631,38.656,10.684,37.772z"/><polygon fill="#8d6c9f" points="20.607,26.149 22.506,27.612 22.506,23.71 20.248,26.046"/><path fill="#8d6c9f" d="M24.508,25.201v-3.702c0,0-3.118,0.476-4.82,0.901c-1.102,0.275-3.568,0.988-4.689,1.477v0.652l1,0	c0.552,0,1,0.448,1,1v4.287c0,0.402-0.242,0.761-0.612,0.921c-0.47,0.203-0.941,0.421-1.388,0.654v0.821	c2.511-1.101,5.214-2.027,8-2.438v-0.821c-0.296,0.029-0.564,0.063-0.826,0.104c-0.604,0.093-1.146-0.377-1.146-0.988v-5.07	C22.179,23.226,23.342,24.088,24.508,25.201z"/><polygon fill="#8d6c9f" points="45.754,26.61 47.562,29 47.562,25.098 45.412,26.309"/><path fill="#8d6c9f" d="M31.5,22v-0.95c-3-0.075-4.9,0.175-6.75,0.4l-0.016,0.951l0.374-0.006	c0.502-0.003,0.913,0.405,0.913,0.907l0,4.285c0,0.481-0.346,0.895-0.819,0.982c-0.159,0.029-0.313,0.059-0.463,0.089v0.821	c2.134-0.28,4.112-0.442,6.611-0.504l0-0.821l-0.474-0.059C30.375,28.031,30,27.606,30,27.102l0-4.097	c0-0.548,0.436-0.994,0.984-1.001C31.152,22.002,31.324,22.001,31.5,22z"/><path fill="#8d6c9f" d="M49.467,28.677l-3.51,1.642v-6.616c1.16,0.833,2.332,2.41,3.51,4.061l0-3.747	c-1.27-0.501-2.623-0.917-3.51-1.182c-1.109-0.332-3.721-0.887-3.791-0.899c-0.301-0.054-1.223-0.218-1.223-0.218l-0.406,0.914	l0.849,0.206c0.449,0.109,0.764,0.51,0.764,0.972v4.222c0,0.615-0.551,1.083-1.158,0.984c-0.181-0.029-0.36-0.057-0.539-0.082v0.821	c2.482,0.518,5.049,1.164,7.718,2.374v-0.002c0.431,0.202,0.862,0.4,1.295,0.632L49.467,28.677z"/><path fill="#8d6c9f" d="M41.929,21.9c-1.697-0.39-3.33-0.546-4.336-0.628l0.009,1.001c0,0,0.471,0.041,0.976,0.094	c0.238,0.025,0.577,0.273,0.44,0.675c-0.292,0.852-1.404,3.317-1.404,3.317l-1.493-3.262c0,0-0.575-1.004,0.441-0.928l1.031,0.07	v-0.967v-0.017c-1.857-0.136-4.419-0.305-7.066-0.204v0.933c0.326,0.002,0.654,0.004,0.982,0.007	c0.396,0.004,0.754,0.242,0.911,0.606l2.807,6.513l2.409,0.204l2.494-5.933c0.191-0.454,0.683-0.695,1.164-0.586	c0.207,0.047,0.414,0.099,0.618,0.156L41.929,21.9z"/><path fill="#faefde" d="M11.062,37.409l-2.056,1.632l-2.62-10.276l0.403-0.757c0.706-1.327,2.588-1.517,3.469-0.3	c1.021,1.411,1.576,3.217,2.127,6.131C12.638,35.181,12.132,36.56,11.062,37.409z"/><path fill="#faefde" d="M52.938,37.409l2.056,1.632l2.62-10.276l-0.403-0.757c-0.706-1.327-2.588-1.517-3.469-0.3	c-1.021,1.411-1.576,3.217-2.127,6.131C51.362,35.181,51.868,36.56,52.938,37.409z"/><path fill="#8d6c9f" d="M32,16.999c-15.14,0-27,5.407-27,12.31c0,0.862,0.313,1.825,0.836,2.576	c0.024,0.034,0.05,0.067,0.079,0.099l0.092,0.097c2.221,2.889,2.149,5.043,2.007,9.335L8,41.816c-0.004,0.129,0,1.188,0,1.188	c0,0.001,0,0.001,0,0.002c0,0.003,0,0.006,0,0.009c0,0.046,0.02,0.086,0.026,0.131c0.011,0.074,0.017,0.148,0.044,0.217	c0.038,0.103,0.098,0.191,0.166,0.275c0.006,0.007,0.008,0.016,0.013,0.022c0.001,0.002,0.003,0.003,0.004,0.004	c0.035,0.04,0.072,0.073,0.112,0.107c0.665,0.705,1.566,1.227,2.611,1.227c0.847,0,1.781-0.338,2.746-1.186	c1.53-1.345,1.577-2.96,1.605-3.925c0.008-0.274-0.096-0.532-0.277-0.722c1.236,0.199,2.367,0.782,3.15,1.28	c0.199,0.126,0.39,0.267,0.582,0.406c0.386,0.282,0.786,0.574,1.264,0.802c0.69,0.328,1.351,0.383,1.849,0.394	c0.582-0.012,1.009-0.427,1.022-0.979c0.012-0.552-0.426-1.009-0.978-1.021c-0.45-0.01-0.759-0.069-1.034-0.2	c-0.309-0.146-0.617-0.371-0.943-0.609c-0.228-0.167-0.455-0.332-0.689-0.48c-1.151-0.732-2.939-1.614-4.917-1.66	c-0.112-0.002-0.214,0.004-0.323,0.005C17.95,34.587,24.4,33,32,33c7.562,0,13.685,1.722,17.537,4.107	c-1.935,0.075-3.68,0.933-4.809,1.651c-0.235,0.149-0.463,0.314-0.69,0.481c-0.326,0.238-0.634,0.463-0.943,0.609	c-0.499,0.237-0.711,0.834-0.474,1.332c0.238,0.5,0.833,0.71,1.333,0.475c0.479-0.228,0.878-0.52,1.264-0.802	c0.192-0.14,0.383-0.28,0.583-0.407c0.783-0.498,1.915-1.081,3.15-1.279c-0.182,0.189-0.286,0.447-0.278,0.722	c0.028,0.965,0.075,2.58,1.605,3.925c0.965,0.848,1.899,1.186,2.746,1.186c0.958,0,1.79-0.444,2.436-1.06	c0.317-0.168,0.54-0.49,0.54-0.874c0-0.016-0.002-0.032-0.002-0.048c0-0.005,0.002-0.009,0.002-0.013c0,0,0.003-1.059,0-1.188	l-0.013-0.4c-0.143-4.292-0.214-6.446,1.956-9.273l0.143-0.158c0.028-0.031,0.055-0.064,0.079-0.099	C58.688,31.134,59,30.171,59,29.309C59,22.406,47.14,16.999,32,16.999z M10.041,42.621c0.026-0.337,0.083-0.668,0.174-0.993	c0.028,0.033,0.048,0.071,0.077,0.102c0.498,0.526,1.235,0.763,2.017,0.661C11.447,43.113,10.716,43.187,10.041,42.621z M13.557,39.223c-0.347,0.421-1.046,1.077-1.405,1.166c-0.208,0.051-0.354,0.021-0.405-0.033c-0.04-0.042-0.066-0.159-0.007-0.351	c0.112-0.364,0.441-0.83,1.933-0.9C13.631,39.141,13.592,39.18,13.557,39.223z M50.442,39.222c-0.035-0.042-0.074-0.081-0.115-0.117	c1.492,0.07,1.821,0.536,1.933,0.9c0.059,0.191,0.033,0.309-0.007,0.351c-0.051,0.054-0.197,0.085-0.405,0.033	C51.524,40.309,50.847,39.709,50.442,39.222z M51.69,42.391c0.781,0.104,1.519-0.135,2.017-0.661	c0.013-0.014,0.022-0.032,0.035-0.046c0.105,0.315,0.174,0.629,0.208,0.943C53.278,43.184,52.549,43.109,51.69,42.391z M56.553,30.697l-0.145,0.164c-1.935,2.515-2.409,4.635-2.469,7.321C50.202,33.956,41.777,31,32,31	c-10.317,0-18.356,2.636-21.948,6.811c-0.099-2.519-0.63-4.568-2.511-7.011l-0.097-0.106C7.173,30.283,7,29.746,7,29.309	c0-5.588,11.449-10.31,25-10.31s25,4.722,25,10.31C57,29.747,56.826,30.287,56.553,30.697z"/><path fill="#8d6c9f" d="M22,56c-0.552,0-1-0.447-1-1v-2c0-0.553,0.448-1,1-1s1,0.447,1,1v2C23,55.553,22.552,56,22,56z"/><path fill="#8d6c9f" d="M17,56c-0.552,0-1-0.447-1-1v-2c0-0.553,0.448-1,1-1s1,0.447,1,1v2C18,55.553,17.552,56,17,56z"/><path fill="#8d6c9f" d="M12,56c-0.552,0-1-0.447-1-1v-2c0-0.553,0.448-1,1-1s1,0.447,1,1v2C13,55.553,12.552,56,12,56z"/><path fill="#8d6c9f" d="M7,56c-0.552,0-1-0.447-1-1v-2c0-0.553,0.448-1,1-1s1,0.447,1,1v2C8,55.553,7.552,56,7,56z"/><g><path fill="#8d6c9f" d="M57,56c-0.552,0-1-0.447-1-1v-2c0-0.553,0.448-1,1-1s1,0.447,1,1v2C58,55.553,57.552,56,57,56z"/><path fill="#8d6c9f" d="M52,56c-0.552,0-1-0.447-1-1v-2c0-0.553,0.448-1,1-1s1,0.447,1,1v2C53,55.553,52.552,56,52,56z"/><path fill="#8d6c9f" d="M47,56c-0.552,0-1-0.447-1-1v-2c0-0.553,0.448-1,1-1s1,0.447,1,1v2C48,55.553,47.552,56,47,56z"/><path fill="#8d6c9f" d="M42,56c-0.552,0-1-0.447-1-1v-2c0-0.553,0.448-1,1-1s1,0.447,1,1v2C43,55.553,42.552,56,42,56z"/></g></svg>