<svg xmlns="http://www.w3.org/2000/svg"  viewBox="0 0 64 64" width="64px" height="64px"><path fill="#f283a5" d="M55,16l-2,5l-3-5H17v3l-3-3H1l2,3v27.943c0,0.834,0.962,1.302,1.618,0.786L17,38l6.868,5.151	c0.678,0.509,1.604,0.534,2.309,0.064L31,40l4.823,3.215c0.706,0.47,1.631,0.445,2.309-0.064L45,38l5,4v-7l3,4l3-4v10l3.375,2.7	C60.03,48.224,61,47.758,61,46.919V19l2-3H55z M12,34l-4,3V21h4V34z M26,36l-4-2V21h4V36z M40,33l-4,3V21h4V33z"/><path fill="#ed7899" d="M56,40v5l2.996,2.397C59.804,48.043,61,47.468,61,46.434V44L56,40z"/><polygon fill="#ed7899" points="3,42 17,32 26,38 31,35 37,38 45,32 50,36 50,41 45,37 36.953,42.752 31,39 25,43 17,37 3.356,47.049"/><path fill="#8d6c9f" d="M31.999,13.004c0.552,0,1-0.447,1.001-0.999l0.001-2c0-0.552-0.447-1-0.999-1.001	c-0.552,0-1,0.447-1.001,0.999l-0.001,2C30.999,12.555,31.447,13.003,31.999,13.004z"/><path fill="#8d6c9f" d="M26.999,13.001c0.552,0,1-0.447,1.001-0.999l0.001-2c0-0.552-0.447-1-0.999-1.001	s-1,0.447-1.001,0.999l-0.001,2C25.999,12.553,26.447,13.001,26.999,13.001z"/><path fill="#8d6c9f" d="M21.999,12.999c0.552,0,1-0.447,1.001-0.999l0.001-2c0-0.552-0.447-1-0.999-1.001	s-1,0.447-1.001,0.999l-0.001,2C20.999,12.55,21.447,12.998,21.999,12.999z"/><path fill="#8d6c9f" d="M16.999,12.996c0.552,0,1-0.447,1.001-0.999l0.001-2c0-0.552-0.447-1-0.999-1.001	c-0.552,0-1,0.447-1.001,0.999l-0.001,2C15.999,12.548,16.447,12.996,16.999,12.996z"/><path fill="#8d6c9f" d="M46.999,13.004c0.552,0,1-0.447,1.001-0.999l0.001-2c0-0.552-0.447-1-0.999-1.001	c-0.552,0-1,0.447-1.001,0.999l-0.001,2C45.999,12.555,46.447,13.003,46.999,13.004z"/><path fill="#8d6c9f" d="M51.999,13.004c0.552,0,1-0.447,1.001-0.999l0.001-2c0-0.552-0.447-1-0.999-1.001	c-0.552,0-1,0.447-1.001,0.999l-0.001,2C50.999,12.555,51.447,13.003,51.999,13.004z"/><path fill="#8d6c9f" d="M56.999,13.004c0.552,0,1-0.447,1.001-0.999l0.001-2c0-0.552-0.447-1-0.999-1.001	c-0.552,0-1,0.447-1.001,0.999l-0.001,2C55.999,12.555,56.447,13.003,56.999,13.004z"/><path fill="#8d6c9f" d="M61.999,13.004c0.552,0,1-0.447,1.001-0.999l0.001-2c0-0.552-0.447-1-0.999-1.001	c-0.552,0-1,0.447-1.001,0.999l-0.001,2C60.999,12.555,61.447,13.003,61.999,13.004z"/><path fill="#8d6c9f" d="M41.999,13.001c0.552,0,1-0.447,1.001-0.999l0.001-2c0-0.552-0.447-1-0.999-1.001	s-1,0.447-1.001,0.999l-0.001,2C40.999,12.553,41.447,13.001,41.999,13.001z"/><path fill="#8d6c9f" d="M6.999,13.004c0.552,0,1-0.447,1.001-0.999l0.001-2c0-0.552-0.447-1-0.999-1.001	c-0.552,0-1,0.447-1.001,0.999l-0.001,2C5.999,12.555,6.447,13.003,6.999,13.004z"/><path fill="#8d6c9f" d="M11.999,13.004c0.552,0,1-0.447,1.001-0.999l0.001-2c0-0.552-0.447-1-0.999-1.001	c-0.552,0-1,0.447-1.001,0.999l-0.001,2C10.999,12.555,11.447,13.003,11.999,13.004z"/><path fill="#8d6c9f" d="M1.999,13.001c0.552,0,1-0.447,1.001-0.999l0.001-2c0-0.552-0.447-1-0.999-1.001	s-1,0.447-1.001,0.999l-0.001,2C0.999,12.553,1.447,13.001,1.999,13.001z"/><path fill="#8d6c9f" d="M36.999,12.996c0.552,0,1-0.447,1.001-0.999l0.001-2c0-0.552-0.447-1-0.999-1.001	s-1,0.447-1.001,0.999l-0.001,2C35.999,12.548,36.447,12.996,36.999,12.996z"/><path fill="#8d6c9f" d="M4.004,48.945c-0.298,0-0.598-0.067-0.879-0.204C2.432,48.403,2,47.714,2,46.942v-27.64l-1.832-2.748	c-0.204-0.307-0.224-0.701-0.05-1.026S0.631,15,1,15h13c0.266,0,0.52,0.105,0.707,0.293L16,16.586V16c0-0.552,0.447-1,1-1h33	c0.352,0,0.677,0.184,0.857,0.485l1.963,3.271l1.251-3.128C54.224,15.249,54.591,15,55,15h8c0.369,0,0.708,0.203,0.882,0.528	s0.154,0.72-0.05,1.026L62,19.303v27.617c0,0.776-0.435,1.466-1.134,1.802c-0.695,0.336-1.51,0.245-2.115-0.24l-3.376-2.701	C55.138,45.591,55,45.304,55,45v-7l-1.2,1.6c-0.377,0.504-1.223,0.504-1.6,0L51,38v4c0,0.384-0.221,0.735-0.566,0.901	c-0.347,0.165-0.759,0.12-1.059-0.121l-4.395-3.516l-6.249,4.686c-1.014,0.76-2.407,0.8-3.464,0.096L31,41.202l-4.268,2.845	c-1.058,0.704-2.45,0.664-3.465-0.096l-6.253-4.69L5.236,48.515C4.874,48.799,4.441,48.945,4.004,48.945z M2.868,17l0.964,1.445	C3.941,18.609,4,18.803,4,19v27.942l12.382-9.729c0.356-0.28,0.855-0.286,1.218-0.014l6.868,5.151	c0.34,0.254,0.803,0.267,1.155,0.032l4.822-3.215c0.336-0.224,0.773-0.224,1.109,0l4.822,3.215c0.354,0.236,0.816,0.222,1.154-0.032	L44.4,37.2c0.364-0.274,0.868-0.266,1.225,0.019l3.375,2.7V35c0-0.431,0.275-0.812,0.684-0.949c0.41-0.137,0.858,0.005,1.116,0.349	l2.2,2.934l2.2-2.934c0.258-0.344,0.707-0.485,1.116-0.349C56.725,34.188,57,34.569,57,35v9.52l3,2.4V19	c0-0.197,0.059-0.391,0.168-0.555L61.132,17h-5.455l-1.748,4.372c-0.142,0.353-0.47,0.595-0.849,0.625	c-0.394,0.034-0.742-0.156-0.938-0.482L49.434,17H18v2c0,0.404-0.243,0.769-0.617,0.924c-0.373,0.156-0.803,0.07-1.09-0.217	L13.586,17H2.868z"/><path fill="#8d6c9f" d="M17,29c-0.553,0-1-0.448-1-1v-9c0-0.552,0.447-1,1-1s1,0.448,1,1v9C18,28.552,17.553,29,17,29z"/><path fill="#8d6c9f" d="M17,39c-0.553,0-1-0.448-1-1v-6c0-0.552,0.447-1,1-1s1,0.448,1,1v6C18,38.552,17.553,39,17,39z"/><path fill="#8d6c9f" d="M45,29c-0.553,0-1-0.448-1-1V16c0-0.552,0.447-1,1-1s1,0.448,1,1v12C46,28.552,45.553,29,45,29z"/><path fill="#8d6c9f" d="M31,33c-0.553,0-1-0.448-1-1V16c0-0.552,0.447-1,1-1s1,0.448,1,1v16C32,32.552,31.553,33,31,33z"/><path fill="#8d6c9f" d="M8,38c-0.152,0-0.306-0.035-0.447-0.105C7.214,37.725,7,37.379,7,37V21c0-0.552,0.447-1,1-1h4	c0.553,0,1,0.448,1,1v13c0,0.315-0.148,0.611-0.4,0.8l-4,3C8.424,37.932,8.212,38,8,38z M9,22v13l2-1.5V22H9z M12,34h0.01H12z"/><path fill="#8d6c9f" d="M26,37c-0.212,0-0.424-0.068-0.6-0.2l-4-3C21.148,33.611,21,33.315,21,33V21c0-0.552,0.447-1,1-1h4	c0.553,0,1,0.448,1,1v15c0,0.379-0.214,0.725-0.553,0.895C26.306,36.965,26.152,37,26,37z M23,32.5l2,1.5V22h-2V32.5z"/><path fill="#8d6c9f" d="M36,37c-0.152,0-0.306-0.035-0.447-0.105C35.214,36.725,35,36.379,35,36V21c0-0.552,0.447-1,1-1h4	c0.553,0,1,0.448,1,1v12c0,0.315-0.148,0.611-0.4,0.8l-4,3C36.424,36.932,36.212,37,36,37z M37,22v12l2-1.5V22H37z M40,33h0.01H40z"/><path fill="#8d6c9f" d="M45,39c-0.553,0-1-0.448-1-1v-6c0-0.552,0.447-1,1-1s1,0.448,1,1v6C46,38.552,45.553,39,45,39z"/><path fill="#8d6c9f" d="M31,41c-0.553,0-1-0.448-1-1v-4c0-0.552,0.447-1,1-1s1,0.448,1,1v4C32,40.552,31.553,41,31,41z"/></svg>