<svg xmlns="http://www.w3.org/2000/svg"  viewBox="0 0 64 64" width="64px" height="64px"><path fill="#8d6c9f" d="M61,31v-8c0-1.114-0.617-2.136-1.604-2.655c-0.438-0.23-0.918-0.326-1.396-0.326V20H23.29H11.543 H4.099c-2.102,0-4.002,1.226-4.095,2.864C-0.094,24.583,1.664,26,3.848,26h3.848C3.565,26,0,28.691,0,32v4.971 C0,38.644,1.739,40,3.885,40H58c1.657,0,3-1.343,3-3c1.657,0,3-1.343,3-3S62.657,31,61,31z"/><path fill="#7bbeeb" d="M58,38c-0.553,0-1-0.448-1-1v-2H42c-0.438,0-0.825-0.285-0.955-0.704 c-0.13-0.418,0.027-0.872,0.389-1.121l16-11c0.307-0.21,0.703-0.233,1.032-0.061C58.794,22.288,59,22.628,59,23v10h2 c0.553,0,1,0.448,1,1s-0.447,1-1,1h-2v2C59,37.552,58.553,38,58,38z M45.22,33H57v-8.099L45.22,33z"/><path fill="#7bbeeb" d="M3,38c-0.553,0-1-0.448-1-1v-5c0-2.206,1.724-4,3.842-4h12.316C19.174,28,20,27.103,20,26 s-0.826-2-1.842-2H3c-0.553,0-1-0.448-1-1s0.447-1,1-1h15.158C20.276,22,22,23.794,22,26s-1.724,4-3.842,4H5.842 C4.826,30,4,30.897,4,32v5C4,37.552,3.553,38,3,38z"/><path fill="#7bbeeb" d="M28,38h-8c-0.553,0-1-0.448-1-1s0.447-1,1-1h8c1.103,0,2-0.897,2-2v-8c0-2.206,1.794-4,4-4h7 c0.553,0,1,0.448,1,1s-0.447,1-1,1h-7c-1.103,0-2,0.897-2,2v8C32,36.206,30.206,38,28,38z"/><path fill="#8d6c9f" d="M4,47c0.553,0,1-0.447,1-1v-2c0-0.553-0.447-1-1-1s-1,0.447-1,1v2C3,46.553,3.447,47,4,47z"/><path fill="#8d6c9f" d="M9,47c0.553,0,1-0.447,1-1v-2c0-0.553-0.447-1-1-1s-1,0.447-1,1v2C8,46.553,8.447,47,9,47z"/><path fill="#8d6c9f" d="M14,47c0.553,0,1-0.447,1-1v-2c0-0.553-0.447-1-1-1s-1,0.447-1,1v2C13,46.553,13.447,47,14,47z"/><path fill="#8d6c9f" d="M19,47c0.553,0,1-0.447,1-1v-2c0-0.553-0.447-1-1-1s-1,0.447-1,1v2C18,46.553,18.447,47,19,47z"/><path fill="#8d6c9f" d="M24,47c0.553,0,1-0.447,1-1v-2c0-0.553-0.447-1-1-1s-1,0.447-1,1v2C23,46.553,23.447,47,24,47z"/><path fill="#8d6c9f" d="M29,47c0.553,0,1-0.447,1-1v-2c0-0.553-0.447-1-1-1s-1,0.447-1,1v2C28,46.553,28.447,47,29,47z"/><path fill="#8d6c9f" d="M35,47c0.553,0,1-0.447,1-1v-2c0-0.553-0.447-1-1-1s-1,0.447-1,1v2C34,46.553,34.447,47,35,47z"/><path fill="#8d6c9f" d="M40,47c0.553,0,1-0.447,1-1v-2c0-0.553-0.447-1-1-1c-0.553,0-1,0.447-1,1v2 C39,46.553,39.447,47,40,47z"/><path fill="#8d6c9f" d="M45,47c0.553,0,1-0.447,1-1v-2c0-0.553-0.447-1-1-1s-1,0.447-1,1v2C44,46.553,44.447,47,45,47z"/><path fill="#8d6c9f" d="M50,47c0.553,0,1-0.447,1-1v-2c0-0.553-0.447-1-1-1s-1,0.447-1,1v2C49,46.553,49.447,47,50,47z"/><path fill="#8d6c9f" d="M55,47c0.553,0,1-0.447,1-1v-2c0-0.553-0.447-1-1-1s-1,0.447-1,1v2C54,46.553,54.447,47,55,47z"/><path fill="#8d6c9f" d="M60,47c0.553,0,1-0.447,1-1v-2c0-0.553-0.447-1-1-1s-1,0.447-1,1v2C59,46.553,59.447,47,60,47z"/></svg>